<svg xmlns="http://www.w3.org/2000/svg" viewBox="0 0 1110.96 165.64"><defs><style>.cls-1{isolation:isolate;}.cls-2,.cls-4{mix-blend-mode:exclusion;}.cls-3,.cls-4{fill:#131313;}</style></defs><g class="cls-1"><g id="Layer_2" data-name="Layer 2"><g id="main_design" data-name="main design"><g class="cls-2"><path class="cls-3" d="M5.72,64.32V11.65h8.07V36l22.3-24.35H45.4L21.93,37.47,46,64.32H35.87L13.79,39.89V64.32Z" transform="translate(-5.72 -10.34)"/><path class="cls-3" d="M53.1,64.32V11.65h8.07V57.06H85v7.26Z" transform="translate(-5.72 -10.34)"/><path class="cls-3" d="M124.4,51.26H101.66L96.82,64.32H88.68l20.17-52.67h8.88l20,52.67h-8.58Zm-20.32-6.53H122L113.1,20.46Z" transform="translate(-5.72 -10.34)"/><path class="cls-3" d="M159.83,64.32H151L131.59,11.65h8.65l15.33,43.28,15.55-43.28h8.07Z" transform="translate(-5.72 -10.34)"/><path class="cls-3" d="M186.09,64.32V11.65h8.07V64.32Z" transform="translate(-5.72 -10.34)"/><path class="cls-3" d="M239,64.32H205.6V11.65h32.86v7H213.67v15h22.59v7H213.67V57.28H239Z" transform="translate(-5.72 -10.34)"/><path class="cls-3" d="M248.43,64.32V11.65h19.66c12.1,0,19.36,5.94,19.36,16.43,0,7.56-4.76,13.35-12.76,15.26l14.31,21h-9.69L266.18,44.51H256.5V64.32Zm8.07-26.56h11.08c7.48,0,11.73-3.3,11.73-9.68s-4.25-9.68-11.73-9.68H256.5Z" transform="translate(-5.72 -10.34)"/><path class="cls-3" d="M296.77,64.32V11.65h8.07V57.06h23.84v7.26Z" transform="translate(-5.72 -10.34)"/><path class="cls-3" d="M370,64.32H336.6V11.65h32.86v7H344.67v15h22.59v7H344.67V57.28H370Z" transform="translate(-5.72 -10.34)"/><path class="cls-3" d="M379.44,64.32V11.65h8.06v22h26.7v-22h8.07V64.32H414.2V40.7H387.5V64.32Z" transform="translate(-5.72 -10.34)"/><path class="cls-3" d="M433.71,64.32V11.65h19.66c12.1,0,19.36,5.94,19.36,16.43,0,7.56-4.76,13.35-12.76,15.26l14.31,21h-9.69L451.46,44.51h-9.68V64.32Zm8.07-26.56h11.08c7.48,0,11.73-3.3,11.73-9.68s-4.25-9.68-11.73-9.68H441.78Z" transform="translate(-5.72 -10.34)"/><path class="cls-3" d="M515.42,64.32H482.05V11.65h32.86v7H490.12v15h22.59v7H490.12V57.28h25.3Z" transform="translate(-5.72 -10.34)"/><path class="cls-3" d="M524.89,64.32V11.65h19.65c12.11,0,19.37,5.94,19.37,16.43,0,7.56-4.77,13.35-12.76,15.26l14.3,21h-9.68L542.64,44.51H533V64.32ZM533,37.76H544c7.48,0,11.74-3.3,11.74-9.68S551.51,18.4,544,18.4H533Z" transform="translate(-5.72 -10.34)"/><path class="cls-3" d="M573.22,64.32V11.65h8.07V64.32Z" transform="translate(-5.72 -10.34)"/><path class="cls-3" d="M600.22,23.17V64.32h-7.49V11.65h8.81L628.6,51.7V11.65h7.48V64.32h-8.14Z" transform="translate(-5.72 -10.34)"/></g><g class="cls-2"><path class="cls-3" d="M626.63,174.88V122.21h19.66c12.1,0,19.36,6,19.36,16.44,0,7.55-4.77,13.35-12.76,15.25l14.3,21h-9.68l-13.13-19.8H634.7v19.8Zm8.07-26.55h11.07c7.48,0,11.74-3.3,11.74-9.68S653.25,129,645.77,129H634.7Z" transform="translate(-5.72 -10.34)"/><path class="cls-3" d="M708.34,174.88H675V122.21h32.86v7H683v15h22.59v7H683v16.58h25.3Z" transform="translate(-5.72 -10.34)"/><path class="cls-3" d="M714.72,148.47c0-15.55,11.15-27.35,26.48-27.35,13.57,0,22.74,8.28,26,19.21h-9.39c-2-6.75-7.78-12-16.8-12-10.41,0-17.9,7.84-17.9,20.24,0,11.66,7.12,20.46,18.85,20.46,9.76,0,15.92-6,17.39-15H741.13v-6.46h26.7c.29,16.87-10.05,28.39-26.19,28.39C726.46,176,714.72,164.46,714.72,148.47Z" transform="translate(-5.72 -10.34)"/><path class="cls-3" d="M809.64,174.88H776.26V122.21h32.86v7H784.33v15h22.59v7H784.33v16.58h25.31Z" transform="translate(-5.72 -10.34)"/><path class="cls-3" d="M826.58,133.73v41.15H819.1V122.21h8.8L855,162.26v-40h7.48v52.67h-8.14Z" transform="translate(-5.72 -10.34)"/><path class="cls-3" d="M892.23,175.61c-12.69,0-20.39-7-21.05-17.45h8.21c.37,6.67,4.62,11,12.69,11,6.67,0,11.66-3.16,11.66-8.58,0-4.4-2.86-6.6-9-7.92l-7.62-1.47C879.76,149.72,873,146,873,137s7.77-15.55,18.7-15.55,19.22,6.68,19.88,17.17h-8.21c-.44-6.31-5-10.71-11.59-10.71-6.82,0-10.57,4-10.57,8.58,0,5,4.33,6.75,9.25,7.77l7.77,1.54c9,1.84,14.08,5.8,14.08,13.65C912.32,168.65,905,175.61,892.23,175.61Z" transform="translate(-5.72 -10.34)"/><path class="cls-3" d="M940.93,174.88H921.64V122.21H939.9c10.64,0,17,4.92,17,13.79,0,5-3,9.25-8.07,11.45,6.53,1.83,10,6.3,10,12.32C958.9,169.38,951.86,174.88,940.93,174.88Zm-11.88-46.21v15.84h10.34c6.38,0,9.83-3,9.83-7.92s-3.45-7.92-9.83-7.92Zm0,22.3v17.45h11.37c6.89,0,10.78-3.3,10.78-8.87,0-5.35-3.89-8.58-10.78-8.58Z" transform="translate(-5.72 -10.34)"/><path class="cls-3" d="M1007.68,156c0,12.1-7.78,20-20.39,20S967,168.06,967,156V122.21H975v34c0,7.62,4.47,12.54,12.25,12.54s12.32-4.92,12.32-12.54v-34h8.07Z" transform="translate(-5.72 -10.34)"/><path class="cls-3" d="M1018.9,174.88V122.21h19.66c12.1,0,19.36,6,19.36,16.44,0,7.55-4.77,13.35-12.76,15.25l14.3,21h-9.68l-13.13-19.8H1027v19.8Zm8.07-26.55H1038c7.49,0,11.74-3.3,11.74-9.68S1045.53,129,1038,129H1027Z" transform="translate(-5.72 -10.34)"/><path class="cls-3" d="M1063.57,148.47c0-15.55,11.15-27.35,26.48-27.35,13.57,0,22.74,8.28,26,19.21h-9.38c-2-6.75-7.78-12-16.8-12-10.42,0-17.9,7.84-17.9,20.24,0,11.66,7.12,20.46,18.85,20.46,9.76,0,15.92-6,17.39-15H1090v-6.46h26.69c.3,16.87-10,28.39-26.18,28.39C1075.31,176,1063.57,164.46,1063.57,148.47Z" transform="translate(-5.72 -10.34)"/></g><g class="cls-2"><path class="cls-3" d="M574.11,63V10.34h8.07V63Z" transform="translate(-5.72 -10.34)"/><path class="cls-3" d="M601.1,21.86V63h-7.48V10.34h8.81l27.06,40.05v-40H637V63h-8.14Z" transform="translate(-5.72 -10.34)"/></g><rect class="cls-4" x="559.59" y="82.27" width="35.3" height="82.27"/><rect class="cls-4" x="568.16" width="9.08" height="82.27"/></g></g></g></svg>