<svg xmlns="http://www.w3.org/2000/svg" xmlns:xlink="http://www.w3.org/1999/xlink" viewBox="0 0 1264.33 1379.54"><defs><style>.cls-1{fill:none;}.cls-2{opacity:0.53;}.cls-3{clip-path:url(#clip-path);}.cls-4{fill:#131313;}</style><clipPath id="clip-path" transform="translate(47.69 149.77)"><rect class="cls-1" width="1189.42" height="1080"/></clipPath></defs><g id="Layer_2" data-name="Layer 2"><g id="main_design" data-name="main design"><g class="cls-2"><g class="cls-3"><path class="cls-4" d="M960.29,262.74a9.48,9.48,0,0,0-6.17-2.89,9.2,9.2,0,0,0-6,1.78,9.56,9.56,0,0,0-2.26,2.33l-.78-1.33c-.51-.85-1-1.73-1.5-2.61a23.17,23.17,0,0,0,1.37-3.56,16.2,16.2,0,0,0,.39-9.1c-.81-3-1.76-5.94-3.67-8.16a12.6,12.6,0,0,0-1.68-1.63,8.47,8.47,0,0,0-1.39-1.07,2.42,2.42,0,0,0-2.2-.06,4.16,4.16,0,0,0-2,2.9,7.42,7.42,0,0,0-.15,1.32,5.18,5.18,0,0,0,0,.56v.13c0,.12,0,.11,0,.18l0,.3a13.69,13.69,0,0,0,1.34,4.21c.56,1.24,1.12,2.47,1.67,3.7.82,2,1.73,3.83,2.67,5.65a28.53,28.53,0,0,1-1.2,3.14l-.84,1.86c-.29.61-.56,1.3-.84,2a21.87,21.87,0,0,0-1.55,8.92,11.69,11.69,0,0,0,3.82,8.37,12.48,12.48,0,0,0,8.15,3,18.15,18.15,0,0,0,7.6-1.69c.71,1.15,1.38,2.25,2,3.32,1.89,2.7,1.87,5.79.37,7.44a4,4,0,0,1-3.67,1.12l.3-.09a2.69,2.69,0,1,0-3.43-1.63,2.22,2.22,0,0,0,.14.32h0a2.67,2.67,0,0,0,1.22,1.2l.35.22a5,5,0,0,0,2.43.61,5.22,5.22,0,0,0,3.21-1.16,5,5,0,0,0,1.77-3.93,6.48,6.48,0,0,0-.44-2.43,23.36,23.36,0,0,0-1.16-2.29c-.61-1.05-1.27-2.14-2-3.26a17,17,0,0,0,5.09-4.29,10.11,10.11,0,0,0,2-7A10.61,10.61,0,0,0,960.29,262.74Zm-22.95-19.26c0-1.14-.37-4.18,1.38-4.28,1.1-.07,1.75,1.22,2.07,2.08a13.58,13.58,0,0,1,.74,6.41,54.61,54.61,0,0,1-1.11,6.07c-.67-1.47-1.32-3-1.92-4.49A17.66,17.66,0,0,1,937.34,243.48Zm10.31,37a10.11,10.11,0,0,1-6.25-2.86,8.31,8.31,0,0,1-2.11-6.27,19.75,19.75,0,0,1,2.08-7c.25-.54.54-1.11.9-1.73l.47-.86c.12-.21.24-.42.35-.63.39.69.78,1.38,1.16,2.07l1,1.78a9.51,9.51,0,0,0-1.07,5.49,9.62,9.62,0,0,0,2.55,5.41,9.46,9.46,0,0,0,1.13,1l.41.32a14.89,14.89,0,0,1-1-1.72,10.11,10.11,0,0,1-1.12-5.09,7.86,7.86,0,0,1,.68-2.78c1.48,2.48,2.94,4.85,4.31,7.09,1.06,1.75,2.1,3.4,3.09,5A14.38,14.38,0,0,1,947.65,280.44Zm14.16-11.09a7.17,7.17,0,0,1-1.49,6,13.59,13.59,0,0,1-4.89,3.75c-1-1.63-2.12-3.34-3.27-5.11-1.53-2.36-3.13-4.86-4.75-7.51a7.89,7.89,0,0,1,2.41-2.44,7.75,7.75,0,0,1,8.79.55A8.23,8.23,0,0,1,961.81,269.35Z" transform="translate(47.69 149.77)"/><path class="cls-4" d="M1007.28,431l-9.95-4.08c0,.29-.47,3.59-1.45,10.95a2.52,2.52,0,0,0-2-.18c-1.2.35-2,1.37-1.7,2.27a2,2,0,0,0,2.66,1A2.21,2.21,0,0,0,996.6,439l1.24-9.28,8.25,3.25-1.29,9.73a2.61,2.61,0,0,0-2-.18c-1.2.36-2,1.37-1.7,2.28a2,2,0,0,0,2.66,1,2.18,2.18,0,0,0,1.75-2C1007.24,430.86,1007,432.8,1007.28,431Z" transform="translate(47.69 149.77)"/><path class="cls-4" d="M722.75-61.74C721.3-65.53,716-67,711-65.1c-4.43,1.69-7.21,5.45-6.85,8.91l-2.6,49.74,2.64.14,2.39-45.83c2.35,1.72,6,2.12,9.66.74C721.27-53.33,724.19-57.95,722.75-61.74Z" transform="translate(47.69 149.77)"/><path class="cls-4" d="M25.8,1012l-1.35.35,6.15,23.57a5.45,5.45,0,0,0-5.07,1.15c-2.23,1.77-3,4.58-1.63,6.25s4.23,1.59,6.46-.19a5.34,5.34,0,0,0,2.22-4.94h.05Z" transform="translate(47.69 149.77)"/><path class="cls-4" d="M881-70.37a14.66,14.66,0,0,0-7.29-7.6,14.25,14.25,0,0,0-9.65-.77,14.82,14.82,0,0,0-4.56,2.1c-.13-.78-.27-1.56-.39-2.35-.26-1.52-.49-3.06-.7-4.61a35,35,0,0,0,4-4.38A25,25,0,0,0,868-100.9c.48-4.72.78-9.56-.75-13.83A19.29,19.29,0,0,0,865.7-118a12.94,12.94,0,0,0-1.41-2.33,3.71,3.71,0,0,0-3.14-1.31,6.45,6.45,0,0,0-4.54,3.07,12.46,12.46,0,0,0-.94,1.81,7.83,7.83,0,0,0-.32.81l-.07.19a2.72,2.72,0,0,0-.07.28l-.12.45a21.4,21.4,0,0,0-.4,6.83c.12,2.1.23,4.19.35,6.27.09,3.28.35,6.49.71,9.64a45.36,45.36,0,0,1-3.48,3.87L850-86.2c-.75.71-1.54,1.56-2.34,2.47a33.64,33.64,0,0,0-7.21,12,18.08,18.08,0,0,0,.85,14.2,19.23,19.23,0,0,0,10.12,8.81,28.09,28.09,0,0,0,11.92,1.8c.38,2,.73,4,1,5.9,1.22,5-.53,9.41-3.61,11a6.13,6.13,0,0,1-5.93-.43,3.58,3.58,0,0,0,.48,0,4.17,4.17,0,0,0,4.29-4,4.18,4.18,0,0,0-4.07-4.28,4.17,4.17,0,0,0-4.27,4.06,4.89,4.89,0,0,0,0,.54h0a4.1,4.1,0,0,0,1.09,2.41c.12.17.24.34.39.52A7.83,7.83,0,0,0,855.93-29a8.16,8.16,0,0,0,5.29.11A7.76,7.76,0,0,0,866-33.57a9.78,9.78,0,0,0,.72-3.75,33.58,33.58,0,0,0-.41-4c-.29-1.86-.63-3.8-1-5.8A26.54,26.54,0,0,0,875-50.43a15.62,15.62,0,0,0,6.79-9A16.35,16.35,0,0,0,881-70.37ZM858.57-111c.6-1.66,1.8-6.24,4.38-5.42,1.62.52,1.84,2.74,1.82,4.15a21,21,0,0,1-2.49,9.68,90,90,0,0,1-5,8.15q-.24-3.73-.26-7.56A27.07,27.07,0,0,1,858.57-111Zm-5.7,59.12a15.71,15.71,0,0,1-7.44-7.62,12.88,12.88,0,0,1,.45-10.22,30.61,30.61,0,0,1,6.92-9c.67-.63,1.4-1.29,2.27-2l1.16-1c.29-.24.57-.47.85-.72.18,1.22.36,2.44.54,3.64s.33,2.11.51,3.15a14.81,14.81,0,0,0-4.6,7.34A14.82,14.82,0,0,0,854.2-59a15.31,15.31,0,0,0,1,2.12l.43.68a23.69,23.69,0,0,1-.5-3,15.39,15.39,0,0,1,1.22-8,12.14,12.14,0,0,1,2.52-3.63c.76,4.41,1.54,8.63,2.28,12.65.56,3.1,1.14,6.07,1.68,8.9A22.17,22.17,0,0,1,852.87-51.84ZM879.5-60A11.09,11.09,0,0,1,874-52.08a20.89,20.89,0,0,1-9.15,2.69c-.57-2.93-1.21-6-1.88-9.2-.89-4.25-1.81-8.77-2.67-13.49a12,12,0,0,1,4.83-2.18,12,12,0,0,1,12.4,5.7A12.73,12.73,0,0,1,879.5-60Z" transform="translate(47.69 149.77)"/><path class="cls-4" d="M972.63,156.77a1.15,1.15,0,0,0-2.16.78c1.66,4.6-2.6,7.63-7.1,10.34l-.89.53a25.68,25.68,0,0,0-4.37,3.23l.53-35.79a9,9,0,0,0,8.46.35c4.32-1.85,6.7-6,5.33-9.21s-6-4.38-10.33-2.54c-3.67,1.56-5.93,4.76-5.7,7.67l-.65,43.92a1.15,1.15,0,1,0,2.3,0V176c.43-1.48,1.18-2.87,5.64-5.62l.86-.53C968.22,167.64,975.06,163.53,972.63,156.77Z" transform="translate(47.69 149.77)"/><path class="cls-4" d="M190.47,719.75a1.1,1.1,0,1,0-2.08.72c1.54,4.42-2.57,7.28-6.9,9.82l-.85.5a23.88,23.88,0,0,0-4.22,3l.89-34.23a8.65,8.65,0,0,0,8.09.42c4.15-1.72,6.48-5.64,5.2-8.75s-5.7-4.25-9.86-2.54c-3.53,1.46-5.72,4.49-5.53,7.28l-1.09,42a1.1,1.1,0,1,0,2.19.05V738c.42-1.41,1.15-2.73,5.45-5.32l.83-.49C186.14,730.1,192.72,726.24,190.47,719.75Z" transform="translate(47.69 149.77)"/><path class="cls-4" d="M-23.52,734.76c-.19-2.68-3.24-4.65-6.82-4.4-3.13.21-5.63,2.06-6.07,4.32l-11.28,31.08,1.65.6,10.39-28.63a6.91,6.91,0,0,0,6,2.34C-26.09,739.82-23.34,737.45-23.52,734.76Z" transform="translate(47.69 149.77)"/><path class="cls-4" d="M16.79,281.38,8.51,278c0,.24-.38,3-1.19,9.12A2.15,2.15,0,0,0,5.66,287c-1,.3-1.63,1.15-1.41,1.9a1.7,1.7,0,0,0,2.21.82,1.84,1.84,0,0,0,1.46-1.61l1-7.72,6.87,2.7-1.07,8.1a2.09,2.09,0,0,0-1.65-.15c-1,.3-1.63,1.15-1.41,1.9a1.7,1.7,0,0,0,2.22.82,1.82,1.82,0,0,0,1.45-1.64C16.77,281.3,16.54,282.92,16.79,281.38Z" transform="translate(47.69 149.77)"/><path class="cls-4" d="M1114-59a7.57,7.57,0,0,0-4.61-2.89,7.42,7.42,0,0,0-4.93.83,7.49,7.49,0,0,0-2,1.63c-.17-.37-.33-.75-.49-1.13q-.48-1.09-.93-2.22a19.73,19.73,0,0,0,1.43-2.69,13.08,13.08,0,0,0,1.19-7.19,16.63,16.63,0,0,0-2.12-6.83,9.93,9.93,0,0,0-1.18-1.46,6.68,6.68,0,0,0-1-1,1.93,1.93,0,0,0-1.74-.27,3.39,3.39,0,0,0-1.89,2.11,6.65,6.65,0,0,0-.24,1c0,.19,0,.31-.06.45v.49a11.21,11.21,0,0,0,.66,3.48c.32,1,.64,2.06,1,3.09.45,1.64,1,3.21,1.57,4.74a24.62,24.62,0,0,1-1.26,2.38l-.85,1.4c-.29.46-.57,1-.86,1.54a17.27,17.27,0,0,0-2.1,6.93,9.35,9.35,0,0,0,2.22,7,9.94,9.94,0,0,0,6.18,3.14,14.55,14.55,0,0,0,6.2-.6c.45,1,.87,1.92,1.25,2.82,1.24,2.33.93,4.79-.43,5.95a3.18,3.18,0,0,1-3,.53l.25,0a2.16,2.16,0,0,0,1.64-2.57,2.15,2.15,0,0,0-2.58-1.63,2.15,2.15,0,0,0-1.63,2.57,2.76,2.76,0,0,0,.08.27h0a2.15,2.15,0,0,0,.85,1.07l.26.21a4.07,4.07,0,0,0,1.87.72,4.21,4.21,0,0,0,2.67-.61,4,4,0,0,0,1.78-3,5.08,5.08,0,0,0-.11-2,17,17,0,0,0-.71-1.93c-.38-.9-.79-1.82-1.23-2.78a13.62,13.62,0,0,0,4.45-2.91,8,8,0,0,0,2.27-5.38A8.43,8.43,0,0,0,1114-59Zm-16.34-17.51c.09-.91.11-3.36,1.51-3.27.88,0,1.27,1.14,1.44,1.85a11,11,0,0,1,0,5.16,48,48,0,0,1-1.48,4.72c-.39-1.23-.76-2.48-1.08-3.76A13.78,13.78,0,0,1,1097.63-76.55Zm4.59,30.34a8.12,8.12,0,0,1-4.68-2.88,6.61,6.61,0,0,1-1.06-5.18,15.61,15.61,0,0,1,2.33-5.39c.25-.4.53-.82.88-1.29l.46-.63.33-.47.73,1.75.65,1.52a7.59,7.59,0,0,0-1.37,4.26A7.7,7.7,0,0,0,1102-50a7.23,7.23,0,0,0,.8.92l.3.29a11.7,11.7,0,0,1-.64-1.46,8.08,8.08,0,0,1-.39-4.15,6.45,6.45,0,0,1,.8-2.14c.94,2.11,1.87,4.13,2.74,6.05.67,1.48,1.34,2.9,2,4.25A11.47,11.47,0,0,1,1102.22-46.21Zm12.32-7.43a5.73,5.73,0,0,1-1.77,4.65,10.88,10.88,0,0,1-4.24,2.5c-.66-1.4-1.36-2.85-2.11-4.37-1-2-2-4.17-3-6.43a6.16,6.16,0,0,1,2.14-1.7,6.2,6.2,0,0,1,6.93,1.29A6.6,6.6,0,0,1,1114.54-53.64Z" transform="translate(47.69 149.77)"/><path class="cls-4" d="M442.78,887.11l-1.92-.54-9.4,33.56a7.82,7.82,0,0,0-7.09-2.23c-4,.58-7,3.52-6.53,6.55s4.08,5,8.12,4.43c3.12-.45,5.56-2.29,6.31-4.5h.06Z" transform="translate(47.69 149.77)"/><path class="cls-4" d="M261.21,560.27,241.6,572.35l1.88,5.54h0l6.18,18.19a5.56,5.56,0,0,0-4.06,1.58c-2,1.85-2.51,4.57-1.12,6.08s4.14,1.22,6.15-.62a5.25,5.25,0,0,0,1.85-4.53h0l0-.08a3.27,3.27,0,0,0-.3-.88l-7.05-20.76,16.24-10.22L267.59,585a5.5,5.5,0,0,0-4.09,1.57c-2,1.86-2.51,4.58-1.12,6.09s4.14,1.22,6.15-.63c1.68-1.54,2.29-3.68,1.65-5.23h0L263,565.6h0Z" transform="translate(47.69 149.77)"/><path class="cls-4" d="M441.88,1149.06l-2-.24-4.26,34.34a7.76,7.76,0,0,0-7.29-1.14c-3.88,1.17-6.31,4.49-5.44,7.4s4.75,4.32,8.63,3.14c3-.9,5.12-3.07,5.53-5.36h.06Z" transform="translate(47.69 149.77)"/><path class="cls-4" d="M616.65,1049.5l-49.17-28.68c-.43,1.49-5.08,18.52-15.61,56.4a13.52,13.52,0,0,0-10.32-2.41c-6.57,1-11.3,5.76-10.59,10.69s6.64,8.13,13.21,7.16c5.76-.84,10.12-4.61,10.61-8.86L568.06,1036,609,1059.15l-13.93,50.08a13.51,13.51,0,0,0-10.27-2.37c-6.57,1-11.3,5.75-10.58,10.68s6.63,8.13,13.21,7.17c5.85-.86,10.22-4.74,10.6-9.06C616.55,1049,613.7,1059,616.65,1049.5Z" transform="translate(47.69 149.77)"/><path class="cls-4" d="M935.28,1073.7a.33.33,0,0,0-.42-.19.33.33,0,0,0-.19.41c.46,1.3-.74,2.15-2,2.91l-.25.15a6.72,6.72,0,0,0-1.23.91l.16-10.08a2.52,2.52,0,0,0,2.38.11,1.87,1.87,0,1,0-1.4-3.31,2.35,2.35,0,0,0-1.61,2.15l-.2,12.37a.33.33,0,0,0,.65,0v0c.12-.41.33-.8,1.59-1.58l.24-.15C934,1076.76,936,1075.61,935.28,1073.7Z" transform="translate(47.69 149.77)"/><path class="cls-4" d="M810.56,1175.32a1.45,1.45,0,1,0-2.2,1.9c4,4.7.39,10.22-3.71,15.47l-.81,1a32.24,32.24,0,0,0-3.7,5.8l-15.64-42.62c3.13.74,7.09-.45,10.17-3.42,4.28-4.15,5.22-10.12,2.13-13.33s-9.11-2.45-13.4,1.69c-3.63,3.52-4.85,8.33-3.25,11.67l19.19,52.3a1.46,1.46,0,0,0,2.74-1l0-.11c-.16-2,.09-3.93,4.12-9.22l.78-1C810.29,1190.19,816.51,1182.22,810.56,1175.32Z" transform="translate(47.69 149.77)"/><path class="cls-4" d="M640.26,1194.38l-18.93-2.72-1.75,4.53h0l-5.74,14.9a4.64,4.64,0,0,0-3.42-1.16c-2.27.12-4,1.59-4,3.29s2,3,4.27,2.88a4.4,4.4,0,0,0,3.58-1.91h0l0-.06a2.76,2.76,0,0,0,.28-.72l6.54-17,15.8,2.11-5.78,15a4.62,4.62,0,0,0-3.45-1.17c-2.27.12-4,1.59-4,3.29s2,3,4.26,2.87a4.05,4.05,0,0,0,3.82-2.46h0l6.67-17.34h0Z" transform="translate(47.69 149.77)"/><path class="cls-4" d="M250.41,942.13a11.45,11.45,0,0,0-6.72-4.8,11.24,11.24,0,0,0-7.55.83,11.46,11.46,0,0,0-3.2,2.28c-.22-.58-.44-1.16-.65-1.75-.42-1.13-.82-2.28-1.21-3.45a27.17,27.17,0,0,0,2.4-4,19.74,19.74,0,0,0,2.45-10.78c-.33-3.7-.8-7.47-2.61-10.54a14.42,14.42,0,0,0-1.65-2.31,10.18,10.18,0,0,0-1.42-1.58,2.94,2.94,0,0,0-2.62-.56,5.08,5.08,0,0,0-3,3,8.74,8.74,0,0,0-.46,1.54,6.41,6.41,0,0,0-.13.67l0,.15c0,.16,0,.15,0,.23l0,.37a16.48,16.48,0,0,0,.69,5.32c.4,1.6.79,3.19,1.19,4.77.54,2.52,1.22,4.95,2,7.32a35.71,35.71,0,0,1-2.11,3.5l-1.42,2c-.47.66-1,1.43-1.44,2.25A26.38,26.38,0,0,0,219,947a14.21,14.21,0,0,0,2.73,10.82,15.17,15.17,0,0,0,9.09,5.3,22.12,22.12,0,0,0,9.44-.36c.6,1.52,1.16,3,1.65,4.39,1.67,3.64,1,7.33-1.18,9a4.83,4.83,0,0,1-4.63.54l.38,0a3.27,3.27,0,1,0-3.75-2.7c0,.14.06.28.1.41h0a3.27,3.27,0,0,0,1.2,1.7l.37.34a6,6,0,0,0,2.77,1.26,6.31,6.31,0,0,0,4.09-.69,6,6,0,0,0,3-4.3,7.76,7.76,0,0,0,0-3,28,28,0,0,0-.89-3c-.5-1.39-1-2.83-1.63-4.32a20.77,20.77,0,0,0,7-4,12.22,12.22,0,0,0,3.92-8A12.79,12.79,0,0,0,250.41,942.13Zm-23.19-28c.21-1.37.46-5.07,2.57-4.82,1.33.16,1.82,1.84,2,2.93a16.57,16.57,0,0,1-.51,7.82,69,69,0,0,1-2.65,7c-.49-1.9-.93-3.82-1.31-5.78A21,21,0,0,1,227.22,914.14Zm4.25,46.37a12.29,12.29,0,0,1-6.84-4.78,10.09,10.09,0,0,1-1.15-7.94,24.19,24.19,0,0,1,4-8c.43-.58.89-1.2,1.45-1.87l.76-.92.55-.67c.32.91.63,1.82.94,2.71s.57,1.58.86,2.36a11.28,11.28,0,0,0-.6,13.33,10.22,10.22,0,0,0,1.12,1.48l.42.46a18.76,18.76,0,0,1-.83-2.27,12.16,12.16,0,0,1-.22-6.32,9.35,9.35,0,0,1,1.41-3.17c1.23,3.29,2.45,6.43,3.6,9.41.89,2.31,1.77,4.51,2.6,6.61A17.39,17.39,0,0,1,231.47,960.51Zm19.33-10.16a8.69,8.69,0,0,1-3.1,6.88,16.34,16.34,0,0,1-6.65,3.42c-.87-2.17-1.81-4.44-2.8-6.81-1.31-3.15-2.67-6.49-4-10A9.13,9.13,0,0,1,248,944,10,10,0,0,1,250.8,950.35Z" transform="translate(47.69 149.77)"/><path class="cls-4" d="M410.32-130.92l-19.53,8,.88,5.29h0l2.91,17.38a5.11,5.11,0,0,0-3.91.83c-2.09,1.38-2.95,3.77-1.91,5.34s3.57,1.72,5.66.34a4.83,4.83,0,0,0,2.34-3.82h0l0-.08a2.58,2.58,0,0,0-.14-.83l-3.31-19.84,16.21-6.86,2.93,17.52a5.1,5.1,0,0,0-3.94.83c-2.09,1.38-2.95,3.77-1.92,5.34s3.58,1.72,5.67.34a4.52,4.52,0,0,0,2.26-4.49h0l-3.38-20.23h0Z" transform="translate(47.69 149.77)"/><path class="cls-4" d="M348.77,496.9c-.41-2.36-3.28-3.83-6.42-3.3-2.76.47-4.8,2.33-5,4.37l-7.24,28.49,1.51.38,6.66-26.25a6.13,6.13,0,0,0,5.51,1.55C346.94,501.6,349.16,499.26,348.77,496.9Z" transform="translate(47.69 149.77)"/><path class="cls-4" d="M316.53,1043l-1.16-.06-1.11,20.18a4.54,4.54,0,0,0-4.3-.37c-2.21.83-3.5,2.86-2.87,4.53s2.94,2.32,5.15,1.48a4.4,4.4,0,0,0,3-3.34h0Z" transform="translate(47.69 149.77)"/><path class="cls-4" d="M1006.15,62.6a2,2,0,0,0-2.75,0,2.1,2.1,0,0,0-.92,2.34l2.53,10.9.58-.13-2.34-10a2.37,2.37,0,0,0,2.14-.44A2,2,0,0,0,1006.15,62.6Z" transform="translate(47.69 149.77)"/><path class="cls-4" d="M943.58,727.21l-2.34-1-16.77,40.83c-1.55-2.36-4.82-4-8.59-3.85-5.16.14-9.27,3.41-9.17,7.28s4.39,6.91,9.56,6.77c4-.11,7.33-2.07,8.61-4.74l.07,0Z" transform="translate(47.69 149.77)"/><path class="cls-4" d="M650.51,967.26l-16,.88c.13.42,1.68,5.15,5.08,15.71a3.85,3.85,0,0,0-2.8,1c-1.4,1.25-1.77,3.11-.84,4.16s2.83.89,4.23-.36a3.3,3.3,0,0,0,1.12-3.73L637,971.64l13.23-.92,4.5,14a3.81,3.81,0,0,0-2.79,1c-1.4,1.25-1.77,3.11-.83,4.16s2.82.89,4.22-.36a3.27,3.27,0,0,0,1.09-3.78C650.41,967.16,651.3,970,650.51,967.26Z" transform="translate(47.69 149.77)"/><path class="cls-4" d="M685.63,896.32a6,6,0,0,0-3.87-1.91,6,6,0,0,0-5.27,2.51l-.48-.85c-.31-.54-.62-1.1-.92-1.67a13.65,13.65,0,0,0,.91-2.24,10.33,10.33,0,0,0,.35-5.75,13.05,13.05,0,0,0-2.23-5.21,7.37,7.37,0,0,0-1-1.05,5.67,5.67,0,0,0-.87-.7,1.53,1.53,0,0,0-1.39-.06,2.65,2.65,0,0,0-1.31,1.82,5.9,5.9,0,0,0-.11.83c0,.15,0,.24,0,.35v.08a.71.71,0,0,0,0,.12v.19a8.75,8.75,0,0,0,.81,2.68l1,2.36c.5,1.25,1,2.45,1.63,3.61a18.47,18.47,0,0,1-.8,2l-.55,1.18c-.19.38-.37.81-.55,1.27a13.83,13.83,0,0,0-1.09,5.64,7.43,7.43,0,0,0,2.32,5.34,7.9,7.9,0,0,0,5.13,2,11.37,11.37,0,0,0,4.83-1c.44.73.85,1.44,1.22,2.12,1.17,1.73,1.12,3.69.15,4.72a2.51,2.51,0,0,1-2.34.67,1.06,1.06,0,0,0,.19-.06,1.7,1.7,0,1,0-2.15-1.07,1.8,1.8,0,0,0,.08.21h0a1.77,1.77,0,0,0,.76.77l.22.14a3.15,3.15,0,0,0,1.53.42,3.38,3.38,0,0,0,2.05-.7,3.13,3.13,0,0,0,1.16-2.47,3.94,3.94,0,0,0-.24-1.54,15.24,15.24,0,0,0-.72-1.46c-.37-.68-.77-1.38-1.2-2.09a10.87,10.87,0,0,0,3.27-2.66,6.39,6.39,0,0,0,1.35-4.42A6.71,6.71,0,0,0,685.63,896.32Zm-14.31-12.46c0-.72-.18-2.65.93-2.7.69,0,1.09.8,1.28,1.34a8.54,8.54,0,0,1,.4,4.07,36,36,0,0,1-.77,3.83c-.41-.93-.81-1.89-1.17-2.86A11.29,11.29,0,0,1,671.32,883.86Zm6.11,23.52a6.44,6.44,0,0,1-3.93-1.89,5.22,5.22,0,0,1-1.26-4,12.43,12.43,0,0,1,1.4-4.43,11,11,0,0,1,.59-1.09l.31-.54.22-.39.72,1.32c.21.38.42.76.64,1.14a6,6,0,0,0-.74,3.47,6.07,6.07,0,0,0,1.55,3.45,7.28,7.28,0,0,0,.7.66l.26.2a9.11,9.11,0,0,1-.62-1.1,6.34,6.34,0,0,1-.65-3.23,5.06,5.06,0,0,1,.46-1.75c.91,1.59,1.81,3.1,2.65,4.54.65,1.11,1.29,2.17,1.9,3.18A9,9,0,0,1,677.43,907.38Zm9.09-6.86a4.53,4.53,0,0,1-1,3.8,8.45,8.45,0,0,1-3.14,2.32c-.63-1-1.31-2.13-2-3.27-.94-1.51-1.93-3.11-2.92-4.81A5,5,0,0,1,679,897a4.9,4.9,0,0,1,5.56.46A5.16,5.16,0,0,1,686.52,900.52Z" transform="translate(47.69 149.77)"/><path class="cls-4" d="M544.06,1169.54c-.85-4.49-6.39-7.22-12.39-6.1-5.25,1-9.1,4.6-9.4,8.51l-12.91,54.72,2.9.68,11.89-50.4c2.27,2.37,6.29,3.57,10.58,2.76C540.72,1178.59,544.89,1174,544.06,1169.54Z" transform="translate(47.69 149.77)"/><path class="cls-4" d="M560.56,783.62,521.83,798.9l1.59,10.45h0l5.23,34.34a10.08,10.08,0,0,0-7.73,1.52c-4.16,2.66-5.92,7.35-3.93,10.48s7,3.49,11.16.84c3-1.9,4.69-4.82,4.72-7.48h0l0-.15a5.75,5.75,0,0,0-.25-1.66l-6-39.19,32.15-13,5.27,34.62a10,10,0,0,0-7.78,1.51c-4.17,2.66-5.92,7.35-3.94,10.48s7,3.49,11.16.84c3.47-2.22,5.24-5.84,4.58-8.79h0l-6.08-40h0Z" transform="translate(47.69 149.77)"/><path class="cls-4" d="M213.51,33a8.91,8.91,0,0,0-5.28-3.64,8.66,8.66,0,0,0-5.85.72,9.07,9.07,0,0,0-2.46,1.81l-.53-1.35c-.33-.88-.66-1.77-1-2.67a21.66,21.66,0,0,0,1.83-3.09,15.31,15.31,0,0,0,1.77-8.4c-.29-2.87-.7-5.8-2.14-8.16a11.15,11.15,0,0,0-1.31-1.77,7.67,7.67,0,0,0-1.12-1.22,2.33,2.33,0,0,0-2-.4,4,4,0,0,0-2.33,2.39,7.71,7.71,0,0,0-.34,1.2,4.77,4.77,0,0,0-.09.52l0,.12c0,.12,0,.11,0,.18v.28a13.22,13.22,0,0,0,.59,4.13c.33,1.23.66,2.47,1,3.69.46,1.95,1,3.83,1.6,5.67a25.93,25.93,0,0,1-1.6,2.73l-1.08,1.61c-.35.52-.72,1.11-1.09,1.76a20.54,20.54,0,0,0-2.82,8.05,11,11,0,0,0,2.24,8.38,11.79,11.79,0,0,0,7.12,4,17,17,0,0,0,7.33-.39c.48,1.18.93,2.31,1.33,3.4,1.34,2.8.84,5.68-.82,7a3.75,3.75,0,0,1-3.59.48l.29,0a2.54,2.54,0,1,0-2.93-2c0,.11,0,.21.08.32h0a2.51,2.51,0,0,0,1,1.3l.29.26a4.86,4.86,0,0,0,2.16.95,5,5,0,0,0,3.17-.58,4.7,4.7,0,0,0,2.25-3.38,5.9,5.9,0,0,0,0-2.33,20.75,20.75,0,0,0-.73-2.31c-.4-1.07-.84-2.18-1.31-3.33a16.35,16.35,0,0,0,5.4-3.2,9.51,9.51,0,0,0,3-6.22A10,10,0,0,0,213.51,33ZM195.17,11.54c.15-1.07.31-3.94,2-3.77,1,.11,1.43,1.41,1.6,2.25a12.9,12.9,0,0,1-.3,6.08,56.43,56.43,0,0,1-2,5.48c-.4-1.47-.77-3-1.09-4.48A16.75,16.75,0,0,1,195.17,11.54Zm3.84,36a9.6,9.6,0,0,1-5.37-3.64,7.83,7.83,0,0,1-1-6.15,18.62,18.62,0,0,1,3-6.23c.32-.46.68-.94,1.11-1.47l.57-.72.42-.53c.26.7.52,1.4.77,2.1l.69,1.82a8.76,8.76,0,0,0-.32,10.36,8.71,8.71,0,0,0,.89,1.13l.33.36a16.82,16.82,0,0,1-.67-1.76,9.44,9.44,0,0,1-.24-4.9,7.21,7.21,0,0,1,1.06-2.48c1,2.54,2,5,2.91,7.27.71,1.78,1.42,3.48,2.09,5.1A13.6,13.6,0,0,1,199,47.51ZM213.9,39.4a6.75,6.75,0,0,1-2.33,5.38,12.68,12.68,0,0,1-5.13,2.72c-.69-1.67-1.45-3.43-2.24-5.25-1.06-2.43-2.15-5-3.25-7.72a7.09,7.09,0,0,1,10.71,0A7.78,7.78,0,0,1,213.9,39.4Z" transform="translate(47.69 149.77)"/><path class="cls-4" d="M807.11,633.84a.39.39,0,0,0-.43-.36.4.4,0,0,0-.37.43c.14,1.7-1.57,2.34-3.33,2.84l-.35.1a8.28,8.28,0,0,0-1.77.7l3.43-12a3.14,3.14,0,0,0,2.82.88c1.63-.23,2.81-1.4,2.64-2.62s-1.63-2-3.26-1.8a3,3,0,0,0-2.62,2.08l-4.21,14.76a.4.4,0,0,0,.28.49.4.4,0,0,0,.49-.27v0c.28-.46.66-.86,2.42-1.39l.33-.1C804.64,637.11,807.32,636.35,807.11,633.84Z" transform="translate(47.69 149.77)"/><path class="cls-4" d="M711.74,636.26,672,635.93l-2.33,9.82h0L662,678a9.57,9.57,0,0,0-7.38-1.42c-4.64.87-7.87,4.39-7.23,7.87s4.94,5.58,9.58,4.73a9.1,9.1,0,0,0,6.85-4.93h0l0-.15a5.07,5.07,0,0,0,.37-1.56L673,645.75l33.12,0-7.72,32.53a9.61,9.61,0,0,0-7.43-1.45c-4.64.87-7.87,4.39-7.23,7.87s4.93,5.59,9.58,4.73c3.86-.72,6.71-3.29,7.19-6.14h0l8.91-37.55h0Z" transform="translate(47.69 149.77)"/><path class="cls-4" d="M1063.89,1164.61l-15.22,5.69.55,4.09h0l1.79,13.44a3.9,3.9,0,0,0-3,.54c-1.64,1-2.36,2.82-1.61,4.06s2.7,1.41,4.35.41a3.73,3.73,0,0,0,1.89-2.89h0v-.06a2.37,2.37,0,0,0-.09-.65l-2-15.34,12.64-4.86,1.81,13.55a3.88,3.88,0,0,0-3,.53c-1.64,1-2.36,2.83-1.61,4.06s2.7,1.41,4.35.41a3.48,3.48,0,0,0,1.85-3.4h0l-2.09-15.64h0Z" transform="translate(47.69 149.77)"/><path class="cls-4" d="M1091.26,637.26,1069,622c-.25.69-3.06,8.58-9.39,26.13a6.41,6.41,0,0,0-4.8-1.5c-3.14.22-5.55,2.32-5.39,4.68s2.86,4.08,6,3.86c2.76-.2,5-1.83,5.34-3.82l8-22.13,18.55,12.39-8.37,23.2a6.41,6.41,0,0,0-4.78-1.48c-3.14.22-5.55,2.32-5.38,4.67s2.85,4.09,6,3.87c2.79-.2,5-1.89,5.33-3.91C1091.23,637,1089.53,641.66,1091.26,637.26Z" transform="translate(47.69 149.77)"/><path class="cls-4" d="M58.08-57A10.38,10.38,0,0,0,52.48-62a10.15,10.15,0,0,0-6.86,0,10.54,10.54,0,0,0-3.09,1.75c-.14-.54-.28-1.09-.41-1.64-.27-1-.53-2.12-.77-3.21a25.12,25.12,0,0,0,2.54-3.32,17.86,17.86,0,0,0,3.21-9.46c0-3.36,0-6.79-1.35-9.71a12.8,12.8,0,0,0-1.27-2.23,9,9,0,0,0-1.13-1.56,2.63,2.63,0,0,0-2.3-.74,4.59,4.59,0,0,0-3,2.43,10.28,10.28,0,0,0-.56,1.34,4.72,4.72,0,0,0-.17.58l0,.14c0,.14,0,.13,0,.21l0,.32a15.3,15.3,0,0,0,.12,4.85c.21,1.47.41,2.94.62,4.4.25,2.31.63,4.56,1.06,6.76a29.8,29.8,0,0,1-2.22,2.94l-1.47,1.71c-.48.55-1,1.19-1.5,1.88A23.74,23.74,0,0,0,29.4-55.6a12.86,12.86,0,0,0,1.43,10A13.72,13.72,0,0,0,38.5-40a20,20,0,0,0,8.52.56c.39,1.43.75,2.8,1.07,4.1,1.15,3.43.18,6.68-1.91,8a4.33,4.33,0,0,1-4.21.05h.34a3,3,0,0,0,2.79-3.12A3,3,0,0,0,42-33.23a3,3,0,0,0-2.78,3.12c0,.13,0,.26,0,.38h0a2.9,2.9,0,0,0,.92,1.64l.3.34a5.6,5.6,0,0,0,2.37,1.39,5.7,5.7,0,0,0,3.74-.23,5.49,5.49,0,0,0,3.06-3.59,6.91,6.91,0,0,0,.3-2.69,24.23,24.23,0,0,0-.53-2.77c-.31-1.3-.67-2.64-1-4A18.69,18.69,0,0,0,55-42.62a11,11,0,0,0,4.26-6.77A11.63,11.63,0,0,0,58.08-57ZM39.87-84.37c.32-1.21.9-4.51,2.77-4.09,1.18.27,1.46,1.82,1.53,2.83a14.74,14.74,0,0,1-1.19,7,63.29,63.29,0,0,1-3,6c-.26-1.75-.48-3.52-.63-5.32A18.9,18.9,0,0,1,39.87-84.37ZM39.33-42.3a11.11,11.11,0,0,1-5.7-4.94,9.13,9.13,0,0,1-.29-7.24,21.63,21.63,0,0,1,4.36-6.78c.43-.48.91-1,1.48-1.54l.76-.76c.19-.19.38-.37.56-.56.2.85.4,1.7.59,2.54s.36,1.47.55,2.2a10.36,10.36,0,0,0-2.81,5.45,10.46,10.46,0,0,0,1,6.47A11,11,0,0,0,40.71-46l.34.45a16.82,16.82,0,0,1-.53-2.12,10.94,10.94,0,0,1,.39-5.7,8.45,8.45,0,0,1,1.57-2.71c.79,3.07,1.59,6,2.35,8.79.58,2.16,1.16,4.22,1.71,6.19A15.71,15.71,0,0,1,39.33-42.3Zm18.32-7.31a7.9,7.9,0,0,1-3.43,5.89,14.92,14.92,0,0,1-6.3,2.44c-.58-2-1.21-4.16-1.87-6.38-.89-3-1.8-6.08-2.68-9.37a8.47,8.47,0,0,1,3.28-1.82,8.47,8.47,0,0,1,9.08,3.29A9,9,0,0,1,57.65-49.61Z" transform="translate(47.69 149.77)"/><path class="cls-4" d="M705.91,1147.9l-22.69,6.71.38,6h0l1.24,19.71a5.74,5.74,0,0,0-4.45.47c-2.49,1.3-3.72,3.87-2.75,5.74s3.78,2.32,6.28,1a5.43,5.43,0,0,0,3-4h0v-.09a3,3,0,0,0-.06-1L685.51,1160l18.85-5.78,1.25,19.87a5.68,5.68,0,0,0-4.48.46c-2.49,1.3-3.72,3.87-2.75,5.74s3.78,2.33,6.28,1c2.07-1.08,3.25-3,3-4.74h0l-1.44-22.94h0Z" transform="translate(47.69 149.77)"/><path class="cls-4" d="M523.14,574.87l-16.11-6c0,.47-.55,5.77-1.72,17.58a4.11,4.11,0,0,0-3.19-.18c-1.9.63-3.06,2.3-2.59,3.73s2.4,2.07,4.3,1.45a3.52,3.52,0,0,0,2.69-3.19L508,573.39l13.37,4.75-1.54,15.61a4,4,0,0,0-3.18-.17c-1.9.63-3.06,2.29-2.59,3.72s2.4,2.08,4.3,1.45a3.49,3.49,0,0,0,2.68-3.24C523.08,574.73,522.75,577.85,523.14,574.87Z" transform="translate(47.69 149.77)"/><path class="cls-4" d="M754,331.74l-13.74-1.23c.06.37.8,4.58,2.39,14a3.26,3.26,0,0,0-2.51.54c-1.34.89-1.89,2.42-1.22,3.43s2.29,1.1,3.63.21a2.81,2.81,0,0,0,1.41-3l-2-11.84,11.35.85,2.1,12.41a3.31,3.31,0,0,0-2.49.54c-1.34.89-1.89,2.43-1.22,3.43s2.29,1.1,3.63.21a2.8,2.8,0,0,0,1.39-3.07C754,331.64,754.37,334.13,754,331.74Z" transform="translate(47.69 149.77)"/><path class="cls-4" d="M782.73,825.49a.56.56,0,0,0-1.12,0c.09,2.39-2.34,3.17-4.84,3.76l-.49.12a12.1,12.1,0,0,0-2.51.86l5.55-16.58a4.41,4.41,0,0,0,3.88,1.41c2.29-.22,4-1.78,3.85-3.49s-2.15-2.93-4.43-2.72a4.12,4.12,0,0,0-3.79,2.73L772,832a.56.56,0,0,0,.36.71.55.55,0,0,0,.7-.35l0,0c.42-.63,1-1.16,3.45-1.78l.48-.12C779.07,829.9,782.86,829,782.73,825.49Z" transform="translate(47.69 149.77)"/><path class="cls-4" d="M638.51-134.92,587.72-114.2,590-100.45h0l7.41,45.16a13.28,13.28,0,0,0-10.16,2.12c-5.44,3.57-7.69,9.77-5,13.86s9.26,4.49,14.72.94c3.88-2.55,6.09-6.43,6.1-9.93h0l0-.2a7.61,7.61,0,0,0-.36-2.19l-8.45-51.54,42.15-17.68,7.47,45.53a13.19,13.19,0,0,0-10.23,2.11c-5.45,3.57-7.69,9.77-5,13.86s9.26,4.5,14.71.94c4.54-3,6.81-7.77,5.9-11.65h0l-8.62-52.57h0Z" transform="translate(47.69 149.77)"/><path class="cls-4" d="M607.82-11.83c-1.54-2.23-5.19-2.38-8.17-.33-2.62,1.79-3.83,4.68-3.06,6.87l6.15,32.75,1.73-.33L598.81-3a7,7,0,0,0,6.4-1C608.18-6.13,609.35-9.6,607.82-11.83Z" transform="translate(47.69 149.77)"/><path class="cls-4" d="M348.17,241.9,337,235.08c-.1.34-1.25,4.23-3.85,12.88a3.11,3.11,0,0,0-2.36-.6c-1.52.19-2.63,1.27-2.49,2.4s1.49,1.9,3,1.71a2.7,2.7,0,0,0,2.48-2l3.27-10.9,9.3,5.5-3.44,11.44a3.07,3.07,0,0,0-2.35-.59c-1.52.19-2.62,1.26-2.48,2.4s1.48,1.9,3,1.71a2.66,2.66,0,0,0,2.48-2C348.15,241.79,347.45,244.07,348.17,241.9Z" transform="translate(47.69 149.77)"/><path class="cls-4" d="M1215.41,847.25a6.22,6.22,0,0,0-3.67-2.63,6.07,6.07,0,0,0-4.12.44,6.24,6.24,0,0,0-1.76,1.24l-.35-1c-.22-.62-.44-1.25-.65-1.89a16.72,16.72,0,0,0,1.32-2.15,10.78,10.78,0,0,0,1.35-5.89,13.63,13.63,0,0,0-1.4-5.76,8.26,8.26,0,0,0-.9-1.27,5.52,5.52,0,0,0-.78-.87,1.57,1.57,0,0,0-1.42-.3,2.74,2.74,0,0,0-1.67,1.65,5.29,5.29,0,0,0-.26.83c0,.16,0,.26-.07.37v.08a.78.78,0,0,0,0,.13v.2a9,9,0,0,0,.36,2.91c.22.87.43,1.74.64,2.61.3,1.38.66,2.71,1.06,4a18.69,18.69,0,0,1-1.16,1.91l-.78,1.11c-.26.36-.52.78-.79,1.23a14.41,14.41,0,0,0-2.09,5.63,7.78,7.78,0,0,0,1.47,5.92,8.24,8.24,0,0,0,5,2.91,11.91,11.91,0,0,0,5.16-.18c.32.84.62,1.64.89,2.41.91,2,.52,4-.66,4.9a2.62,2.62,0,0,1-2.53.28l.21,0a1.79,1.79,0,1,0-2-1.48,1.89,1.89,0,0,0,0,.23h0a1.76,1.76,0,0,0,.65.93l.2.18a3.32,3.32,0,0,0,1.51.69,3.49,3.49,0,0,0,2.24-.36,3.29,3.29,0,0,0,1.62-2.35,4.11,4.11,0,0,0,0-1.64,14,14,0,0,0-.49-1.63c-.27-.76-.56-1.55-.88-2.37a11.14,11.14,0,0,0,3.84-2.18,6.65,6.65,0,0,0,2.15-4.33A7,7,0,0,0,1215.41,847.25Zm-12.63-15.34c.12-.75.27-2.77,1.42-2.62.73.09,1,1,1.09,1.6a9.08,9.08,0,0,1-.28,4.27,38.91,38.91,0,0,1-1.47,3.83c-.26-1-.5-2.09-.7-3.17A11.66,11.66,0,0,1,1202.78,831.91Zm2.24,25.35a6.68,6.68,0,0,1-3.72-2.62,5.5,5.5,0,0,1-.62-4.34,13.08,13.08,0,0,1,2.21-4.35c.23-.31.48-.65.79-1l.42-.51.3-.36.51,1.48c.15.44.31.87.46,1.29a6.17,6.17,0,0,0-.35,7.29,6.63,6.63,0,0,0,.61.8l.23.26a10.61,10.61,0,0,1-.45-1.25,6.64,6.64,0,0,1-.11-3.45,5.21,5.21,0,0,1,.78-1.73c.67,1.8,1.33,3.52,2,5.15.48,1.26,1,2.47,1.41,3.62A9.45,9.45,0,0,1,1205,857.26Zm10.58-5.51a4.74,4.74,0,0,1-1.7,3.75,9.06,9.06,0,0,1-3.64,1.86c-.47-1.19-1-2.44-1.52-3.73-.71-1.72-1.45-3.55-2.18-5.47a5,5,0,0,1,1.86-1.3,5.13,5.13,0,0,1,5.67,1.42A5.41,5.41,0,0,1,1215.6,851.75Z" transform="translate(47.69 149.77)"/><path class="cls-4" d="M394.42,337.71l-15.75,1.61-.5,4h0l-1.61,13.11a3.82,3.82,0,0,0-3-.23c-1.79.54-2.92,2.08-2.51,3.43s2.2,2,4,1.45a3.64,3.64,0,0,0,2.5-2.25h0v-.06a2.26,2.26,0,0,0,.07-.63l1.85-15,13.11-1.47L391,354.91a3.76,3.76,0,0,0-3-.25c-1.8.55-2.93,2.08-2.52,3.43s2.2,2,4,1.46a3.39,3.39,0,0,0,2.58-2.75h0l1.88-15.26h0Z" transform="translate(47.69 149.77)"/><path class="cls-4" d="M616.49,730.63l-1.35-.07-1.29,23.72a5.32,5.32,0,0,0-5.05-.44c-2.6,1-4.11,3.38-3.38,5.33s3.46,2.73,6.06,1.74A5.21,5.21,0,0,0,615,757h0Z" transform="translate(47.69 149.77)"/><path class="cls-4" d="M868.08,1002.06l-22.84-7.4c0,.65-.44,8.09-1.37,24.65a5.69,5.69,0,0,0-4.47-.06c-2.62,1-4.14,3.38-3.4,5.35s3.47,2.76,6.09,1.77c2.3-.87,3.75-2.81,3.57-4.61l1.18-20.88,18.95,5.85-1.24,21.89a5.66,5.66,0,0,0-4.44,0c-2.63,1-4.15,3.38-3.4,5.35s3.46,2.76,6.09,1.77c2.33-.88,3.78-2.87,3.55-4.69C868,1001.87,867.72,1006.25,868.08,1002.06Z" transform="translate(47.69 149.77)"/><path class="cls-4" d="M541.51,950.7l-32.66-20.92c-.34,1-4,12.46-12.23,38a9.21,9.21,0,0,0-7-1.93c-4.5.48-7.86,3.6-7.51,7s4.29,5.73,8.79,5.26c3.95-.41,7-2.86,7.47-5.73l10.4-32.15L536,957.05l-10.9,33.7a9.21,9.21,0,0,0-6.92-1.91c-4.51.48-7.87,3.6-7.51,7s4.28,5.73,8.79,5.26c4-.42,7.09-2.94,7.47-5.86C541.45,950.36,539.23,957.1,541.51,950.7Z" transform="translate(47.69 149.77)"/><path class="cls-4" d="M601.66,610.35a2,2,0,0,0-3.51,1.81c3.86,7.49-2.72,13.61-9.79,19.23L587,632.51a43.81,43.81,0,0,0-6.73,6.48l-7.12-61.17c3.9,2,9.49,1.65,14.5-1.29,7-4.12,10.1-11.69,7-16.91s-11.23-6.12-18.2-2c-5.91,3.5-9,9.45-8,14.37L577.2,647a2,2,0,1,0,3.92-.46v-.15c.4-2.62,1.37-5.15,8.35-10.85l1.35-1.09C596.59,629.89,607.33,621.34,601.66,610.35Z" transform="translate(47.69 149.77)"/><path class="cls-4" d="M281.28,1204.81a1.31,1.31,0,0,0-2.38,1.11c2.37,5.07-2.15,9-7,12.53l-1,.71a29.53,29.53,0,0,0-4.64,4.14l-3.19-40.82c2.54,1.4,6.27,1.33,9.67-.5,4.72-2.56,7-7.51,5.09-11s-7.31-4.35-12-1.8c-4,2.17-6.24,6-5.67,9.34l3.92,50.09a1.32,1.32,0,0,0,1.41,1.21,1.31,1.31,0,0,0,1.21-1.41v-.1c.34-1.73,1-3.39,5.83-7l.92-.68C277.41,1217.66,284.76,1212.25,281.28,1204.81Z" transform="translate(47.69 149.77)"/><path class="cls-4" d="M1073.17,950.63l-1.41.41,7.2,24.6a5.76,5.76,0,0,0-5.3,1.36c-2.29,1.94-3,4.91-1.52,6.63s4.49,1.54,6.79-.39a5.64,5.64,0,0,0,2.19-5.27l0,0Z" transform="translate(47.69 149.77)"/><path class="cls-4" d="M170.65,1199.63a6.45,6.45,0,0,0-4-2.29,6.27,6.27,0,0,0-4.17.9,6.38,6.38,0,0,0-1.66,1.46c-.15-.32-.31-.63-.46-1-.3-.6-.59-1.22-.87-1.85a16.29,16.29,0,0,0,1.11-2.35,11,11,0,0,0,.74-6.16,13.87,13.87,0,0,0-2.06-5.73,8.52,8.52,0,0,0-1.05-1.2,7,7,0,0,0-.89-.8,1.66,1.66,0,0,0-1.49-.16,2.85,2.85,0,0,0-1.53,1.87,5.68,5.68,0,0,0-.17.88c0,.17,0,.27,0,.38v.09c0,.09,0,.08,0,.13v.21a9.47,9.47,0,0,0,.69,2.93c.32.87.63,1.73.94,2.6.45,1.37,1,2.69,1.51,4a17.71,17.71,0,0,1-1,2.07l-.68,1.23c-.22.4-.45.85-.67,1.34a14.73,14.73,0,0,0-1.52,6,7.94,7.94,0,0,0,2.15,5.88,8.52,8.52,0,0,0,5.38,2.44,12.24,12.24,0,0,0,5.25-.75c.42.82.82,1.61,1.17,2.36,1.15,1.94,1,4-.14,5.08a2.69,2.69,0,0,1-2.55.56l.2,0a1.83,1.83,0,1,0-2.24-1.29,2.09,2.09,0,0,0,.08.23h0a1.85,1.85,0,0,0,.76.87l.23.17a3.48,3.48,0,0,0,1.62.55,3.63,3.63,0,0,0,2.25-.62A3.44,3.44,0,0,0,169,1217a4.16,4.16,0,0,0-.17-1.67,13.75,13.75,0,0,0-.67-1.62c-.36-.75-.74-1.52-1.16-2.32a11.64,11.64,0,0,0,3.69-2.64,6.85,6.85,0,0,0,1.72-4.67A7.16,7.16,0,0,0,170.65,1199.63Zm-14.57-14.29c0-.78,0-2.86,1.16-2.84.75,0,1.12.92,1.3,1.52a9.49,9.49,0,0,1,.17,4.4,40.27,40.27,0,0,1-1.08,4.06c-.38-1-.74-2.08-1.07-3.15A12.24,12.24,0,0,1,156.08,1185.34Zm5,25.65a6.92,6.92,0,0,1-4.09-2.28,5.62,5.62,0,0,1-1.1-4.36,13.35,13.35,0,0,1,1.78-4.68c.2-.35.42-.72.7-1.13l.37-.56.27-.4.68,1.46.61,1.27a6.34,6.34,0,0,0,.44,7.48,6,6,0,0,0,.71.75l.26.24a11.17,11.17,0,0,1-.59-1.22,6.82,6.82,0,0,1-.49-3.52,5.2,5.2,0,0,1,.6-1.85c.88,1.76,1.74,3.45,2.56,5,.63,1.24,1.25,2.41,1.83,3.54A9.82,9.82,0,0,1,161.13,1211Zm10.21-6.79a4.9,4.9,0,0,1-1.33,4,9.11,9.11,0,0,1-3.52,2.29c-.61-1.16-1.27-2.37-2-3.64-.91-1.68-1.86-3.47-2.82-5.35a5.13,5.13,0,0,1,7.71-.69A5.63,5.63,0,0,1,171.34,1204.2Z" transform="translate(47.69 149.77)"/><path class="cls-4" d="M486.53-16.51l-19,5.19.21,5h0l.67,16.45a4.79,4.79,0,0,0-3.72.31c-2.09,1-3.17,3.16-2.39,4.73s3.11,2,5.21,1a4.5,4.5,0,0,0,2.61-3.28h0V12.8a2.68,2.68,0,0,0,0-.8L469.3-6.77l15.82-4.47.68,16.58a4.74,4.74,0,0,0-3.74.3c-2.1,1-3.17,3.16-2.4,4.73s3.11,2,5.21,1a4.22,4.22,0,0,0,2.62-3.9h0l-.79-19.14h0Z" transform="translate(47.69 149.77)"/><path class="cls-4" d="M858.78,893.34l-11.66,1c.1.3,1.33,3.72,4,11.34a2.79,2.79,0,0,0-2,.82,2.23,2.23,0,0,0-.52,3c.7.75,2.08.59,3.07-.35a2.39,2.39,0,0,0,.74-2.74l-3.4-9.61,9.62-.94,3.57,10.07a2.77,2.77,0,0,0-2,.82c-1,.94-1.23,2.3-.52,3s2.07.59,3.07-.35a2.37,2.37,0,0,0,.71-2.78C858.71,893.27,859.41,895.29,858.78,893.34Z" transform="translate(47.69 149.77)"/><path class="cls-4" d="M728.56-149.77l-1,.18,3.23,17.93a4.07,4.07,0,0,0-3.84.56c-1.77,1.2-2.47,3.25-1.58,4.57s3.06,1.43,4.83.23a4,4,0,0,0,1.94-3.56h0Z" transform="translate(47.69 149.77)"/><path class="cls-4" d="M287.34-127.82l-26.88,11.9,1.43,7.33h0l4.69,24.07a7.11,7.11,0,0,0-5.41,1.3c-2.85,2-4,5.36-2.46,7.5s5,2.26,7.89.27a6.7,6.7,0,0,0,3.11-5.41h0l0-.11a4.19,4.19,0,0,0-.23-1.17l-5.35-27.47,22.3-10.14,4.72,24.27a7,7,0,0,0-5.44,1.29c-2.86,2-4,5.36-2.47,7.5s5,2.27,7.89.27c2.38-1.66,3.52-4.26,3-6.33h0l-5.46-28h0Z" transform="translate(47.69 149.77)"/><path class="cls-4" d="M248,198.14l-.87-.06-.9,15.36a3.47,3.47,0,0,0-3.27-.29c-1.68.63-2.67,2.17-2.2,3.44s2.23,1.78,3.92,1.14a3.36,3.36,0,0,0,2.3-2.54h0Z" transform="translate(47.69 149.77)"/><path class="cls-4" d="M646.51,258l-55.29,17.3L592.38,290h0l3.79,48.18a14,14,0,0,0-10.87,1.32c-6,3.28-9,9.61-6.51,14.15s9.34,5.54,15.4,2.29c4.31-2.34,7-6.22,7.3-9.91h0v-.21a7.85,7.85,0,0,0-.19-2.33l-4.32-55L643,273.61l3.82,48.57a13.91,13.91,0,0,0-10.95,1.31c-6.05,3.27-9,9.6-6.52,14.14s9.35,5.55,15.4,2.29c5-2.73,7.85-7.57,7.25-11.73h0l-4.41-56.07,0,0Z" transform="translate(47.69 149.77)"/><path class="cls-4" d="M296.24,788.77l-2.18.76,13.31,38.11c-2.5-.67-5.71.23-8.22,2.58-3.45,3.23-4.28,8-1.86,10.55s7.2,2.06,10.65-1.17c2.67-2.5,3.76-5.87,3-8.47l.07,0Z" transform="translate(47.69 149.77)"/><path class="cls-4" d="M142.59,503.93a3.9,3.9,0,0,0-1.22-2.51,3.81,3.81,0,0,0-2.36-1,4,4,0,0,0-1.32.16l.09-.62c.06-.4.13-.81.2-1.22a8.74,8.74,0,0,0,1.35-.78,6.65,6.65,0,0,0,2.46-2.79,8.44,8.44,0,0,0,.93-3.54,5.69,5.69,0,0,0-.12-1,3.29,3.29,0,0,0-.17-.7,1,1,0,0,0-.68-.58,1.72,1.72,0,0,0-1.39.4,4.54,4.54,0,0,0-.38.38l-.15.18,0,0c0,.05,0,0,0,.07l-.07.1a5.71,5.71,0,0,0-.65,1.69l-.42,1.6c-.24.83-.44,1.66-.6,2.48a10.83,10.83,0,0,1-1.19.69l-.75.38c-.24.12-.51.27-.79.43a9,9,0,0,0-2.78,2.44,4.81,4.81,0,0,0-.94,3.64,5.09,5.09,0,0,0,1.84,3,7.35,7.35,0,0,0,2.85,1.42c-.07.55-.14,1.07-.22,1.57a2.51,2.51,0,0,1-1.8,2.46,1.62,1.62,0,0,1-1.45-.59l.11.05a1.1,1.1,0,1,0-.67-1.4s0,.09,0,.14h0a1.08,1.08,0,0,0,.08.69l.06.16a2.08,2.08,0,0,0,.61.82,2.17,2.17,0,0,0,1.33.46,2.07,2.07,0,0,0,1.56-.8,2.53,2.53,0,0,0,.49-.88,10,10,0,0,0,.22-1c.08-.49.15-1,.21-1.54a6.91,6.91,0,0,0,2.72-.06,4.07,4.07,0,0,0,2.44-1.72A4.33,4.33,0,0,0,142.59,503.93Zm-2.35-12c.28-.37.95-1.42,1.54-1,.36.26.24.84.12,1.19a5.62,5.62,0,0,1-1.41,2.23,24.51,24.51,0,0,1-1.91,1.65q.24-1,.54-1.92A7.18,7.18,0,0,1,140.24,491.91ZM134,506.31a4.19,4.19,0,0,1-1.25-2.52,3.4,3.4,0,0,1,.94-2.53,8.25,8.25,0,0,1,2.47-1.71c.22-.1.45-.21.73-.32l.37-.15.27-.11c-.05.32-.1.64-.16,1l-.12.83a3.83,3.83,0,0,0-2.33,3.85,4.07,4.07,0,0,0,.09.61,1.79,1.79,0,0,1,.05.21,7.54,7.54,0,0,1,.12-.81,4.14,4.14,0,0,1,1-1.9,3.18,3.18,0,0,1,.92-.71c-.16,1.17-.31,2.3-.45,3.36-.11.83-.2,1.62-.29,2.38A5.9,5.9,0,0,1,134,506.31Zm7.35.11a3,3,0,0,1-2,1.54,5.67,5.67,0,0,1-2.52-.07q.13-1.17.27-2.46c.12-1.14.26-2.35.42-3.61a3.37,3.37,0,0,1,1.39-.16,3.18,3.18,0,0,1,2.66,2.44A3.36,3.36,0,0,1,141.37,506.42Z" transform="translate(47.69 149.77)"/><path class="cls-4" d="M789.07,1056.88l-45-3.78c.2,1.22,2.67,15,8,45.69a10.7,10.7,0,0,0-8.2,1.79c-4.37,2.93-6.13,8-3.94,11.26s7.52,3.55,11.9.62c3.83-2.56,5.66-6.75,4.57-10l-6.76-38.71,37.16,2.6L794,1107a10.75,10.75,0,0,0-8.16,1.81c-4.38,2.93-6.13,8-3.94,11.24s7.52,3.57,11.9.64c3.89-2.61,5.7-6.88,4.5-10.1C788.83,1056.57,790.2,1064.7,789.07,1056.88Z" transform="translate(47.69 149.77)"/></g></g></g></g></svg>