<svg xmlns="http://www.w3.org/2000/svg" viewBox="0 0 120.45 261.38"><defs><style>.cls-1{fill:#131313;}</style></defs><g id="Layer_2" data-name="Layer 2"><g id="main_design" data-name="main design"><path class="cls-1" d="M40.3,114.94a.85.85,0,1,0,.85-.85A.85.85,0,0,0,40.3,114.94Zm4.6-2.86a.85.85,0,1,0-.85.84A.85.85,0,0,0,44.9,112.08Zm9.21-21.5a.85.85,0,1,0-.85-.85A.85.85,0,0,0,54.11,90.58ZM44.21,108a.84.84,0,0,0-.85.84.85.85,0,1,0,1.7,0A.84.84,0,0,0,44.21,108ZM55.12,92.43a.84.84,0,0,0-.84-.85.85.85,0,1,0,0,1.69A.84.84,0,0,0,55.12,92.43ZM40.55,172.54a.85.85,0,0,0-.55-.79c.13.43.26.85.4,1.25A.93.93,0,0,0,40.55,172.54Zm1.59-71.47a.84.84,0,0,0,.84.85.85.85,0,1,0,0-1.7A.84.84,0,0,0,42.14,101.07ZM53.66,84a.85.85,0,1,0,.85.85A.85.85,0,0,0,53.66,84Zm2.44-1a.85.85,0,1,0-.85.85A.85.85,0,0,0,56.1,83Zm.42,19.46a1,1,0,1,0-1-1A1,1,0,0,0,56.52,102.45Zm-5.07-63.6a.86.86,0,0,0,.08.36c0-.32.11-.64.16-.94A.81.81,0,0,0,51.45,38.85ZM48.22,49.78a1,1,0,1,0,0-2h0a.94.94,0,0,0,.42-.78,1,1,0,0,0-.54-.86,1,1,0,1,0-.45-.1,1,1,0,0,0-.95,1,1,1,0,0,0,1,1h0a.93.93,0,0,0-.42.77A1,1,0,0,0,48.22,49.78Zm-2.1,4.91a1,1,0,1,0-1-1A1,1,0,0,0,46.12,54.69ZM57.41,80.82a.85.85,0,1,0,.85.85A.85.85,0,0,0,57.41,80.82ZM44.61,56.9a1.11,1.11,0,0,0-1-.68,1.07,1.07,0,0,0-.31.06c0,.7.1,1.41.16,2.11l.15,0a1.09,1.09,0,0,0,1.07-.92,1,1,0,0,0,.93.61,1,1,0,0,0,1-1,1.17,1.17,0,0,0,0-.27,1,1,0,0,0,.68-.49.89.89,0,0,0,.73.38.93.93,0,0,0,0-1.86.9.9,0,0,0-.77.44,1,1,0,0,0-.84-.47,1,1,0,0,0-1,1,.88.88,0,0,0,.06.27A1,1,0,0,0,44.61,56.9ZM41,104.81a.85.85,0,1,0,.85-.85A.85.85,0,0,0,41,104.81ZM56.65,87a.85.85,0,1,0,.85-.85A.85.85,0,0,0,56.65,87ZM51.73,35.63a.8.8,0,0,0,.33.65c.1-.5.2-1,.31-1.46A.84.84,0,0,0,51.73,35.63Zm-6,119.08a.83.83,0,0,0,.67.81c.19-.5.39-1,.6-1.53a.86.86,0,0,0-.42-.13A.85.85,0,0,0,45.69,154.71Zm-6.48-36.53a.87.87,0,0,0,.22.56l1.25-1.13a.82.82,0,0,0-.62-.28A.85.85,0,0,0,39.21,118.18Zm2.59,25.29c-.22.5-.46,1-.66,1.49a.82.82,0,0,0,.48.17.84.84,0,0,0,.18-1.66Zm-2-34.3a.85.85,0,1,0,.85-.85A.85.85,0,0,0,39.82,109.17Zm-.62,3.43a.85.85,0,0,0,0,1.69.85.85,0,1,0,0-1.69Zm6.55,38.51a.85.85,0,0,0-.85.85.85.85,0,0,0,1.7,0A.85.85,0,0,0,45.75,151.11ZM44.62,139.7a.93.93,0,1,0,.93.93A.93.93,0,0,0,44.62,139.7Zm2.28,6.64a.85.85,0,1,0-.85.85A.85.85,0,0,0,46.9,146.34Zm9.41-49.59a.85.85,0,1,0-.85.85A.85.85,0,0,0,56.31,96.75Zm-1-20.14a.85.85,0,0,0-.85-.85.85.85,0,1,0,.85.85ZM44,164.75a1.06,1.06,0,0,0,0,2.12h0c0-.68.1-1.37.18-2.08A.71.71,0,0,0,44,164.75Zm-3.33-18.52c-.16.43-.32.86-.46,1.28a.82.82,0,0,0,.68.37.85.85,0,1,0,0-1.69A.78.78,0,0,0,40.66,146.23Zm2-30.3h0c.32-.28.65-.55,1-.83a.9.9,0,0,0-.16,0A.85.85,0,0,0,42.63,115.93Zm-.45,53a1,1,0,0,0,1.73.73c0-.47,0-.94,0-1.43a1,1,0,0,0-.74-.32A1,1,0,0,0,42.18,168.91Zm3.24-10.47a.9.9,0,0,0-.37-.07.93.93,0,0,0-.93.93.45.45,0,0,0,0,.11,1,1,0,0,0-.34-.07,1,1,0,1,0,1,1,.7.7,0,0,0,0-.14l.22,0C45.1,159.63,45.26,159,45.42,158.44Zm-2.93-48.5a.85.85,0,1,0,.85.85A.85.85,0,0,0,42.49,109.94ZM44.13,175v0c0-.58-.09-1.2-.12-1.84h-.06a1,1,0,0,0-1,1,.92.92,0,0,0,.24.62,1,1,0,1,0,.63.91,1,1,0,0,0-.25-.63,1,1,0,0,0,.35.07A.58.58,0,0,0,44.13,175Zm-4.5-25.59c0,.13-.08.25-.11.37-.07.3-.13.59-.19.88a.82.82,0,0,0,.67.35.84.84,0,0,0,.85-.84.85.85,0,0,0-.85-.85A.88.88,0,0,0,39.63,149.45Zm5.63,33a.76.76,0,0,0-.16,0,1.28,1.28,0,0,0-.27.05l.68,1.09S45.41,183.15,45.26,182.42Zm-1-26.14a.85.85,0,1,0-.85.85A.85.85,0,0,0,44.26,156.28Zm-5.78-.35a.83.83,0,0,0,.66.35.85.85,0,1,0-.53-1.5C38.57,155.17,38.51,155.55,38.48,155.93Zm7-12.42a.85.85,0,1,0-.85.84A.85.85,0,0,0,45.51,143.51Zm-2.19,5.29a.85.85,0,1,0,.85-.84A.85.85,0,0,0,43.32,148.8ZM43,171.11a1,1,0,0,0,0,2,1,1,0,0,0,1-.85c0-.14,0-.28,0-.42A1,1,0,0,0,43,171.11Zm3-14.59a.84.84,0,1,0-.7,1.3,1.07,1.07,0,0,0,.31-.06C45.74,157.35,45.87,156.94,46,156.52ZM39.58,170a.85.85,0,1,0,0-1.7.9.9,0,0,0-.42.13c.12.53.24,1.05.37,1.56Zm3.57-16.92a.85.85,0,1,0-.85-.85A.85.85,0,0,0,43.15,153.12Zm.73,10.61a1.07,1.07,0,1,0-1.06,1.06A1.06,1.06,0,0,0,43.88,163.73Zm-2.38-4.55a.85.85,0,1,0-.85-.85A.85.85,0,0,0,41.5,159.18Zm-.75-46.62a.85.85,0,0,0,.85.85.85.85,0,1,0-.85-.85Zm1.93,66c.09.17.17.35.25.51A.8.8,0,0,0,42.68,178.6Zm-1-7.22a.94.94,0,1,0-.93-.93A.93.93,0,0,0,41.68,171.38Zm-.63-5.31a.85.85,0,1,0-.85.85A.85.85,0,0,0,41.05,166.07Zm1,.15a1,1,0,0,0,0,1.94,1,1,0,0,0,0-1.94Zm-.5-12.38a.85.85,0,1,0-.84.85A.85.85,0,0,0,41.57,153.84Zm-2.12,9a.85.85,0,1,0,.85.85A.85.85,0,0,0,39.45,162.81Zm-1.06.21a.83.83,0,0,0-.09-1.43C38.32,162.08,38.35,162.55,38.39,163ZM48,80.31a.85.85,0,1,0,.85.85A.85.85,0,0,0,48,80.31Zm-1.56-15.6a.93.93,0,1,0-.93-.93A.93.93,0,0,0,46.41,64.71Zm.12,4.62a.85.85,0,1,0-.84-.85A.85.85,0,0,0,46.53,69.33Zm.18-10.91a1,1,0,1,0,1,1A1,1,0,0,0,46.71,58.42Zm2,14.21a.84.84,0,0,0-.85-.84.83.83,0,0,0-.84.84.84.84,0,0,0,.84.85A.85.85,0,0,0,48.67,72.63ZM46.25,61.79A.85.85,0,1,0,47.1,61,.85.85,0,0,0,46.25,61.79Zm2.35,22a.85.85,0,1,0-.85.85A.85.85,0,0,0,48.6,83.83ZM31,124a.85.85,0,0,0,1.7,0,.85.85,0,0,0-1.7,0ZM48.38,39.91a.85.85,0,1,0,.85-.85A.85.85,0,0,0,48.38,39.91Zm-1.87,46.4a.85.85,0,1,0,.85.84A.85.85,0,0,0,46.51,86.31Zm2-20.43a.85.85,0,1,0-.84.85A.85.85,0,0,0,48.51,65.88Zm-.42-32.35a.85.85,0,1,0,.85.84A.85.85,0,0,0,48.09,33.53Zm2,4.91a.85.85,0,1,0-.84-.85A.85.85,0,0,0,50.11,38.44Zm-3.37,3.07a.93.93,0,1,0,.93-.93A.93.93,0,0,0,46.74,41.51Zm-.19-5.39a.85.85,0,1,0,.85-.85A.85.85,0,0,0,46.55,36.12Zm2.28,57.81a.85.85,0,1,0-.85-.85A.85.85,0,0,0,48.83,93.93Zm-.07,3.44a.85.85,0,1,0,.85-.85A.85.85,0,0,0,48.76,97.37ZM48,101.31a.85.85,0,1,0,.85-.85A.85.85,0,0,0,48,101.31Zm.83,3.32a.85.85,0,1,0-.85-.84A.85.85,0,0,0,48.84,104.63ZM52,97.1a.85.85,0,1,0-.84-.85A.85.85,0,0,0,52,97.1Zm-2.06-5.4a.85.85,0,1,0,.85-.85A.85.85,0,0,0,49.92,91.7Zm-3.46,11.43a.85.85,0,1,0-.85.84A.85.85,0,0,0,46.46,103.13Zm.85-11.5a.85.85,0,1,0-.85.85A.85.85,0,0,0,47.31,91.63Zm-.44,6.65a.85.85,0,1,0-1.7,0,.85.85,0,0,0,1.7,0Zm3.26-69.5a.85.85,0,0,0,0,1.7.85.85,0,0,0,0-1.7Zm-3.21,77.79a.85.85,0,1,0,.84.85A.85.85,0,0,0,46.92,106.57Zm.56,4.57a.85.85,0,1,0-.85.85A.85.85,0,0,0,47.48,111.14Zm1.33-21.87a.85.85,0,1,0-.84.85A.85.85,0,0,0,48.81,89.27Zm9.62-16.55a.85.85,0,1,0-.85.85A.85.85,0,0,0,58.43,72.72Zm-8.24-22.1a.86.86,0,0,0-.64-.31.85.85,0,0,0,0,1.7.82.82,0,0,0,.55-.22ZM48.74,68.68a.85.85,0,0,0,.84.85.6.6,0,0,0,.24,0c0-.54,0-1.07,0-1.6a.65.65,0,0,0-.2,0A.84.84,0,0,0,48.74,68.68Zm.93,4.51a.8.8,0,0,0,.3-.06c0-.53,0-1.06-.07-1.59a.93.93,0,0,0-.23,0,.85.85,0,1,0,0,1.69ZM49.43,61a1.07,1.07,0,0,0,.32-.06c0-.53,0-1,0-1.57a.94.94,0,0,0-.34-.07.85.85,0,0,0,0,1.7Zm0,19.23a.85.85,0,1,0-.85-.85A.85.85,0,0,0,49.44,80.23Zm1,7a.85.85,0,1,0,0-1.7.85.85,0,0,0,0,1.7Zm-.91-10a.85.85,0,0,0,.84-.85.92.92,0,0,0-.06-.33l-.21.31,0-.61a.81.81,0,0,0-.54-.21.84.84,0,0,0-.85.84A.85.85,0,0,0,49.57,77.26ZM49.75,66c0-.51,0-1,0-1.51a.85.85,0,0,0-.47.75A.83.83,0,0,0,49.75,66Zm0,17.26a.85.85,0,0,0,.85.85.85.85,0,1,0-.85-.85ZM51,78.56a.85.85,0,1,0,.85-.84A.85.85,0,0,0,51,78.56ZM49.27,57.74a.86.86,0,0,0,.52.78c0-.53,0-1.05.05-1.57A.84.84,0,0,0,49.27,57.74Zm-.16,5a.85.85,0,0,0,.62.8V62A.85.85,0,0,0,49.11,62.76Zm.16-8.61a.84.84,0,0,0,.65.81L50,53.32A.84.84,0,0,0,49.27,54.15Zm1.32-8a.8.8,0,0,0-.43-.13.85.85,0,1,0,0,1.69.67.67,0,0,0,.28-.06C50.49,47.18,50.53,46.67,50.59,46.18Zm3.5,24.49-.12,0-.69,1a.84.84,0,0,0,.81.65.85.85,0,0,0,0-1.7Zm2.32-2.76a.85.85,0,1,0,.85-.85A.85.85,0,0,0,56.41,67.91ZM54.17,74.5a.85.85,0,1,0-1.7,0,.85.85,0,0,0,1.7,0ZM52.82,30a.85.85,0,1,0,0,1.69.93.93,0,0,0,.29-.05c.11-.46.24-.89.36-1.32A.84.84,0,0,0,52.82,30Zm-2.45,3.71a.85.85,0,1,0,.85.85A.85.85,0,0,0,50.37,33.71Zm-.45,9.83a.85.85,0,1,0-.84.85A.85.85,0,0,0,49.92,43.54ZM55.7,78.16a.85.85,0,1,0,.85-.85A.85.85,0,0,0,55.7,78.16Zm-.92,16.47a.85.85,0,1,0-.85.85A.85.85,0,0,0,54.78,94.63Zm-.66-8.12a.85.85,0,1,0-.85.85A.85.85,0,0,0,54.12,86.51Zm-1.57-5.25a.85.85,0,1,0,.85.85A.85.85,0,0,0,52.55,81.26ZM50.3,89.1a.85.85,0,1,0,.85-.84A.85.85,0,0,0,50.3,89.1ZM56,74.45a.85.85,0,0,0,.85.85.84.84,0,0,0,.84-.85.83.83,0,0,0-.84-.84A.84.84,0,0,0,56,74.45Zm.42,6.18a.85.85,0,1,0-.85.84A.85.85,0,0,0,56.42,80.63Zm-30,112.54a1,1,0,0,0-1.94,0,.93.93,0,0,0,.22.59,1.42,1.42,0,0,0-.2,0,.85.85,0,1,0,.85.85.83.83,0,0,0-.18-.48,1.26,1.26,0,0,0,.28,0A1,1,0,0,0,26.37,193.17Zm-10.62-7.26a1,1,0,0,0,0-1.95,1,1,0,0,0-.67.27.93.93,0,0,0,.12-.44,1,1,0,1,0-.31.71.89.89,0,0,0-.11.43A1,1,0,0,0,15.75,185.91Zm85.51,6.46a.73.73,0,0,0-.3.06l-.45.35a.86.86,0,0,0-.18.52.93.93,0,1,0,.93-.93ZM37,236.36a1,1,0,0,0-.23-.61,12.18,12.18,0,0,0-1.31,1.47,1,1,0,0,0,.52.16A1,1,0,0,0,37,236.36Zm2.63,1.29a1,1,0,0,0,0-2,1,1,0,0,0-.59.21.82.82,0,0,0,.07-.31,1,1,0,0,0-.8-1,12.72,12.72,0,0,0-1.24,1v0a1,1,0,0,0,1,1,1,1,0,0,0,.58-.21,1.07,1.07,0,0,0-.06.31A1,1,0,0,0,39.64,237.65ZM52.45,100.17a.85.85,0,1,0-.85-.84A.85.85,0,0,0,52.45,100.17Zm-21.52,98.7a1.15,1.15,0,0,0,0-2.29.65.65,0,0,0-.2,0,1,1,0,0,0,0-.17,1.11,1.11,0,0,0-1.72-1,1,1,0,0,0,.25-.66,1.06,1.06,0,1,0-1.06,1.06,1,1,0,0,0,.52-.16,1.18,1.18,0,0,0-.28.73,1.15,1.15,0,0,0,1.15,1.14,1.42,1.42,0,0,0,.2,0,1,1,0,0,0,0,.17A1.15,1.15,0,0,0,30.93,198.87ZM35.68,204a.88.88,0,0,0,.28-.06,1,1,0,1,0,1-1.26,1.38,1.38,0,0,0-.2,0,1.07,1.07,0,0,0-.79-.86,1.06,1.06,0,0,0,.24-.65,1.1,1.1,0,0,0-.16-.54,1,1,0,0,0,0-1.35A1.08,1.08,0,1,0,34.8,199a1.05,1.05,0,0,0-.62,1,1,1,0,0,0,.17.54,1,1,0,0,0,.49,1.71,1.08,1.08,0,0,0-.27.69A1.11,1.11,0,0,0,35.68,204Zm9.57,44.51a1,1,0,0,0,0-2,.88.88,0,0,0-.55.2A1.09,1.09,0,0,0,45,246a1.07,1.07,0,1,0-1.06,1.06,1.09,1.09,0,0,0,.61-.21.93.93,0,0,0-.25.62A1,1,0,0,0,45.25,248.49Zm30.6-18.35c-.08-.65-.16-1.3-.25-1.95a1,1,0,0,0,.25,1.95ZM43.08,255.78l.82.13a1.1,1.1,0,1,0,.31.76,1,1,0,0,0-.05-.25C43.79,256.22,43.42,256,43.08,255.78ZM103,190.65c-.3.29-.61.56-.92.84A1,1,0,0,0,103,190.65ZM76.69,207.37a1.13,1.13,0,0,0,.8.34,1.15,1.15,0,1,0,0-2.29,1.14,1.14,0,0,0-1.14,1.14,1,1,0,0,0,.07.35,1.17,1.17,0,0,0-.81-.33,1.14,1.14,0,0,0-.65.23,1,1,0,0,0,0-.17,1.3,1.3,0,0,0,1.12-1.28,1.09,1.09,0,0,0,0-.26,1.14,1.14,0,0,0,.49.11,1.18,1.18,0,0,0,.84-2,1.28,1.28,0,0,0,.57-1.05.76.76,0,0,0,0-.16,65.45,65.45,0,0,1-6.75.8C69.59,194.56,67.81,186,65.93,177c-1-4.76-2-9.65-3-14.64a1.16,1.16,0,0,0-.33.8,1.14,1.14,0,0,0,.06.33,1.27,1.27,0,0,0-1,2,1.39,1.39,0,0,0-.46-.09,1,1,0,0,1,0-1.27,1.18,1.18,0,0,0-.06-.27,1.18,1.18,0,0,0,.39-2.29,1.2,1.2,0,0,0,.34-.25,1.1,1.1,0,0,0,1.07,1l-.42-2.12a1.26,1.26,0,0,0-.38.27,1.09,1.09,0,0,0-1.07-1,.83.83,0,0,0-.32.07s0-.06,0-.08a1.05,1.05,0,0,0-2.1-.12,1.09,1.09,0,0,0-.61-.21,1.16,1.16,0,0,0-.41.09c.13.73.27,1.47.4,2.2h0a1.14,1.14,0,0,0,1.13-1.06,1.06,1.06,0,0,0,.52.16.94.94,0,0,0,.29-.06.43.43,0,0,0,0,.11,1.11,1.11,0,0,0,.7,1,1.17,1.17,0,0,0-.51.45,1.26,1.26,0,0,0-1-.48,1.23,1.23,0,0,0-1,.46,1.55,1.55,0,0,0-.12-.22c.12.7.25,1.37.37,2.06l0,0s0,.06,0,.09l.12.67a1.36,1.36,0,0,0,.13.24.59.59,0,0,0-.06.14c.31,1.71.62,3.42.93,5.11l.18,0a1.1,1.1,0,0,0,0,.16l-.15-.19c.48,2.62.95,5.22,1.43,7.78,1.54,8.72,3.18,17,4.7,25a66.59,66.59,0,0,1-10.25-1,1.28,1.28,0,0,0-.07.34,1.33,1.33,0,0,0,.38.92.88.88,0,0,0-.1.22.92.92,0,0,0-.75,0,1.23,1.23,0,0,0,.07-.32,1.19,1.19,0,0,0-1.19-1.19,1.21,1.21,0,0,0-.84.35,1.09,1.09,0,0,0-1.08-1,1.1,1.1,0,0,0,0,2.2,1.06,1.06,0,0,0,.75-.3,1.19,1.19,0,0,0,1.17,1.1,1.17,1.17,0,0,0,.38-.07,1.07,1.07,0,0,0-.07.32,1.18,1.18,0,0,0,.78,1.1,1.12,1.12,0,0,0-.49.91,1.06,1.06,0,0,0,0,.19,1.16,1.16,0,0,0-.8-.33,1.15,1.15,0,1,0,1.14,1.15,1.08,1.08,0,0,0,0-.19,1.12,1.12,0,0,0,.8.33,1.14,1.14,0,0,0,1.13-1.08,1.25,1.25,0,0,0,1.14.73,1.27,1.27,0,0,0,1.28-1.27,1.22,1.22,0,0,0-.16-.58,1.42,1.42,0,0,0,.2,0,1.29,1.29,0,0,0,.4-.08,1.44,1.44,0,0,0-.41,1,1.36,1.36,0,0,0,.22.72,1.34,1.34,0,0,0-1,.9,1.23,1.23,0,0,0-1.94.07,1.32,1.32,0,0,0-.62-.18,1.28,1.28,0,0,0-1.27,1.28,1.05,1.05,0,0,0,.07.4c1.78.17,3.56.25,5.33.29l0-.15a1.33,1.33,0,0,0,1.09-1.3,1.35,1.35,0,0,0-.17-.63,1.33,1.33,0,0,0,.64-.28,1.34,1.34,0,0,0,1,2.23,1.3,1.3,0,0,0,.49-.1,1.73,1.73,0,0,0-.15.27c1.4,0,2.8-.08,4.19-.17.06.32.11.63.17.95a1.34,1.34,0,0,0,.65-.75,1.22,1.22,0,0,0,.42.09,1.32,1.32,0,0,0,1.31-1.32,1.3,1.3,0,0,0-.54-1,1.34,1.34,0,0,0,.42-1,1.2,1.2,0,0,0-.06-.33,1.41,1.41,0,0,0,.85.75,1.23,1.23,0,0,0-.17.6,1.28,1.28,0,0,0,.43.94,1.18,1.18,0,0,0-.55.88,1.12,1.12,0,0,0-.88,1.09h0a1.12,1.12,0,0,0-.57-.17,1.18,1.18,0,0,0-1.16,1c0,.24.09.47.13.71a1.19,1.19,0,0,0,.77.58,1,1,0,0,0-.61.25c.22,1.19.43,2.37.64,3.55a1,1,0,0,0,.28-1.66,1.07,1.07,0,0,0,.85-1.05,1.1,1.1,0,0,0,0-.16,1,1,0,0,0,.3.06,1,1,0,0,0,1-.9,1,1,0,0,0,1,.82h.06a1,1,0,1,0,1.68,1.08c-.06-.35-.12-.7-.19-1.06a1,1,0,0,0-.75-.34h-.06a1,1,0,0,0,.09-1.26.58.58,0,0,0,.18,0,1,1,0,0,0,.25-.05c-.13-.71-.26-1.42-.4-2.14a1.42,1.42,0,0,0-.33.11,1.07,1.07,0,0,0,.09-.43,1.16,1.16,0,0,0-.34-.83,1.28,1.28,0,0,0,.32-.24,1.15,1.15,0,0,0,.38.6l1.65-.27a1.17,1.17,0,0,0,.2-.62,1.11,1.11,0,0,0-.24-.66,1.07,1.07,0,0,0,.25-.16,1.43,1.43,0,0,0,0,.22,1.11,1.11,0,0,0,.54.95.91.91,0,0,0-.09.17l1.64-.29-.09-.09a1.14,1.14,0,0,0,.29-.74A1.45,1.45,0,0,0,76.69,207.37Zm-1.3-3.2a.06.06,0,0,1,0,0s0,0,0,0A0,0,0,0,0,75.39,204.17ZM62.27,166l0,0,.06,0Zm-5.7,40a1.1,1.1,0,0,0-.59-.55,1.19,1.19,0,0,0,.42-.47,1.28,1.28,0,0,0,.48.09,1.7,1.7,0,0,0,.22,0A1.24,1.24,0,0,0,56.57,206Zm1.27-1.24a1,1,0,0,0-.22,0,1.38,1.38,0,0,0,.27-.27,1.12,1.12,0,0,0,.11.25C57.94,204.8,57.9,204.77,57.84,204.77Zm2.3.31s0-.08.08-.11,0,.06,0,.09Zm.33-1.2a.9.9,0,0,0,0-.16,1.41,1.41,0,0,0,.39-.34l.12.08A1.49,1.49,0,0,0,60.47,203.88Zm3.26,4a1,1,0,0,0-.17-.24,1.59,1.59,0,0,0,.38.07,1.28,1.28,0,0,0,.27-.05v0s0,0,0,.06A1.15,1.15,0,0,0,63.73,207.88Zm-.38-36.46h0v0Zm2.34,7.24-.24-.08.1-.08a1.64,1.64,0,0,0,.38.1ZM67,208.28a.58.58,0,0,0-.14,0,1.31,1.31,0,0,0,.12-.56,1.19,1.19,0,0,0,0-.26,1.48,1.48,0,0,0,.36.39A1.38,1.38,0,0,0,67,208.28Zm1.52,4.58h.08v0Zm1.13-1.17h0v0s0,0,.08.06ZM71.32,204l0,0h-.06Zm-.85.46s0,0,0,0a1.7,1.7,0,0,0,.34-.07.56.56,0,0,0,0,.08l-.1,0A1.16,1.16,0,0,0,70.47,204.47Zm1.2,7.22a1,1,0,0,0-1,.86,1,1,0,0,0-.6-.77l.13,0a1.14,1.14,0,0,0,1.11-1,1,1,0,0,0,.34-.11,1,1,0,0,0-.08.38,1.07,1.07,0,0,0,.22.63A.5.5,0,0,0,71.67,211.69ZM52.38,259.58a.85.85,0,1,0,.84.85A.85.85,0,0,0,52.38,259.58ZM47.8,258a.91.91,0,0,0-.74.89.93.93,0,0,0,1.86,0,.91.91,0,0,0-.29-.67Zm-5.71-19.6a1.09,1.09,0,0,0,.18-2.17,1,1,0,0,0-.84-1.56,1.25,1.25,0,0,0-.29,0,1,1,0,0,0,.11-.42.91.91,0,0,0-.69-.88,11.21,11.21,0,0,0-1.07.47.92.92,0,0,0-.1.41.88.88,0,0,0,1.17.88,1,1,0,0,0-.15.51,1,1,0,0,0,.8,1,1.12,1.12,0,0,0-.22.64A1.1,1.1,0,0,0,42.09,238.35ZM60.6,90.83a1,1,0,1,0-1-1A1,1,0,0,0,60.6,90.83Zm.15-2.44a1,1,0,1,0-1-1A1,1,0,0,0,60.75,88.39ZM63.9,66.32a1,1,0,0,0,0,2,1,1,0,0,0,.56-.19,1.19,1.19,0,0,0,0,.26,1.1,1.1,0,0,0,.77,1,1.1,1.1,0,0,0,.34,1.81,1.1,1.1,0,1,0,.9,0,1.09,1.09,0,0,0,.62-1,1.07,1.07,0,0,0-.77-1,1.1,1.1,0,0,0-.76-1.9,1,1,0,0,0-.63.23,1.7,1.7,0,0,0,0-.22A1,1,0,0,0,63.9,66.32ZM65,60.44a1,1,0,0,0-2,0,1,1,0,0,0,.35.76,1,1,0,0,0-.52.87,1,1,0,1,0,2,0,1,1,0,0,0-.35-.76A1,1,0,0,0,65,60.44ZM60.11,99.59c.47-.53.94-1,1.39-1.59a1.06,1.06,0,0,0-.88-.48,1.14,1.14,0,0,0-.72.27,1,1,0,0,0-.11-.44,1.07,1.07,0,0,0,.5.14,1.11,1.11,0,0,0,1.11-1.1,1.09,1.09,0,0,0-.95-1.07,1,1,0,0,0,.07-.34,1,1,0,0,0-1.94,0,1,1,0,0,0,.73.93,1.06,1.06,0,0,0-.12.48,1.08,1.08,0,0,0,.14.51.93.93,0,0,0-.44-.11,1,1,0,1,0,.63,1.8s0,0,0,0A1.11,1.11,0,0,0,60.11,99.59Zm1.57-2.31a1.15,1.15,0,0,0,.08.41c.42-.5.81-1,1.21-1.53l-.14,0A1.14,1.14,0,0,0,61.68,97.28Zm-36.16,15a.85.85,0,1,0,0,1.69h.08a.78.78,0,0,0-.06.31.85.85,0,1,0,.85-.85l-.08,0a.81.81,0,0,0,.06-.31A.85.85,0,0,0,25.52,112.28Zm29.33-7.14a1,1,0,0,0-.91-.65,1,1,0,0,0-1,1,.94.94,0,0,0,.63.9ZM62.25,57a1,1,0,0,0,.69.28,1,1,0,0,0,1-1,1.06,1.06,0,0,0-.16-.53,1,1,0,0,0,.35.07,1,1,0,0,0,1-1,.79.79,0,0,0,0-.13,1.06,1.06,0,0,0,.67.25,1.11,1.11,0,0,0,1.1-1.11,1.08,1.08,0,0,0-.11-.47.94.94,0,0,0,.29.06,1.19,1.19,0,1,0-1.19-1.18,1.09,1.09,0,0,0,.15.54.93.93,0,0,0-.24-.05,1.1,1.1,0,0,0-1.1,1.1,1,1,0,0,0,0,.18,1,1,0,0,0-.59-.21l-.09,0-.81,1.43,0,.1-.09,0ZM24.72,110.24a.85.85,0,1,0,.85-.85A.85.85,0,0,0,24.72,110.24Zm-12.9,59a1.07,1.07,0,0,0,1-.62,1.1,1.1,0,0,0,2.1-.47A1.11,1.11,0,0,0,13.79,167h0a1.09,1.09,0,0,0,.25-.68,1.1,1.1,0,0,0-1.1-1.1,1.09,1.09,0,0,0-.79.34,1.13,1.13,0,0,0-.45-.23,1.36,1.36,0,0,0,.18-.63,1.22,1.22,0,0,0-.27-.74,1.27,1.27,0,0,0-.51-2.44A1.28,1.28,0,0,0,9.8,162.8a1.22,1.22,0,0,0,.27.74,1.25,1.25,0,0,0,.24,2.38,1.15,1.15,0,0,0,.58,1.62,1,1,0,0,0-.17.55A1.1,1.1,0,0,0,11.82,169.19Zm1.1-1.76h0a1.13,1.13,0,0,0-.13.2,1.38,1.38,0,0,0-.17-.25A.88.88,0,0,0,12.92,167.43Zm32-146.38a.84.84,0,0,0-.64-.81c-.11.54-.22,1.08-.32,1.63l.11,0A.85.85,0,0,0,44.9,21.05Zm3.74-2a1,1,0,0,0,0,2,.66.66,0,0,0,.15,0h0a1,1,0,0,0,1.93.08,1.07,1.07,0,0,0,1.74.2s0,.07,0,.1a1.11,1.11,0,1,0,1.1-1.1,1.07,1.07,0,0,0-.8.36s0-.07,0-.1a1.1,1.1,0,0,0-2.2-.06,1,1,0,0,0-.8-.45l-.1,0v-.05A1,1,0,0,0,48.64,19.06ZM26.53,107.12a.85.85,0,1,0-.85-.85A.85.85,0,0,0,26.53,107.12ZM46.89,16.24a1.13,1.13,0,0,0-.21-.63.94.94,0,0,0,.29.06,1,1,0,0,0-.07.35,1.11,1.11,0,0,0,.86,1.08,1.35,1.35,0,0,0-.08.4,1.07,1.07,0,0,0,1.07,1.06,1,1,0,0,0,.65-.25,1.13,1.13,0,0,0-.06.32,1.1,1.1,0,0,0,2.2,0,1.05,1.05,0,0,0-.26-.69,1.2,1.2,0,0,0,.47.1,1.07,1.07,0,0,0,.31-.06,1,1,0,0,0-.11.47,1.15,1.15,0,0,0,1.14,1.15,1.14,1.14,0,0,0,2.13.1,1.25,1.25,0,0,0,1,.55,1.27,1.27,0,0,0-.12.51,1.26,1.26,0,0,0,.58,1,19.27,19.27,0,0,1,3.49-5.09,1.39,1.39,0,0,0-.19.15l-.08,0a1.63,1.63,0,0,0,.38-.36l.11,0c1.82-1.68,3.75-2.28,5.68-1.67,4.55,1.45,5.14,7.68,5.09,11.65a60.88,60.88,0,0,1-2.76,17.15l.12,0a1.29,1.29,0,0,0,.85-.33l0,.06a1.31,1.31,0,0,0-.27.77.8.8,0,0,0,0,.15,1.33,1.33,0,0,0-.38.5,1.27,1.27,0,0,0-.56-.67,53.93,53.93,0,0,1-2.55,6.49,1.24,1.24,0,0,0,.47.1,1.14,1.14,0,0,0,.72-.27,1.19,1.19,0,0,0,.86.38,1.13,1.13,0,0,0,.58-.18,1.31,1.31,0,0,0,1.12,1.19,1.57,1.57,0,0,0,.09.43,1.31,1.31,0,0,0-.89.81,1.17,1.17,0,0,0-.1,2.33,1.45,1.45,0,0,0-.06.3,1.32,1.32,0,0,0,.77,1.19,1.3,1.3,0,0,0-.32.84,1.18,1.18,0,0,0-.86-.37,1,1,0,0,0-.17,0,1.19,1.19,0,1,0-1.64.12.6.6,0,0,0-.13.09A1.1,1.1,0,1,0,65,58.88a1.06,1.06,0,0,0,.53-.15,1.19,1.19,0,0,0,.57.89,1.11,1.11,0,0,0-.71,1,1.11,1.11,0,0,0,2.21,0,1.08,1.08,0,0,0-.53-.92,1,1,0,0,0,.32-.18,1.16,1.16,0,0,0,.63.21,1.18,1.18,0,0,0,1.18-1.16,1.29,1.29,0,0,0,1,.47l0,.14a1.06,1.06,0,0,0-.19,0,1.31,1.31,0,0,0-1.13.68h0a1.17,1.17,0,0,0-.73,2.1,1.22,1.22,0,0,0-.2.65,1.3,1.3,0,0,0,1.26,1.3,1.3,1.3,0,0,0,.88.67,1.34,1.34,0,0,0,.13.27,1.17,1.17,0,0,0-.46.18,1.19,1.19,0,0,0-1.07-.68,1.18,1.18,0,0,0-1.17,1.12l-.13,0-.15,0a1.3,1.3,0,0,0-.34-.43,1,1,0,0,0,.09-.43,1.06,1.06,0,0,0-.24-.65A1.09,1.09,0,1,0,64.94,63a1.06,1.06,0,0,0,.24.65,1.07,1.07,0,0,0-.11,1.77,1.18,1.18,0,0,0-.09.43A1.11,1.11,0,0,0,66.09,67h.06a1.16,1.16,0,0,0,1.11.83,1.09,1.09,0,0,0,.54-.15,1.14,1.14,0,0,0-.13.52,1.17,1.17,0,0,0,1,1.15,1.19,1.19,0,0,0-.21.29,1.26,1.26,0,0,0-.28,0,1.19,1.19,0,1,0,0,2.37,1.13,1.13,0,0,0,.62-.21,1.38,1.38,0,0,0-.3.62,1.14,1.14,0,0,0-.52-.13,1.19,1.19,0,1,0,0,2.37,1.16,1.16,0,0,0,1.11-.84c.06,0,.1.07.15.1A1.28,1.28,0,0,0,68.57,75a1.16,1.16,0,0,0,.1.49l-.13,0a1.19,1.19,0,0,0-1.06.67,1.11,1.11,0,0,0-.65-.23,1.19,1.19,0,0,0,0,2.38,1.17,1.17,0,0,0,1-.67,1.16,1.16,0,0,0,.66.22A1.27,1.27,0,0,0,69,77.7a.73.73,0,0,0-.05.2,1.31,1.31,0,0,0,.37.9,1.32,1.32,0,0,0-.22.62,1.08,1.08,0,0,0-.31-.07,1.18,1.18,0,0,0-1.14-.93,1.19,1.19,0,0,0-1.18,1.19,1.3,1.3,0,0,0,0,.21A1.18,1.18,0,0,0,65.58,81a1.16,1.16,0,0,0,.65,1,1.17,1.17,0,0,0-.51,1,.61.61,0,0,0,0,.13A1.11,1.11,0,0,0,65.4,85a1.14,1.14,0,0,0-.87,1.09,1.13,1.13,0,0,0,.79,1.08A1.11,1.11,0,0,0,65,88a1.15,1.15,0,0,0,.82,1.08l-.16.1a1.17,1.17,0,0,0-.62-.54s0,0,0-.08a1.06,1.06,0,0,0-.71-1,1,1,0,0,0,.2-.6,1.06,1.06,0,0,0-1.06-1.06h0a1.36,1.36,0,0,0,.06-.29,1.06,1.06,0,0,0-1.07-1.06,1,1,0,0,0-.87.5s0,0,0-.08a1,1,0,1,0-1,1,.94.94,0,0,0,.79-.44s0,.07,0,.11a1.07,1.07,0,0,0,1.06,1.06h.05a1,1,0,0,0-.06.29,1,1,0,0,0,.71,1,1,1,0,0,0,.36,1.52.82.82,0,0,0,0,.59,1.08,1.08,0,0,0-1.64.94A1.11,1.11,0,0,0,63,92.11a1.09,1.09,0,0,0,.73-.3,1.16,1.16,0,0,0,1,.64,1.18,1.18,0,0,0,1.09-.71,1,1,0,0,0,0,.18,1.21,1.21,0,0,0,.07.33,1.16,1.16,0,0,0-.73.87,1.24,1.24,0,0,0-1.81,1.08,1.14,1.14,0,0,0-.83-.36,1.18,1.18,0,0,0-.46.09,1,1,0,0,0,.24-.63,1,1,0,0,0-2,0,1,1,0,0,0,1,1,1,1,0,0,0,.38-.08,1.13,1.13,0,0,0,.86,1.89,1.14,1.14,0,0,0,1.13-1.07.62.62,0,0,0,.14.14c.18-.23.37-.45.54-.68,1.36-1.68,2.65-3.43,3.88-5.23a1.26,1.26,0,0,0-.64.19,1.17,1.17,0,0,0-.73-.59,1.07,1.07,0,0,0,.35-.41,1.27,1.27,0,0,0,1,.8,77.48,77.48,0,0,0,4.36-7.15,1.29,1.29,0,0,0-.39.08s0,0,0-.06a1.28,1.28,0,0,0,.47-.14,65.48,65.48,0,0,0,7.5-23.74,124.75,124.75,0,0,0,0-27.16A1.31,1.31,0,0,0,80,31s0-.1.08-.14c-1.47-12.08-5-20.59-9.1-25.57l-.14,0A2,2,0,0,0,70.45,5a3,3,0,0,0,0-.31C67.44,1.29,64.09-.26,61,0c-7,1.06-11.58,5.52-14.4,12.35a1.17,1.17,0,0,0,.3-.19,1.32,1.32,0,0,0,2.19-.78,1.38,1.38,0,0,0,.49.1,1.35,1.35,0,0,0,.36-.07,1.24,1.24,0,0,0,.33,1.33,1.34,1.34,0,0,0-.58.55,1.25,1.25,0,0,0-1.18-.81,1.27,1.27,0,0,0-1.21.92.76.76,0,0,0-.16,0,1.13,1.13,0,0,0-.65.22,1.19,1.19,0,0,0,.1-.46,1.09,1.09,0,0,0-.12-.47q-.3.77-.57,1.56a1,1,0,0,0,.17-.1,1.23,1.23,0,0,0-.07.39,1.06,1.06,0,0,0,.21.63,1.22,1.22,0,0,0-.43-.09,1,1,0,0,0-.17,0c-.21.64-.4,1.28-.59,1.95a1.17,1.17,0,0,0,.76.3A1.14,1.14,0,0,0,46.89,16.24ZM67.82,48.5s-.09,0-.14,0a1.16,1.16,0,0,0-.18,0,1.06,1.06,0,0,0,0-.19h0a1.37,1.37,0,0,0,.28,0A.79.79,0,0,0,67.82,48.5Zm1.83-1.2a1.06,1.06,0,0,0-.83,0,1.55,1.55,0,0,0,0-.21,1.24,1.24,0,0,0-.42-.94,1.09,1.09,0,0,0,.27-.4,1.32,1.32,0,0,0,1,.91,1.35,1.35,0,0,0-.08.4A1.17,1.17,0,0,0,69.65,47.3ZM65.87,91.39a.5.5,0,0,0,0-.13,1.19,1.19,0,0,0-.05-.26,1.43,1.43,0,0,0,.21.12A1.31,1.31,0,0,0,65.87,91.39Zm.6-4.48,0,0,0,.05Zm.69.61-.1-.14.17,0S67.17,87.48,67.16,87.52Zm1.77-2.77a1.35,1.35,0,0,0-.48.55,1.24,1.24,0,0,0-1.87.12,1.54,1.54,0,0,0-.17-.19,1.12,1.12,0,0,0,.87-1.09s0,0,0-.07a1.17,1.17,0,0,0,.17-2.16,1.18,1.18,0,0,0,.45-.62,1,1,0,0,0,.51.35s0,.06,0,.08a1.31,1.31,0,0,0,.66,1.13,1.3,1.3,0,0,0-.49,1A1.31,1.31,0,0,0,68.93,84.75Zm.1-13.2a.25.25,0,0,0,0-.07h0Zm1.25,5a1.26,1.26,0,0,0-.58.16s0-.09,0-.13a1.17,1.17,0,0,0-.07-.38,1.85,1.85,0,0,0,.23,0,1,1,0,0,0,.36-.07,1.39,1.39,0,0,0,.28.43A1.69,1.69,0,0,0,70.28,76.58Zm1.11.65a.9.9,0,0,0-.14-.2,1.47,1.47,0,0,0,.29,0l.1,0A1.56,1.56,0,0,0,71.39,77.23Zm.52-8.47a1.31,1.31,0,0,0-1.08-.6,1.29,1.29,0,0,0-.85.33,1.07,1.07,0,0,0,.06-.32A1.18,1.18,0,0,0,68.86,67a1.28,1.28,0,0,0-.55.14,1,1,0,0,0,.12-.46l.13,0a1.12,1.12,0,0,0,.54-.15,1.3,1.3,0,0,0,1.22.87,1.27,1.27,0,0,0,.28-.06,1.33,1.33,0,0,0,1,.63,1.4,1.4,0,0,0,.32.77ZM71.48,58h0a1.72,1.72,0,0,0,0-.24,1,1,0,0,0,.23.05,1.47,1.47,0,0,0,.63-.16,1.2,1.2,0,0,0,.06.33,1.71,1.71,0,0,0-.25.22A1.33,1.33,0,0,0,71.48,58ZM72,51.56h0Zm.3,25.3h0Zm.32-2.09a1.49,1.49,0,0,0-.4-.31,1.67,1.67,0,0,0,.35-.24,1.45,1.45,0,0,0,.1.51A.1.1,0,0,0,72.58,74.77Zm1.2,3.52h0v0Zm1-2.74a.7.7,0,0,0,0-.14l.15-.1A1.34,1.34,0,0,0,74.83,75.55Zm.21-3.9a1.57,1.57,0,0,0,.08.31,1.8,1.8,0,0,0-.37.36,1.4,1.4,0,0,0-.33-.64,1,1,0,0,0,.23,0A1.29,1.29,0,0,0,75,71.65Zm-.75-3.45a1.37,1.37,0,0,0,.25.23,1.68,1.68,0,0,0-.16.39,1.48,1.48,0,0,0-.64.28.56.56,0,0,1,0-.08A1.36,1.36,0,0,0,74.29,68.2Zm-.86,2.85a1.43,1.43,0,0,0,.14.2,1.89,1.89,0,0,0-.23,0,1.46,1.46,0,0,0-.46.1v0A1.47,1.47,0,0,0,73.43,71.05Zm-.88-22.17a1.55,1.55,0,0,0-.31-.06,1.4,1.4,0,0,0-1.4,1.4,2.16,2.16,0,0,0,0,.27h0a1.28,1.28,0,0,0-.67-1,1.37,1.37,0,0,0,.34-.88,1.31,1.31,0,0,0-.06-.27,1.3,1.3,0,0,0,.49.1,1.33,1.33,0,0,0,1-.5,1.37,1.37,0,0,0,.82.34A1.52,1.52,0,0,0,72.55,48.88Zm-.79-5.83a1.31,1.31,0,0,0,.62.21,1.51,1.51,0,0,0-.24.36,1.26,1.26,0,0,0-.57-.17l0,0A1.42,1.42,0,0,0,71.76,43.05ZM57.51,18.91a.53.53,0,0,0,0-.18l.13.05Zm1.14-5.72a1.52,1.52,0,0,0,.48.1,1.51,1.51,0,0,0-.08.48,1.77,1.77,0,0,0,.07.46h0l-.12,0s0,0,0,0a1.42,1.42,0,0,0-.33-.88A.51.51,0,0,0,58.65,13.19Zm-1.13,2.45.12,0s0,0,0,.05a1.42,1.42,0,0,0,.11.55l-.17,0a1.41,1.41,0,0,0-.29-.66A1.69,1.69,0,0,0,57.52,15.64Zm-.77,2.13a.43.43,0,0,0,0,.05.61.61,0,0,1-.13,0Zm-1.69.8a1.14,1.14,0,0,0-.89-.47,1.14,1.14,0,0,0-.19-.34,1.28,1.28,0,0,0,.74.26,1.26,1.26,0,0,0,.84-.33,1.36,1.36,0,0,0,.28.11A1.24,1.24,0,0,0,55.06,18.57ZM54,14.89l.12,0a1.41,1.41,0,0,0,.82-.29,1.31,1.31,0,0,0,.33.83l-.11.11a1.34,1.34,0,0,0-.45-.09,1.29,1.29,0,0,0-.4.08A1.31,1.31,0,0,0,54,14.89Zm.23-3.06a1.44,1.44,0,0,0,1.15.59,1.51,1.51,0,0,0,.64-.15,1.45,1.45,0,0,0-.22.71,1.27,1.27,0,0,0,.06.28,1.51,1.51,0,0,0-.35.2,1.39,1.39,0,0,0-1.39-1.35.79.79,0,0,0-.22.05A1.48,1.48,0,0,0,54.24,11.83ZM52.87,17a.8.8,0,0,0,.21.05,1.29,1.29,0,0,0,.4-.08,1.23,1.23,0,0,0,.26.58,1.13,1.13,0,0,0-.65-.22,1.07,1.07,0,0,0-.31.06A1.24,1.24,0,0,0,52.87,17Zm-.62-2.18a.8.8,0,0,0-.15.17,1.55,1.55,0,0,0-.12-.22A1.17,1.17,0,0,0,52.25,14.8Zm-3.19-6a1.45,1.45,0,0,0,.07-.35s0,0,0-.06a1.32,1.32,0,0,0,.23.35A.94.94,0,0,0,49.06,8.82Zm0,7.68s0-.09,0-.14a1.08,1.08,0,0,0,.08.19Zm1.16.68a1.12,1.12,0,0,0,.41-.09,1.12,1.12,0,0,0,.24.53,1.08,1.08,0,0,0-.44-.09,1.05,1.05,0,0,0-.69.26.94.94,0,0,0,.06-.29,1.06,1.06,0,0,0-.12-.47A1.21,1.21,0,0,0,50.23,17.18Zm-.67-2.75a1.48,1.48,0,0,0,.28.45,1.18,1.18,0,0,0-.72.77,1.18,1.18,0,0,0-.51-.61A1.23,1.23,0,0,0,49.56,14.43Zm18.6,74.86h0ZM9.68,183.73l.07,0a1.14,1.14,0,0,0,.45-.1,1.14,1.14,0,0,0,1.13,1.1,1.3,1.3,0,0,0,.21,0,1.06,1.06,0,1,0,1.88.66,1.06,1.06,0,0,0-1.06-1.06,1,1,0,0,0-.17,0,1.09,1.09,0,0,0,.29-.74,1.14,1.14,0,0,0-1.15-1.14,1.13,1.13,0,0,0-.45.09A1.13,1.13,0,0,0,9,181.78a.88.88,0,0,0-.29-.06H8.61a1.55,1.55,0,0,0,0-.21,1.25,1.25,0,0,0-.28-.77,1.17,1.17,0,0,0,.22-.43,1.14,1.14,0,1,0,1-1.67,1,1,0,0,0-.17,0,1.23,1.23,0,0,0,.07-.32,1.29,1.29,0,0,0-.81-1.19A1.26,1.26,0,0,0,9.43,176a1.28,1.28,0,0,0-1.28-1.28,1.17,1.17,0,0,0-.37.08A1.37,1.37,0,0,0,8,174.1,1.31,1.31,0,0,0,7.36,173a1.28,1.28,0,0,0,.18-.62,1.26,1.26,0,0,0-.31-.81,1.09,1.09,0,0,0,.41-.33,1.26,1.26,0,0,0,.66.21,1.3,1.3,0,0,0,.21,0,1.26,1.26,0,0,0-.72,1.13,1.28,1.28,0,1,0,1.27-1.27l-.19,0a1.23,1.23,0,0,0,.5-.43,1.2,1.2,0,0,0,.62.2,1.19,1.19,0,1,0,0-2.37,1.14,1.14,0,0,0-.88.41,1.45,1.45,0,0,0-.5-.24,1.24,1.24,0,0,0,.6-1,.87.87,0,0,0-.05-.22,1.24,1.24,0,0,0,.1-2.2,1,1,0,0,0,.06-.3,1.19,1.19,0,0,0-2.37,0,1.15,1.15,0,0,0,.47.92,1.34,1.34,0,0,0-.09.45,1.7,1.7,0,0,0,0,.22,1.24,1.24,0,0,0-.43.36,1.13,1.13,0,0,0-.9-.47.93.93,0,0,0-.24.05,1.09,1.09,0,0,0-.45-.72,1,1,0,0,0,.36-.78,1,1,0,0,0-.15-.52,1,1,0,0,0,.58.2,1.06,1.06,0,1,0-1.06-1.06,1,1,0,0,0,.15.51,1.07,1.07,0,0,0-.58-.2,1.07,1.07,0,0,0-1.06,1.07,1,1,0,0,0,.44.83,1.11,1.11,0,0,0-.4.84,1.1,1.1,0,0,0,1.1,1.1,1.06,1.06,0,0,0,.19,0,1.09,1.09,0,0,0,.32.68,1.28,1.28,0,0,0-.35-.07,1.15,1.15,0,0,0-1.14,1.14,1.09,1.09,0,0,0-1.69.21,1.1,1.1,0,0,0-.54-.16,1.43,1.43,0,0,0-.22,0c.17.71.36,1.41.56,2.1a1.17,1.17,0,0,0,.53-.4,1.12,1.12,0,0,0,1.74-.94,1.15,1.15,0,0,0,.76.3,1.13,1.13,0,0,0,.65-.22,1.18,1.18,0,0,0,.24.66A1.28,1.28,0,0,0,5,172.36a1.25,1.25,0,0,0,.62,1.07,1,1,0,0,0-.15,1,1.15,1.15,0,0,0-.45-.11,1.16,1.16,0,0,0,0-.18,1.21,1.21,0,0,0-.29-.76,1.14,1.14,0,1,0-2.11-.58,1.09,1.09,0,0,0,.25.68,1.16,1.16,0,0,0-.22.66.93.93,0,0,0,0,.29l0,.14a1.23,1.23,0,0,0,.14.25h0c.22.61.47,1.2.72,1.8a1.13,1.13,0,0,0,.21-.46,1.26,1.26,0,0,0,1.12.71,1.28,1.28,0,0,0,.74-.26.38.38,0,0,0,.08.11,1.36,1.36,0,0,0-1.15.82,1.23,1.23,0,0,0-.86-.59c.28.63.57,1.25.88,1.87,0,0,0-.06.07-.1a1.31,1.31,0,0,0,.3.36l-.2.08c.15.28.28.57.43.85.45.86.93,1.7,1.42,2.52l0,0h0q.6,1,1.23,2a1.22,1.22,0,0,0,.15-.43,1.22,1.22,0,0,0,.65.21A1.25,1.25,0,0,0,9.68,183.73Zm-6-8.35a.36.36,0,0,0-.07-.1h.09A.29.29,0,0,0,3.69,175.38Zm2.57,4-.08-.06.14,0ZM6,169.56a1.15,1.15,0,0,0-.34-.78,1,1,0,0,0,.35.07,1.14,1.14,0,0,0,.84-.38,1.2,1.2,0,0,0,.74.54,1.34,1.34,0,0,0-.41.41,1.1,1.1,0,0,0-1.18.14ZM7,178.77a.43.43,0,0,0,0-.07.13.13,0,0,1,0,.06Zm.17-1a1.33,1.33,0,0,0-.31-.6,1.2,1.2,0,0,0,.5-.14,1.63,1.63,0,0,0,.35.23A1.27,1.27,0,0,0,7.14,177.73ZM3.31,143.26a.85.85,0,0,0-.85-.85.74.74,0,0,0-.36.09c-.12.4-.22.82-.33,1.23a.84.84,0,0,0,1.54-.47ZM53.56,110a1,1,0,0,0-2,0,1,1,0,0,0,.41.8,1.08,1.08,0,1,0,.65.21A1,1,0,0,0,53.56,110Zm45.75,88.12a.84.84,0,0,0-.84-.85.85.85,0,1,0,0,1.69A.84.84,0,0,0,99.31,198.11ZM27.8,201.43a1.06,1.06,0,0,0-.68.27q.84.45,1.68.87a.43.43,0,0,0,0-.12A1,1,0,0,0,27.8,201.43Zm34.12,56.26a1.11,1.11,0,0,0-1.11-1.11,1.35,1.35,0,0,0-.4.08l-.14.09a1.08,1.08,0,0,0-.56.94,1.06,1.06,0,0,0,.48.88,1.07,1.07,0,0,0-.49.89,1.16,1.16,0,0,0,.09.41l-.13,0a1,1,0,0,0-1,.73.94.94,0,0,0-.45-.69,1,1,0,0,0,.71-1,1,1,0,0,0-2,0,1,1,0,0,0,.54.88.94.94,0,0,0-.59.76.92.92,0,0,0-.79-.47.93.93,0,0,0-.93.93,1,1,0,0,0,.07.34c.58,0,1.16-.07,1.75-.14,0,0,0-.06,0-.09l.06.07a23.28,23.28,0,0,0,4-.89l.64-.22a1.92,1.92,0,0,1,.23-2.4Zm13.35-26.5a1.13,1.13,0,0,0,.66,1,1.25,1.25,0,0,0-.93,1.2,1.27,1.27,0,0,0,1.16,1.26,1.34,1.34,0,0,0-.53.55A1.26,1.26,0,0,0,75,235a1.47,1.47,0,0,0-.29.05,1.16,1.16,0,0,0,.34-.82,1.18,1.18,0,0,0-1.19-1.18,1.17,1.17,0,0,0-1.15,1,1.29,1.29,0,0,0-1.12-.69,1.34,1.34,0,0,0-.65.2c0,.73,0,1.45,0,2.16a1.27,1.27,0,0,0,.32.13,1.85,1.85,0,0,0,0,.23A1.47,1.47,0,0,0,71,236a29.48,29.48,0,0,1-2.5,11.46,1.29,1.29,0,0,0,.25.36,1.68,1.68,0,0,0-.39-.07,21.33,21.33,0,0,1-4.52,6.4,1.32,1.32,0,0,0,.94.39,1.28,1.28,0,0,0,1-.44,1.3,1.3,0,0,0,.87.34,1.13,1.13,0,0,0,.31-.06v0a1.4,1.4,0,0,0,.31.84,1.16,1.16,0,0,0-.28.34,1.06,1.06,0,0,0-.19,0h0a1.28,1.28,0,0,0-1-.54,1.33,1.33,0,0,0-.92.38,1.16,1.16,0,0,0-1.11-.85,1.13,1.13,0,0,0-.32.06c-.24.22-.49.44-.75.64a1.14,1.14,0,0,0-.12.48,1.18,1.18,0,0,0,2,.89,1.28,1.28,0,0,0,1.13,1,1.35,1.35,0,0,0,.28.35,1.27,1.27,0,0,0-.51.37,22.65,22.65,0,0,0,9-11.21,29.3,29.3,0,0,0,1.62-5.56,1.72,1.72,0,0,0-.4-.26,1.52,1.52,0,0,0-.4-.81l.12-.08.06,0a1.42,1.42,0,0,0,.66.87,24.62,24.62,0,0,0,.39-4.71c-.06-2.28-.26-4.35-.51-6.42A1.13,1.13,0,0,0,75.27,231.19Zm-8.7,20.62h0a.06.06,0,0,1,0,0s0,0,.08.06ZM68.31,253h0a1.23,1.23,0,0,0-.39.08,1.32,1.32,0,0,0-.78-1.16l.11,0a1.34,1.34,0,0,0,.87-.33,1.45,1.45,0,0,0,.25.74,1.59,1.59,0,0,0-.07.38A1.26,1.26,0,0,0,68.31,253Zm1-4.86.2,0a2,2,0,0,0,.07.37A1.62,1.62,0,0,0,69.3,248.16Zm.33.64a1.18,1.18,0,0,0,0-.2,1.7,1.7,0,0,0,.15.22Zm1.61-9.93,0,0a1,1,0,0,0,0-.24,2.38,2.38,0,0,0,0-.26l.12-.08a.38.38,0,0,1-.08.6Zm.87,8.26h0Zm1.61-11a1.25,1.25,0,0,0-.94-1,2,2,0,0,0,0-.24,1.17,1.17,0,0,0,1,.62,1.3,1.3,0,0,0,.21,0A1.3,1.3,0,0,0,73.72,236.1Zm32.64-41.37ZM116.52,144A41.42,41.42,0,0,0,98.87,124h-.09a.13.13,0,0,1,0-.06c-.89-.49-1.79-1-2.71-1.37a39.91,39.91,0,0,0-21.9-3.2h0a38.77,38.77,0,0,0-5.17,1,41.29,41.29,0,0,0-12.76,5.92c-.25-1.51-.51-3-.77-4.53,0,0-.08,0-.13,0a1.21,1.21,0,0,0,.07-.33c0-.22-.07-.43-.11-.65a1.36,1.36,0,0,0-.51-.58,1.18,1.18,0,0,0,.38-.16l-.06-.36-.3-2a1,1,0,0,0-.29-.07.88.88,0,0,0,.06-.29,1,1,0,0,0-.07-.34l.19,0c-.13-.82-.26-1.63-.38-2.45a1.27,1.27,0,0,0-.83,1.19,1.13,1.13,0,0,0,.09.45.7.7,0,0,0-.14,0,1.14,1.14,0,0,0-1.15,1.14,1.13,1.13,0,0,0,1,1.11,1.34,1.34,0,0,0-.1.49,1.31,1.31,0,0,0,.6,1.08,1.29,1.29,0,0,0-.78.53,1.22,1.22,0,0,0-.78-.3,1.32,1.32,0,0,0-.56.14,1.17,1.17,0,0,0-.47-.31l0-.1a1.13,1.13,0,0,0,.29-2.19,1.08,1.08,0,0,0,.23-.63,1.06,1.06,0,0,0-.16-.53,1,1,0,0,0,.34.07,1.1,1.1,0,0,0,.77-1.89.94.94,0,0,0,.3.06,1.11,1.11,0,0,0,1.1-1.11,1,1,0,0,0-.11-.46l.16,0-.3-2.14a1.07,1.07,0,0,0-.68,1.51,1,1,0,0,0-.17,0,1.11,1.11,0,0,0-1.11,1.1,1.09,1.09,0,0,0,.34.79,1.07,1.07,0,0,0-.3-.06,1.11,1.11,0,0,0-1.11,1.1,1.1,1.1,0,0,0,.18.57,1.07,1.07,0,0,0-.31-.06,1.26,1.26,0,0,0-.28,0c.21,1.39.42,2.8.62,4.18.32,2.09.66,4.14,1,6.19a1.17,1.17,0,0,0,.26,0,1.36,1.36,0,0,0,.92-.37l0,0a.93.93,0,0,0,0,.24,1.44,1.44,0,0,0,.8,1.28,1,1,0,0,0-.17,0,1.3,1.3,0,0,0-.85.34,1.4,1.4,0,0,0-.92-1.28c.14.82.27,1.63.4,2.45a43.37,43.37,0,0,0-4.87,5,1.42,1.42,0,0,0,.2,0l.12,0a1.09,1.09,0,0,0-.23.65,1.14,1.14,0,0,0,1.14,1.15,1.12,1.12,0,0,0,.57-.17,1,1,0,0,0-.07.35,1.06,1.06,0,1,0,1.06-1.06,1,1,0,0,0-.49.14,1.36,1.36,0,0,0,.08-.41v0a1.1,1.1,0,0,0,.51.13,1.14,1.14,0,0,0,1.14-1.15,1.13,1.13,0,0,0-.95-1.1h0a1.27,1.27,0,0,0,1.17-.76,1.06,1.06,0,0,0-.08.4,1.18,1.18,0,0,0,1.18,1.19,1.16,1.16,0,0,0,.93-.48,1.2,1.2,0,0,0,.69.24,1.55,1.55,0,0,0,.21,0,1.14,1.14,0,0,0-.1.45,1.07,1.07,0,0,0,.67,1,1,1,0,1,0,1.13,1,1,1,0,0,0-.61-.92,1.1,1.1,0,0,0,1-1.09,1.17,1.17,0,0,0-.09-.42,1.14,1.14,0,0,0,.67.24,1.2,1.2,0,0,0,1.09-.72,1.16,1.16,0,0,0,1.12.88,1.14,1.14,0,0,0,.67-.24,1.16,1.16,0,0,0,1,.58A1.18,1.18,0,0,0,62.5,133a1.55,1.55,0,0,0-.06-.31,1,1,0,0,0,.17,0,1.13,1.13,0,0,0,.65-.22,1.36,1.36,0,0,0,.32.21,1.1,1.1,0,0,0,.45,2.11,1.06,1.06,0,0,0,.47-.12,1.09,1.09,0,0,0,.29.72c.62-.29,1.26-.55,1.9-.81a1.08,1.08,0,0,0-.11-.4,1.23,1.23,0,0,0,.46.1,1.31,1.31,0,0,0-.17.24l1.25-.46a2,2,0,0,0-.23-.06,1.23,1.23,0,0,0-.15-2.06,1.37,1.37,0,0,0,.13-.2,1.29,1.29,0,0,0,.48.1l.08,0a1.25,1.25,0,0,0,1,.54,1.27,1.27,0,0,0,1.27-1.25,1.29,1.29,0,0,0,.48-.1,1.42,1.42,0,0,0,.62.32s0,0,0,.06a1.23,1.23,0,0,0-.25,0,1.28,1.28,0,0,0-1.27,1.07,1.13,1.13,0,0,0-.48-.11,1.14,1.14,0,0,0-1.15,1.14,1,1,0,0,0,.09.42A32.69,32.69,0,0,1,72,133c.27-.06.56-.09.84-.14a1.43,1.43,0,0,0,0-.22,1.24,1.24,0,0,0-.1-.5,1.5,1.5,0,0,0,.29.06h.07a1.21,1.21,0,0,0,.41.56,30.79,30.79,0,0,1,6-.28s0-.07,0-.11a1.68,1.68,0,0,0,.37-.21,1.49,1.49,0,0,0,.17.36c.7.05,1.39.12,2.09.22a1.34,1.34,0,0,0,.37-.57,1.14,1.14,0,0,0,.32.22,1.6,1.6,0,0,0-.33.4,31,31,0,0,1,4.11.88,1.54,1.54,0,0,0,.35-.15,2.68,2.68,0,0,0,.07.27A35.17,35.17,0,0,1,106.77,149a35.66,35.66,0,0,1,5.59,24.12,27.83,27.83,0,0,1-1.17,4.87,1.6,1.6,0,0,0,0,.21l-.12,0a30,30,0,0,1-3.65,7.23,1.25,1.25,0,0,0,.61.61.71.71,0,0,0-.09.07,1.21,1.21,0,0,0-.75-.34c-.56.8-1.16,1.57-1.8,2.32a1.13,1.13,0,0,0,.74-.49,1.23,1.23,0,0,0,.5.43,1.12,1.12,0,0,0-.53,1.44,1.07,1.07,0,0,0-.86-.45,1,1,0,0,0-.35.07,1.19,1.19,0,0,0,0-.26,1.13,1.13,0,0,0,0-.18c-.36.4-.72.79-1.1,1.18l.11,0a1.26,1.26,0,0,0,.28-.05.88.88,0,0,0-.07.32,1.11,1.11,0,1,0,2.21,0,1,1,0,0,0-.08-.38,1.18,1.18,0,0,0,.94.49,1.13,1.13,0,0,0,.65-.22,1.47,1.47,0,0,0,.24.4,2,2,0,0,0-.19.22,1.2,1.2,0,0,0-.8-.32,1.18,1.18,0,0,0-.51,2.25,1.14,1.14,0,0,0-.13.52,1.13,1.13,0,0,0,.15.55,1.2,1.2,0,0,0-.36.85,1.22,1.22,0,0,0,.06.26,43.27,43.27,0,0,0,11.08-15.95l-.09-.08a1.51,1.51,0,0,0,.07-.37l0,0c0,.06.06.11.08.16a36.88,36.88,0,0,0,1.28-4A46,46,0,0,0,116.52,144ZM53.24,122.46l-.07-.09h0l.1.07Zm-4,11.45v0a1.07,1.07,0,0,0-.51-.13h0a1.26,1.26,0,0,0,.29-.77,1.06,1.06,0,0,0,0-.19,1.28,1.28,0,0,0,.69-.52,1.21,1.21,0,0,0,.7.44A1.14,1.14,0,0,0,49.29,133.91Zm3.14-4.73.07-.05a.86.86,0,0,0,0,.17Zm1.18,2.33a1.2,1.2,0,0,0-.69-.24,1.18,1.18,0,0,0-1.08.71,1.33,1.33,0,0,0,.09-.44c0-.06,0-.11,0-.16a1.31,1.31,0,0,0,1-1.25,1.85,1.85,0,0,0,0-.23,1.29,1.29,0,0,0,1,.48,1.23,1.23,0,0,0,.35.73A1.27,1.27,0,0,0,53.61,131.51Zm3.17-4.46a1.45,1.45,0,0,0,.67.29,1.43,1.43,0,0,0-.8.73,1.39,1.39,0,0,0-.63-.68A1.39,1.39,0,0,0,56.78,127.05Zm-1,5.66a.76.76,0,0,0-.16,0,1.15,1.15,0,0,0,.14-.52s0-.06,0-.09a1.18,1.18,0,0,0,.56.16h0c0,.05,0,.1,0,.15a1.2,1.2,0,0,0,.1.47A1,1,0,0,0,55.75,132.71Zm1.84-1.43-.15,0h0a.9.9,0,0,0,0-.16,1.17,1.17,0,0,0-1.15-1.17,1.18,1.18,0,0,0-.06-.27,1.27,1.27,0,0,0,.38-.48,1.37,1.37,0,0,0,1.15.84,1.29,1.29,0,0,0-.28.79A1.19,1.19,0,0,0,57.59,131.28Zm1,.85a.13.13,0,0,0,0-.06h.05Zm7.16-5.28a.7.7,0,0,0,.06.09l-.08.09s0-.09,0-.14ZM62,126.26a1.45,1.45,0,0,0,1,.79,1.35,1.35,0,0,0,.11.45,1.51,1.51,0,0,0-.38.54,1.19,1.19,0,0,0-.55-.27,1.33,1.33,0,0,0,.16-.62,1.41,1.41,0,0,0-.33-.89Zm-2.78,3.31-.21,0a1.4,1.4,0,0,0,.31-.75,1.35,1.35,0,0,0,.92-.43,1.22,1.22,0,0,0,.43.15l0,.08a.86.86,0,0,0-.17,0A1.28,1.28,0,0,0,59.2,129.57ZM66,133.62a1.15,1.15,0,0,0-.41-.08,1.06,1.06,0,0,0-.47.12,1.11,1.11,0,0,0-.62-1,1.18,1.18,0,0,0-.44-2.28,1.13,1.13,0,0,0-.65.22,1.16,1.16,0,0,0-.81-.32,1.18,1.18,0,0,0-1.18,1.18.94.94,0,0,0,.06.3l-.18,0a1.23,1.23,0,0,0-.67.23,1.13,1.13,0,0,0-.72-.52,1.26,1.26,0,0,0,.15-.38,1.23,1.23,0,0,0,.38.08,1.31,1.31,0,0,0,1.23-.86,1,1,0,0,0,.17,0,1.3,1.3,0,0,0,1.2-.79,1.35,1.35,0,0,0,1,.38,1.85,1.85,0,0,0,.23,0,1.3,1.3,0,0,0,1,.47,1.49,1.49,0,0,0,.42-.08,1.3,1.3,0,0,0-.21.68,1.33,1.33,0,0,0,.74,1.19,1.27,1.27,0,0,0-.34.86A1.15,1.15,0,0,0,66,133.62Zm1.25-3.92a1.28,1.28,0,0,0-.47-.1,1.34,1.34,0,0,0-.45.09,1.2,1.2,0,0,0,.13-.31,1.35,1.35,0,0,0,.29.05,1.4,1.4,0,0,0,1-.43,2.43,2.43,0,0,0,.14.2A1.32,1.32,0,0,0,67.26,129.7Zm.81-2.3-.11-.15a1.58,1.58,0,0,0,.28-.3,1.36,1.36,0,0,0,.3.13A1.56,1.56,0,0,0,68.07,127.4Zm2.06,0-.11-.08.12,0A.07.07,0,0,0,70.13,127.41Zm7.05,4a1.39,1.39,0,0,0-.46-.09,1.25,1.25,0,0,0-.66.2,1.21,1.21,0,0,0-.42-.13,1.31,1.31,0,0,0-1.25-1h0a1.72,1.72,0,0,0-.2-.38,1.37,1.37,0,0,0,.42-.29,1.44,1.44,0,0,0,1.32.87,1.41,1.41,0,0,0,.82-.29,1.39,1.39,0,0,0,.59.91A1.18,1.18,0,0,0,77.18,131.43Zm3.33-8.6.06,0a.5.5,0,0,1,0,.12A.8.8,0,0,0,80.51,122.83Zm3.88,9.39.25-.22.2,0a1.28,1.28,0,0,0,0,.27,1.8,1.8,0,0,0,.06.32A1.25,1.25,0,0,0,84.39,132.22Zm.71,1v0l0,0Zm23.21,55.34s0,0,0-.06l.1,0Zm1.08-.26h0Zm0-2.08a1.3,1.3,0,0,0-.23-.15,1.13,1.13,0,0,0,.36-.24A1.06,1.06,0,0,0,109.42,186.19Zm2.06-2.17a1.37,1.37,0,0,0-1.19,1.14,1.48,1.48,0,0,0-.5.3,1.23,1.23,0,0,0,.17-.6,1.42,1.42,0,0,0-.08-.42,1.29,1.29,0,0,0,.94-1.24,1.36,1.36,0,0,0-.07-.35h0a1.37,1.37,0,0,0,.74,1A.9.9,0,0,0,111.48,184Zm.85-4.58a.87.87,0,0,0,0-.28,1.57,1.57,0,0,0,.23,0,.58.58,0,0,0,0,.19Zm-6.59,15.87.62-.58A1.25,1.25,0,0,0,105.74,195.31ZM53,134.55a1,1,0,0,0-.25,2,1,1,0,0,0-.24.62,1,1,0,1,0,2,0,1,1,0,0,0-.76-1,1,1,0,0,0,.23-.62A1,1,0,0,0,53,134.55ZM42.57,255.11a1.17,1.17,0,0,0-1.14-1.18.79.79,0,0,0,0-.13,1.2,1.2,0,0,0-.48-.94,1.8,1.8,0,0,0,.08-.21,1.2,1.2,0,0,0,.67.23,1.18,1.18,0,0,0,1.19-1.18,1.17,1.17,0,0,0-1-1.15,1.17,1.17,0,0,0-1.13-.91,1.34,1.34,0,0,0-.45.09,1.32,1.32,0,0,0-.34-.81,1.26,1.26,0,0,0,1.21-1.26s0,0,0-.06a1,1,0,0,0,.25.05,1.14,1.14,0,0,0,.83-1.93,1.1,1.1,0,0,0,.43-.87,1.09,1.09,0,0,0-.19-.59,1.85,1.85,0,0,0,.23,0,1,1,0,0,0,0-2,1,1,0,0,0-.39.08,1.09,1.09,0,0,0-.7-1,1.12,1.12,0,0,0,.42-.64,1,1,0,0,0,.95.69,1,1,0,0,0,.49-.14,1,1,0,0,0-.06.3,1,1,0,1,0,1-1,1,1,0,0,0-.49.14,1,1,0,0,0,.06-.3,1,1,0,0,0-1-1,1,1,0,0,0-1,.79,1.1,1.1,0,0,0-1-.78,1,1,0,0,0-.52.15s0,0,0-.06a1.18,1.18,0,0,0-1.18-1.18,1.22,1.22,0,0,0-.62.19,1.08,1.08,0,0,0-1.06-.9,1.09,1.09,0,0,0-1,.65,1.21,1.21,0,0,0-.78-.31,1.19,1.19,0,0,0-1.19,1.19,1.17,1.17,0,0,0,1,1.15,1.4,1.4,0,0,0-.38.55s0,0,0-.07a1.18,1.18,0,0,0-.89-1.13,1.4,1.4,0,0,0-.15-.49,11.92,11.92,0,0,0-.91,2.51l.15.1a1.33,1.33,0,0,0-.19.14,12.06,12.06,0,0,0-.25,2.1,12.81,12.81,0,0,0,.11,1.53h0s0,0,0,.15a12.29,12.29,0,0,0,.33,1.71,1.24,1.24,0,0,0,.8-1.16,1.08,1.08,0,0,0-.07-.31,1.3,1.3,0,0,0,.52.1,1.35,1.35,0,0,0,1.36-1.35,1,1,0,0,0-.06-.26,1.51,1.51,0,0,0,.38-.08,1.34,1.34,0,0,0,1.15.68h0a1.28,1.28,0,0,0-.09.44c0,.06,0,.12,0,.18a1.29,1.29,0,0,0-.77-.28,1.32,1.32,0,0,0-1.32,1.32s0,0,0,0a.58.58,0,0,0-.14,0,1.18,1.18,0,0,0-1.18,1.19,1.14,1.14,0,0,0,.43.89,2.33,2.33,0,0,0-.17.26,1.07,1.07,0,0,0-.45-.26,11.62,11.62,0,0,0,.89,1.76,1.22,1.22,0,0,0,.35.14,1.24,1.24,0,0,0-.18.14,11.12,11.12,0,0,0,1.24,1.57l.09.14a1.12,1.12,0,0,0,.39-.42,1,1,0,0,0,0,.17,1.11,1.11,0,0,0,1.11,1.1,1.09,1.09,0,0,0,1-.75,1.14,1.14,0,0,0,.33.61,1,1,0,0,0-.34-.07,1.13,1.13,0,0,0-1.13,1.06c.36.4.74.81,1.17,1.22a1.14,1.14,0,0,0,.89-.51,1,1,0,0,0,.43.09.7.7,0,0,0,0,.14,1.17,1.17,0,0,0,.09.42,1.05,1.05,0,0,0-.62-.21,1.08,1.08,0,0,0-.61.2c.49.46,1,.91,1.6,1.35a1,1,0,0,0,.11-.45,1.11,1.11,0,0,0-.07-.37,1.15,1.15,0,0,0,.69.24A1.18,1.18,0,0,0,42.57,255.11ZM35.26,242a.46.46,0,0,1,0-.91.43.43,0,0,0,0,.11,1.22,1.22,0,0,0,.22.67A1.37,1.37,0,0,0,35.26,242Zm1.62,9.67a1,1,0,0,0,0-.17.7.7,0,0,1-.5-1.31,1.21,1.21,0,0,0,.46.28,1.07,1.07,0,0,0-.06.31,1.24,1.24,0,0,0,.21.67A1.7,1.7,0,0,0,36.88,251.71Zm.33-3.64a1.22,1.22,0,0,0-.93.54l0,0a1.16,1.16,0,0,0,.29-.7,1.28,1.28,0,0,0,.27.05,1.26,1.26,0,0,0,.43-.08A1.3,1.3,0,0,0,37.21,248.07Zm.42-5.82a1.17,1.17,0,0,0-.37.08,1.32,1.32,0,0,0,.62-1.09A1.31,1.31,0,0,0,36.71,240a1.23,1.23,0,0,0,.28-.43,1.1,1.1,0,0,0,.68.26,1,1,0,0,0,.52-.16,1.18,1.18,0,0,0,1.16,1,1.2,1.2,0,0,0,.59-.18h0a1.1,1.1,0,0,0,.7,1,1.12,1.12,0,0,0-.36.42,1.16,1.16,0,0,0-1.57.9A1.36,1.36,0,0,0,37.63,242.25Zm.85,4.55a1.23,1.23,0,0,0-.39.08,1,1,0,0,0,0-.25,1.55,1.55,0,0,0,0-.21,1.18,1.18,0,0,0,.73.26,1.28,1.28,0,0,0,.48-.09,1,1,0,0,0-.35.31A1.29,1.29,0,0,0,38.48,246.8ZM38.9,252a1.22,1.22,0,0,0,0-.17,1.28,1.28,0,0,0,.46-.78,1.17,1.17,0,0,0,.32-.09,1.13,1.13,0,0,0,.06.31A1.11,1.11,0,0,0,38.9,252Zm.58-5.5a1.25,1.25,0,0,0,.63-1.07,1.28,1.28,0,0,0-1.23-1.27,1.45,1.45,0,0,0,.08-.36,1.14,1.14,0,0,0,.89.43,1.18,1.18,0,0,0,1.11-.8,1.23,1.23,0,0,0,.32.07,1,1,0,0,0,.48-.13.94.94,0,0,0,.13.41,1.59,1.59,0,0,0-.3-.06,1.15,1.15,0,0,0-1.15,1.15,1.12,1.12,0,0,0,.32.78,1.09,1.09,0,0,0-.42.83,1.2,1.2,0,0,0-.86,0ZM20.71,197.63h-.05l.85.61A.83.83,0,0,0,20.71,197.63ZM46.9,135.14c-.4.51-.81,1-1.18,1.53a1.09,1.09,0,0,0,2.09-.47A1.07,1.07,0,0,0,46.9,135.14Zm49.95,60.59a.83.83,0,0,0-.12-.42c-.48.28-1,.53-1.47.79a.84.84,0,0,0,.75.47A.85.85,0,0,0,96.85,195.73Zm-3,5a.85.85,0,1,0,.85.85A.85.85,0,0,0,93.85,200.73Zm-3,.6a.85.85,0,1,0,.85.85A.85.85,0,0,0,90.88,201.33ZM59.35,133.94a1.11,1.11,0,1,0,.94,1.66,1,1,0,0,0,1.87.7,1,1,0,0,0,.4.23l1.28-.68a.88.88,0,0,0,.06-.27,1,1,0,0,0-1.93-.46,1,1,0,0,0-1.57.21.94.94,0,0,0,.06-.28A1.11,1.11,0,0,0,59.35,133.94ZM95.94,197.6a.84.84,0,0,0-.84-.84.85.85,0,1,0,.84.84ZM83,203.05A1.07,1.07,0,1,0,84.09,202,1.06,1.06,0,0,0,83,203.05Zm13.4-3.22a.85.85,0,1,0,.85.85A.85.85,0,0,0,96.43,199.83Zm-5.57-1.6a.92.92,0,0,0,.16.27.83.83,0,0,0-.57.79.85.85,0,1,0,1.69,0,.88.88,0,0,0-.23-.58.84.84,0,0,0,.58-.79.7.7,0,0,0-.11-.38C91.88,197.77,91.37,198,90.86,198.23Zm7.8-2.73a.85.85,0,0,0,.34-1.63c-.39.27-.78.53-1.18.77h0A.85.85,0,0,0,98.66,195.5ZM85.94,203a.94.94,0,1,0,.93.94A.94.94,0,0,0,85.94,203Zm19.41-10.47a1.11,1.11,0,1,0-1.1,1.1A1.1,1.1,0,0,0,105.35,192.48Zm-18.93,7.39c-.5.16-1,.33-1.51.48a1,1,0,0,0-.07.35,1,1,0,0,0,2,0A1,1,0,0,0,86.42,199.87Zm2.5,2.1a.85.85,0,1,0-.85.85A.85.85,0,0,0,88.92,202ZM34.07,121.12a.85.85,0,1,0-.85.84A.85.85,0,0,0,34.07,121.12ZM50.29,236a.85.85,0,1,0-.85.84A.85.85,0,0,0,50.29,236Zm-1.81,6.66a.85.85,0,1,0-.84-.85A.85.85,0,0,0,48.48,242.61Zm.77-9a.85.85,0,0,0,.85.85.83.83,0,0,0,.59-.24,10.4,10.4,0,0,0-1.42-.7S49.25,233.54,49.25,233.57Zm.74,6.54a.85.85,0,1,0-.85-.85A.85.85,0,0,0,50,240.11ZM50.7,244a.85.85,0,1,0-.85.85A.85.85,0,0,0,50.7,244ZM48,253a.93.93,0,1,0-.93-.93A.93.93,0,0,0,48,253Zm1.65-6.92a.85.85,0,1,0-.85.85A.85.85,0,0,0,49.69,246.08Zm-1.4,7.15a.93.93,0,1,0,0,1.86.93.93,0,0,0,0-1.86Zm4.38-12.16a.85.85,0,1,0,.84.85A.85.85,0,0,0,52.67,241.07ZM61,59.22a.93.93,0,0,0,.64.26.93.93,0,0,0,.24-1.82C61.56,58.18,61.28,58.7,61,59.22ZM50.68,205.09a1,1,0,0,0-1-1,1,1,0,0,0-.7.28.93.93,0,1,0-.87.64.91.91,0,0,0,.62-.25,1,1,0,0,0-.07.35,1,1,0,0,0,2,0ZM53.5,238.2a.93.93,0,0,0,.93.93.9.9,0,0,0,.7-.33,10.88,10.88,0,0,0-.94-1.48A.92.92,0,0,0,53.5,238.2Zm-1.79-2.27a.85.85,0,1,0,.85.85A.85.85,0,0,0,51.71,235.93Zm-7.06-30.62a.85.85,0,1,0-.85-.85A.85.85,0,0,0,44.65,205.31Zm.47-67.63-.07,0c-.3.44-.61.88-.88,1.33a1,1,0,0,0,.95.69,1,1,0,0,0,0-2Zm-7.3,59.5a.85.85,0,1,0,1.55-.44c-.26-.13-.53-.25-.79-.39A.84.84,0,0,0,37.82,197.18Zm1.71,7.23a.93.93,0,1,0-.93-.93A.93.93,0,0,0,39.53,204.41Zm-4.78-89.87a.85.85,0,1,0-.85.85A.85.85,0,0,0,34.75,114.54Zm-2.84,2.57a.85.85,0,1,0,.85-.85A.85.85,0,0,0,31.91,117.11Zm9.76,89.32a4.12,4.12,0,0,1,1.26-2.27.85.85,0,1,0-1.44.61.83.83,0,0,0-.67.81A.85.85,0,0,0,41.67,206.43ZM31.58,117.69a.84.84,0,0,0-.85.84.85.85,0,1,0,1.7,0A.84.84,0,0,0,31.58,117.69Zm13.26,82.89a.85.85,0,1,0-.85.84A.85.85,0,0,0,44.84,200.58Zm15.36-140c-.29.49-.58,1-.86,1.44a.9.9,0,0,0,.74.4.92.92,0,0,0,.12-1.84Zm-18,139.54a.85.85,0,1,0-.84-.84A.85.85,0,0,0,42.17,200.09Zm1.14,7.59-.1,0,.55.12A.85.85,0,0,0,43.31,207.68Zm2.1.11a.89.89,0,0,0-.62.27l1.42.33A.84.84,0,0,0,45.41,207.79Zm1.92-1a.85.85,0,1,0-.85.84A.85.85,0,0,0,47.33,206.83Zm.05-4.84a.93.93,0,1,0-.93-.93A.93.93,0,0,0,47.38,202Zm2.93,51.77a.85.85,0,0,0-.85.85.88.88,0,0,0,.07.33,11.53,11.53,0,0,0,1.48-.77A.83.83,0,0,0,50.31,253.76Zm-4.25-3.37a1,1,0,0,0-.39.07h0a1.11,1.11,0,0,0-2.21,0,1.11,1.11,0,0,0,1.11,1.11,1,1,0,0,0,.48-.13,1,1,0,1,0,1-1.05ZM30.17,194.71a1.15,1.15,0,1,0,1.15-1.14.93.93,0,0,0-.24.05,1.13,1.13,0,0,0,.55-1,1,1,0,0,0-.16-.55l-.76-.55a.85.85,0,0,0-.22,0,1.14,1.14,0,1,0,0,2.28,2,2,0,0,0,.24,0A1.11,1.11,0,0,0,30.17,194.71ZM42.56,234.5a.93.93,0,0,0,.93-.93.92.92,0,0,0-.55-.84,9.49,9.49,0,0,0-1.06.22.91.91,0,0,0-.25.62A.93.93,0,0,0,42.56,234.5Zm-9.1-39.21a1.11,1.11,0,0,0,1.11-1.1s0,0,0-.05l-1.51-1a1.1,1.1,0,0,0,.42,2.12Zm1.2.4a1.07,1.07,0,0,0,2.13,0,1,1,0,0,0-.06-.3c-.43-.23-.84-.47-1.26-.71A1,1,0,0,0,34.66,195.69Zm11.59,59.59a1,1,0,1,0-1.77.67,11.34,11.34,0,0,0,1.55-.07A1,1,0,0,0,46.25,255.28Zm7.28-117a.93.93,0,1,0,0,1.86.93.93,0,0,0,0-1.86Zm7.58,71.5a1.22,1.22,0,0,0-.62.19h1.29A1.28,1.28,0,0,0,61.11,209.73ZM51.92,141.3a.85.85,0,0,0,0,1.7.85.85,0,0,0,0-1.7Zm3.09.6a.85.85,0,0,0-.84.85.71.71,0,0,0,0,.2c.15-.16.29-.32.45-.48.06.37.12.73.19,1.09a.75.75,0,0,0,.16,0,.85.85,0,1,0,0-1.7Zm2.45,16.16a1.07,1.07,0,0,0-.14-.5c0,.21.07.43.11.65A.8.8,0,0,0,57.46,158.06Zm3.77-4.27-.57-3h0a.84.84,0,0,0-.85.84.85.85,0,0,0,.85.85h0a.82.82,0,0,0,.58,1.34ZM24.1,189.72a.85.85,0,1,0-.85-.85A.85.85,0,0,0,24.1,189.72Zm13.29-69.08a1.14,1.14,0,0,1,.11-.11c.35-.34.72-.68,1.09-1a.81.81,0,0,0-.67-.37.85.85,0,0,0-.85.85A.84.84,0,0,0,37.39,120.64ZM45,74.86l.18,1.66a.83.83,0,0,0,.78-.83.85.85,0,0,0-.84-.85ZM4.23,152.2a.85.85,0,1,0,.85.85A.85.85,0,0,0,4.23,152.2ZM45.44,73.51a.85.85,0,1,0-.75-1.22l.09.88A.85.85,0,0,0,45.44,73.51ZM43.06,50.15a1.11,1.11,0,0,0,2.21,0,1,1,0,0,0-.05-.24,1,1,0,0,0,.43-.1,1,1,0,0,0-.06.29,1,1,0,1,0,1-1,1.1,1.1,0,0,0-.4.08.82.82,0,0,0,.07-.31,1.07,1.07,0,0,0-2.13,0,.65.65,0,0,0,.05.2h0A1.11,1.11,0,0,0,43.06,50.15ZM4.11,155.67a.93.93,0,1,0,.93-.93A.93.93,0,0,0,4.11,155.67Zm19.1,32.54a.85.85,0,0,0-.85-.85.85.85,0,1,0,.85.85Zm-1.95-2.93a.85.85,0,1,0,.85-.85A.85.85,0,0,0,21.26,185.28Zm-1.16,5a.85.85,0,1,0,.85-.85A.85.85,0,0,0,20.1,190.3ZM52.46,28.37a.84.84,0,0,0,1.38.65l.27-.88a.8.8,0,0,0-.18-.34,1,1,0,0,0,.24.15c.2-.62.4-1.22.61-1.8a1.3,1.3,0,0,0-.21,0,1,1,0,0,0-1,1,1,1,0,0,0,.27.67.8.8,0,0,0-.56-.22A.85.85,0,0,0,52.46,28.37ZM10.52,156.5a1.07,1.07,0,1,0-2.13,0,1.08,1.08,0,0,0,.33.76,1,1,0,0,0-.47.85,1.07,1.07,0,0,0,.39.81,1.1,1.1,0,0,0,0,2.2A1.11,1.11,0,0,0,9.78,160a1.06,1.06,0,0,0-.43-.84,1.06,1.06,0,0,0,.7-1.82A1,1,0,0,0,10.52,156.5Zm4.32-.43a1.18,1.18,0,0,0-.81,2,1.16,1.16,0,0,0-1,1.06,1.16,1.16,0,0,0-.52-.74,1.1,1.1,0,1,0-1.59-1,1.07,1.07,0,0,0,.5.89A1.18,1.18,0,1,0,13,159.51a1.09,1.09,0,0,0,.25.53,1.27,1.27,0,0,0-.35,2.43,1.17,1.17,0,0,0-.69,1.07,1.18,1.18,0,0,0,1.18,1.19,1.14,1.14,0,0,0,1-.52l.07,0q-.06-1-.06-2a1.08,1.08,0,0,0-.4.3s0,0-.07-.05a1.2,1.2,0,0,0,.46-.37c0-.53,0-1,0-1.58a1,1,0,0,0-.08-.11l.08,0a34.86,34.86,0,0,1,.48-4.31ZM11.47,176a1.06,1.06,0,0,0,2.12,0,1.08,1.08,0,0,0-.14-.51,1,1,0,0,0,.86-1,1.06,1.06,0,0,0-2.12,0,1,1,0,0,0,.14.5A1.05,1.05,0,0,0,11.47,176Zm43,64.22a.93.93,0,1,0,0,1.86.93.93,0,0,0,0-1.86ZM6.94,134a.85.85,0,0,0,.85-.85.85.85,0,1,0-.85.85ZM2.36,146.43a.85.85,0,1,0-.84-.84A.84.84,0,0,0,2.36,146.43ZM4,148.5a.85.85,0,0,0-.85.85.85.85,0,0,0,1.7,0A.85.85,0,0,0,4,148.5Zm1.08-11.45a.85.85,0,1,0,.85-.84A.85.85,0,0,0,5.09,137.05Zm-1.61,9.67a.85.85,0,0,0,1.7,0,.85.85,0,0,0-1.7,0ZM2,164.24a1,1,0,0,0-1-1,.94.94,0,0,0-.75.38c.05.45.1.9.17,1.35a.92.92,0,0,0,.58.22A1,1,0,0,0,2,164.24Zm-.89-2.43A.85.85,0,0,0,.21,161,.78.78,0,0,0,0,161c0,.55.07,1.09.12,1.64H.21A.85.85,0,0,0,1.06,161.81Zm1.18-9.76a.85.85,0,1,0-.85-.85A.85.85,0,0,0,2.24,152.05Zm-.92,7.47a.85.85,0,1,0-.85-.85A.85.85,0,0,0,1.32,159.52ZM47.41,24.92a.85.85,0,1,0-.85-.85A.85.85,0,0,0,47.41,24.92ZM4.07,142.73a.85.85,0,1,0-.85-.85A.85.85,0,0,0,4.07,142.73Zm8-17.7a.85.85,0,1,0-.85-.85A.85.85,0,0,0,12.05,125Zm1.7-.92a.85.85,0,1,0-.85-.84A.85.85,0,0,0,13.75,124.11Zm.61-3.22a.85.85,0,1,0,.84-.85A.85.85,0,0,0,14.36,120.89Zm2.11,2.43a.85.85,0,1,0,.84.85A.85.85,0,0,0,16.47,123.32ZM23.85,197a.85.85,0,1,0-.85.85A.85.85,0,0,0,23.85,197ZM11.73,129.57a.85.85,0,1,0-.85-.84A.85.85,0,0,0,11.73,129.57Zm-3.58,8.21a.85.85,0,0,0,0,1.7.85.85,0,1,0,0-1.7Zm1.8-2.49a.85.85,0,1,0,.85.85A.85.85,0,0,0,10,135.29Zm.74-2.19a.85.85,0,1,0,.85-.85A.85.85,0,0,0,10.69,133.1Zm0,45.76a1.15,1.15,0,1,0-1.15-1.14A1.14,1.14,0,0,0,10.71,178.86Zm6.41,7.89a.85.85,0,1,0-.84.85A.85.85,0,0,0,17.12,186.75Zm1.5,4.94a.93.93,0,1,0-.93.93A.93.93,0,0,0,18.62,191.69Zm-5.91-10.21a1.07,1.07,0,1,0-1.06-1.07A1.06,1.06,0,0,0,12.71,181.48ZM18.85,194a.85.85,0,1,0,.85.84A.85.85,0,0,0,18.85,194Zm3.85-.5a.85.85,0,1,0-.85.84A.85.85,0,0,0,22.7,193.53Zm-1.81,1.24a.85.85,0,1,0,.85.85A.85.85,0,0,0,20.89,194.77Zm-2-8.55a.85.85,0,1,0,.85.85A.85.85,0,0,0,18.93,186.22Zm-1.86-66.17a.85.85,0,0,0,.85-.85.85.85,0,1,0-.85.85Zm3.6,62.4a.85.85,0,1,0-.84.84A.85.85,0,0,0,20.67,182.45Zm-13-24.12a1,1,0,1,0-1,1A1,1,0,0,0,7.64,158.33Zm-2.21,0a.85.85,0,1,0-.85.85A.85.85,0,0,0,5.43,158.32Zm-3.12,6.6a1,1,0,1,0,1,1A1,1,0,0,0,2.31,164.92Zm1.83-1.54a1,1,0,1,0-1,1A1,1,0,0,0,4.14,163.38ZM9.63,174.6a1.15,1.15,0,1,0,1.14-1.14A1.15,1.15,0,0,0,9.63,174.6Zm-7-6.73a1,1,0,0,0-1-1,1,1,0,0,0-.82.44c.09.48.18,1,.29,1.42a.91.91,0,0,0,.53.18A1,1,0,0,0,2.62,167.87Zm2.86-5.65a1,1,0,1,0-1-1A1,1,0,0,0,5.48,162.22Zm3.15,1.52a1.14,1.14,0,1,0-1.15-1.14A1.14,1.14,0,0,0,8.63,163.74Zm2.19,8a1.1,1.1,0,1,0,1.1-1.1A1.11,1.11,0,0,0,10.82,171.71ZM.12,153.05c0,.42-.07.85-.1,1.28a.83.83,0,0,0,.36-.67A.84.84,0,0,0,.12,153.05Zm8.69-21.32a.85.85,0,1,0-.85-.84A.85.85,0,0,0,8.81,131.73ZM43.38,92.49a.85.85,0,1,0,.85-.85A.85.85,0,0,0,43.38,92.49Zm-1.44-1.22a.85.85,0,1,0,.84-.85A.85.85,0,0,0,41.94,91.27ZM45.62,84a.84.84,0,0,0,.15-1.67l-.94,1.13A.85.85,0,0,0,45.62,84ZM41.53,89.7a.85.85,0,1,0-.85-.84A.85.85,0,0,0,41.53,89.7ZM45,67a1,1,0,0,0-.9-1c.06.63.11,1.25.17,1.88A1,1,0,0,0,45,67ZM37.75,97.16a.85.85,0,1,0,.84.84A.85.85,0,0,0,37.75,97.16Zm-.59-2.61A.85.85,0,1,0,38,93.7.85.85,0,0,0,37.16,94.55Zm-1.08,16.92a.85.85,0,1,0,.85-.85A.85.85,0,0,0,36.08,111.47Zm3.21-11.19a.85.85,0,1,0,.85.85A.85.85,0,0,0,39.29,100.28Zm0-7a.85.85,0,1,0,.85-.85A.85.85,0,0,0,39.24,93.29Zm5.64-68.43a.83.83,0,0,0-1.29-.7c-.06.42-.12.85-.17,1.28a.81.81,0,0,0,.61.27A.85.85,0,0,0,44.88,24.86Zm-.52-2.05a.84.84,0,0,0-.45-.74c-.09.51-.16,1-.24,1.55A.83.83,0,0,0,44.36,22.81Zm-.11,8.93a.85.85,0,0,0,.84-.85A.93.93,0,0,0,45,30.6a.81.81,0,0,0,.71.42.85.85,0,1,0-.85-.85.94.94,0,0,0,.06.29.84.84,0,1,0-.71,1.28Zm3.12-12.49a1,1,0,1,0-1,1A1,1,0,0,0,47.37,19.25ZM44.65,35a.85.85,0,1,0,.84.84A.85.85,0,0,0,44.65,35Zm-1.59,11a1.24,1.24,0,0,0-.33-.15c0,.7.06,1.4.08,2.11a1.1,1.1,0,0,0,.73-.83,1.06,1.06,0,0,0,.58.19,1.1,1.1,0,0,0,1.1-1.1s0,0,0-.07a1,1,0,1,0-.31-2,1.08,1.08,0,0,0,.47-.88,1.1,1.1,0,1,0-1.1,1.1.71.71,0,0,0,.2,0,1,1,0,0,0-.41.78A1.08,1.08,0,0,0,43.06,45.94Zm.13-3.57a1,1,0,0,0-.54-.88c0,.58,0,1.16,0,1.75A1,1,0,0,0,43.19,42.37ZM17.35,117.92a.85.85,0,1,0-.85-.85A.85.85,0,0,0,17.35,117.92Zm26.81-85a.85.85,0,0,0-.85-.85.82.82,0,0,0-.48.17c0,.44,0,.87-.07,1.31a.84.84,0,0,0,1.4-.63Zm.13-6.86a.85.85,0,0,0,0,1.7.85.85,0,0,0,0-1.7ZM22,118.75a.84.84,0,0,0,.85-.84.85.85,0,1,0-1.69,0A.84.84,0,0,0,22,118.75Zm.4-6a.85.85,0,1,0-.85-.85A.85.85,0,0,0,22.44,112.73ZM23.67,118a.85.85,0,1,0,.85-.85A.85.85,0,0,0,23.67,118Zm-3.08,7.54a.84.84,0,0,0,.84.85.85.85,0,0,0,0-1.7A.84.84,0,0,0,20.59,125.54Zm2.47-11.31a.85.85,0,1,0,.84.85A.85.85,0,0,0,23.06,114.23ZM18.3,125.36a.85.85,0,0,0-.85.85.85.85,0,0,0,1.7,0A.85.85,0,0,0,18.3,125.36Zm17.36-17.2a.85.85,0,1,0,.85.85A.85.85,0,0,0,35.66,108.16ZM18.48,122.3a.85.85,0,1,0,.85-.85A.85.85,0,0,0,18.48,122.3Zm1.75-6.83a.85.85,0,1,0-.85-.85A.85.85,0,0,0,20.23,115.47Zm0,5.28a.84.84,0,0,0,.85-.84.85.85,0,1,0-1.69,0A.84.84,0,0,0,20.21,120.75Zm13.4-21.37a.85.85,0,1,0-.85-.85A.85.85,0,0,0,33.61,99.38Zm-2,2.5a.85.85,0,1,0,.85-.84A.85.85,0,0,0,31.62,101.88ZM35.77,104a.85.85,0,1,0-.84.84A.85.85,0,0,0,35.77,104Zm-.3-3.74a.85.85,0,1,0,.85.84A.85.85,0,0,0,35.47,100.21Zm-7.06,21.14a.85.85,0,1,0-.84.85A.85.85,0,0,0,28.41,121.35Zm2.7-18.48a.85.85,0,1,0,.85.85A.85.85,0,0,0,31.11,102.87Zm-2.52,13.27a.85.85,0,1,0,.85-.85A.85.85,0,0,0,28.59,116.14Zm.12,2.18a.84.84,0,0,0-.85.84.85.85,0,0,0,1.7,0A.84.84,0,0,0,28.71,118.32ZM29,108.19a.85.85,0,1,0,.85-.85A.85.85,0,0,0,29,108.19ZM2,156.84a.85.85,0,1,0-.85-.85A.85.85,0,0,0,2,156.84Zm11.49-38.13v0l-.53.8A.84.84,0,0,0,13.45,118.71Zm-.66,2.43a.84.84,0,0,0-.46-.74c-.3.47-.6.94-.89,1.41a.8.8,0,0,0,.5.18A.85.85,0,0,0,12.79,121.14Zm41-18.41a.85.85,0,1,0-.85.85A.85.85,0,0,0,53.75,102.73ZM21.28,109.6a.86.86,0,0,0-.38-.7l-1.08,1.27a.81.81,0,0,0,.61.27A.85.85,0,0,0,21.28,109.6ZM19,112.75a.84.84,0,0,0-.59-.8c-.33.41-.65.82-1,1.24a.84.84,0,0,0,.71.4A.85.85,0,0,0,19,112.75ZM5.46,133.61a1.3,1.3,0,0,0,0-.21l-.39.93A.85.85,0,0,0,5.46,133.61Zm-4.3,14.5a.85.85,0,0,0-.27-.61c-.09.46-.16.92-.24,1.38A.83.83,0,0,0,1.16,148.11Zm3.48-10.54a.84.84,0,0,0-.58-.79c-.2.52-.4,1.05-.59,1.58a.87.87,0,0,0,.32.06A.85.85,0,0,0,4.64,137.57Zm4.61-10.14a.85.85,0,1,0,0-1.69l-.1,0L8.5,127A.84.84,0,0,0,9.25,127.43Zm1.68-4.28a.82.82,0,0,0-.08-.35c-.24.39-.47.79-.7,1.18A.85.85,0,0,0,10.93,123.15Zm18.79-21a.85.85,0,1,0-.85-.85A.85.85,0,0,0,29.72,102.15Zm1.45-2.66a.85.85,0,0,0,.85-.85.83.83,0,0,0-.69-.81l-1,1A.83.83,0,0,0,31.17,99.49Zm-3.8,91.44a1,1,0,1,0-1,1A1,1,0,0,0,27.37,190.93Zm10.3-97.62a.85.85,0,1,0,0-1.7l-.08,0-.75.76s0,0,0,.07A.85.85,0,0,0,37.67,93.31ZM27,104.49a.85.85,0,1,0-.85-.85A.85.85,0,0,0,27,104.49Zm-4.45,5a.85.85,0,0,0,.84-.85.85.85,0,0,0-1.69,0A.85.85,0,0,0,22.56,109.5Zm1.58-2.81a.84.84,0,0,0,.18-1.66l-1,1.09A.83.83,0,0,0,24.14,106.69Zm3.61,5.15a.85.85,0,1,0,.85.85A.85.85,0,0,0,27.75,111.84Zm1.25-.2a.85.85,0,1,0-.84-.85A.85.85,0,0,0,29,111.64Zm54.42,94.45a1,1,0,0,0-1,1s0,.06,0,.08l1.8-.53A.94.94,0,0,0,83.42,206.09ZM40.08,89.92a.82.82,0,0,0-.28-.62l-1.14,1.24a.84.84,0,0,0,.57.23A.85.85,0,0,0,40.08,89.92ZM63.87,257.51a1.18,1.18,0,0,0-1.18,1.19,1.16,1.16,0,0,0,.19.61A1.18,1.18,0,0,0,62,260a18.58,18.58,0,0,0,3-1.47A1.17,1.17,0,0,0,63.87,257.51Zm13.58-49.15,1.7-.36a1,1,0,0,0-1.7.36Zm7.15-1.86,1.44-.45a.82.82,0,0,0-.62-.28A.84.84,0,0,0,84.6,206.5Zm-2.06-2.45a1.06,1.06,0,0,0-.42-.83,1.13,1.13,0,0,0,.82-1.08,1,1,0,0,0-.06-.3c.06,0,.11,0,.17,0a1.11,1.11,0,0,0,1.1-1.1,1.06,1.06,0,0,0,0-.19c-1,.29-2.08.55-3.14.79a1.12,1.12,0,0,0,.17,1.69,1,1,0,0,0-.72,1,.94.94,0,0,0,.06.29,1.17,1.17,0,0,0-.64-.25,1.2,1.2,0,0,0,.41-.88A1.19,1.19,0,1,0,79,204.39a1.13,1.13,0,0,0-.37.83,1.15,1.15,0,0,0,1.15,1.14l.18,0a1.07,1.07,0,0,0-.09.41,1,1,0,0,0,.61.93l1.21-.32a1,1,0,0,0-.8-1.63l-.11,0a1.15,1.15,0,0,0,.14-.52,1,1,0,0,0-.07-.35,1,1,0,0,0,1.7-.82Zm5.9.4a.85.85,0,0,0-.85.85.58.58,0,0,0,0,.19l1.55-.58A.84.84,0,0,0,88.44,204.45Zm16.3-9.32a1.06,1.06,0,1,0-1.32,1,.36.36,0,0,0,0,.1,1.16,1.16,0,0,0,.31.78c.58-.47,1.16-1,1.72-1.44a1.11,1.11,0,0,0-.69-.44Zm-2.87,2.36A.85.85,0,0,0,102,197a1,1,0,1,0-1,1,1,1,0,0,0,.64-.25.91.91,0,0,0-.08.85c.55-.39,1.08-.78,1.61-1.19a1,1,0,0,0-1.32.06Zm-1.17.68a1,1,0,0,0-1,1s0,0,0,.06a1,1,0,0,0-1,1,.76.76,0,0,0,0,.16l.93-.51c.61-.39,1.2-.79,1.79-1.2A1,1,0,0,0,100.7,198.17Zm-55.14,60.2a1,1,0,0,0-1,.9c.53.25,1.07.49,1.64.71l.13,0a1,1,0,0,0,.24-.64A1,1,0,0,0,45.56,258.37ZM15.07,191.82a1.1,1.1,0,0,0-.4.08.94.94,0,0,0,.2-.57,1,1,0,0,0-.79-1,1,1,0,0,0,.07-.36,1.07,1.07,0,0,0-.28-.71l.11,0a1,1,0,1,0-1-1,1,1,0,0,0,.25.63c-.05,0-.1,0-.16,0a1.07,1.07,0,0,0-1,.94q1.75,2,3.67,3.74a1,1,0,0,0-.65-1.8Zm8.67,6.34a.85.85,0,0,0-.85.85,1.06,1.06,0,0,0,0,.19l1,.62a.84.84,0,0,0,.68-.81A.85.85,0,0,0,23.74,198.16Zm-12.51-12a1.14,1.14,0,0,0-.49.12,1.38,1.38,0,0,0-.19-.28,1.14,1.14,0,1,0-2.09-.64q1.15,1.67,2.43,3.21a1.18,1.18,0,0,0,0-.2,1.22,1.22,0,0,0,.38.07,1.14,1.14,0,1,0,0-2.28ZM31.84,204c.58.26,1.16.51,1.75.74l.39.14a1.08,1.08,0,0,0-.19-2.12,1.17,1.17,0,0,0,.11-.49,1.19,1.19,0,0,0-1.19-1.19,1.17,1.17,0,0,0-1.11.81,1,1,0,0,0-.55-.17,1.07,1.07,0,0,0-.3.06,1.09,1.09,0,0,0-.48-2.08,1.14,1.14,0,0,0-.45.1s0,0,0,0a1,1,0,0,0-1-1,1,1,0,0,0-.64.24.88.88,0,0,0,.06-.28,1.06,1.06,0,0,0-1.06-1.06,1.38,1.38,0,0,0-.2,0,.86.86,0,0,0,.09-.39,1,1,0,0,0-.43-.78,1,1,0,0,0,.08-.39,1,1,0,0,0-1.94,0,1,1,0,0,0,.43.78,1,1,0,0,0-.08.39,1,1,0,0,0,1,1l.14,0a1,1,0,0,0,1.61,1.27,1.09,1.09,0,0,0-.05.26,1,1,0,0,0,1,1,.91.91,0,0,0,.37-.08s0,.06,0,.09a1.11,1.11,0,0,0,1.11,1.11,1.36,1.36,0,0,0,.29-.06,1.08,1.08,0,0,0-.61,1,1,1,0,0,0,.07.36l1.39.64a1.06,1.06,0,0,0,.66-.58,1.15,1.15,0,0,0,.57.2,1.29,1.29,0,0,0-.08.4s0,.09,0,.14a1.14,1.14,0,0,0-.33-.06A1.16,1.16,0,0,0,31.84,204ZM2.63,174.14a.7.7,0,0,0,0-.14,1.13,1.13,0,0,0-.37-.82C2.39,173.51,2.51,173.82,2.63,174.14Zm48.06,86.65a.84.84,0,0,0-.57.23c.43.07.85.15,1.29.2A.83.83,0,0,0,50.69,260.79Zm7.79-3.22-.47.16A1,1,0,0,0,58.48,257.57Zm-5.06,3.8c.42,0,.85,0,1.29,0a.84.84,0,0,0-.65-.32A.86.86,0,0,0,53.42,261.37ZM48,260.53c.15.05.31.08.47.12a.89.89,0,0,0-.43-.12ZM35.38,97.41a.85.85,0,1,0-.85-.85A.85.85,0,0,0,35.38,97.41ZM70.65,228.2a1,1,0,0,0-.56-.87c.11.5.23,1,.32,1.5A1,1,0,0,0,70.65,228.2Zm.76-7.86a.85.85,0,1,0-.84.84A.85.85,0,0,0,71.41,220.34Zm-1.65,5.26a.82.82,0,0,0,.35.08.85.85,0,1,0,0-1.7.84.84,0,0,0-.57.23C69.61,224.67,69.69,225.14,69.76,225.6ZM56.4,245.83c.05-.41.09-.82.1-1.24,0-.2,0-.4,0-.6a1,1,0,0,0-.09,1.84ZM69.72,216.2a.93.93,0,1,0,.93.93A.93.93,0,0,0,69.72,216.2Zm1.74,14.62a1,1,0,0,0-.91-1c.1.67.19,1.34.25,2A1,1,0,0,0,71.46,230.82Zm2.32-9.32a.85.85,0,0,0,.85.85l.08,0-.27-1.64A.84.84,0,0,0,73.78,221.5Zm-5-1.84a.82.82,0,0,0,.12-.41.84.84,0,0,0-.3-.63C68.68,219,68.73,219.31,68.79,219.66ZM50.65,253.13a.83.83,0,0,0,.69.81,11.7,11.7,0,0,0,1-.75s0,0,0-.06a.84.84,0,0,0-.84-.85A.85.85,0,0,0,50.65,253.13Zm20.86-38a1,1,0,1,0,1,1A1,1,0,0,0,71.51,215.16ZM33.14,200.43a1.15,1.15,0,0,0,1.15-1.14,1.14,1.14,0,0,0-.68-1l.09,0a1.1,1.1,0,1,0-.44-.11l-.12,0a1.15,1.15,0,0,0,0,2.29Zm10.83,39a1,1,0,1,0-1-1A1,1,0,0,0,44,239.43ZM38.2,205.7a1,1,0,0,0-1-1,1,1,0,0,0-1,.93l-.15,0c.66.23,1.32.47,2,.68A1,1,0,0,0,38.2,205.7Zm-10-12.47a1.06,1.06,0,1,0-1.06-1.06A1.06,1.06,0,0,0,28.19,193.23Zm18,43a.85.85,0,1,0-.84.85A.85.85,0,0,0,46.2,236.23Zm-4,17.32a1.1,1.1,0,1,0,1.1-1.1A1.11,1.11,0,0,0,42.23,253.55Zm5.18-9.91a1,1,0,1,0-1,1A1,1,0,0,0,47.41,243.64Zm-5,4a1.15,1.15,0,1,0,1.14,1.14A1.14,1.14,0,0,0,42.4,247.63Zm4-6.57a.93.93,0,1,0-.93-.93A.93.93,0,0,0,46.42,241.06ZM50.8,139.59a.93.93,0,1,0,.93-.93A.93.93,0,0,0,50.8,139.59Zm4.6-2a.93.93,0,1,0,.93.93A.93.93,0,0,0,55.4,137.63Zm-5.85,3.49a.85.85,0,1,0,.85.85A.85.85,0,0,0,49.55,141.12Zm-.83-2.24a1,1,0,0,0-1,1,.94.94,0,0,0,.07.37.83.83,0,0,0-.53-.2.85.85,0,1,0,.85.85.73.73,0,0,0-.06-.3,1,1,0,0,0,.64.25,1,1,0,1,0,0-1.94ZM44.27,84.63a.86.86,0,0,0-.08-.36l-1,1.16a.78.78,0,0,0,.22,0A.85.85,0,0,0,44.27,84.63Zm5.91,59.71a.84.84,0,0,0,.79.83.85.85,0,0,0,0,1.57c.31-.43.64-.85,1-1.27a.83.83,0,0,0-.62-.36.84.84,0,0,0,.52-.77.85.85,0,0,0-1.7,0ZM43.63,36a.85.85,0,0,0-.85-.85h-.07c0,.55,0,1.1-.05,1.66l.12,0A.85.85,0,0,0,43.63,36Zm4.86,100.8a1,1,0,1,0,1,1A1,1,0,0,0,48.49,136.75Zm5-27.7c-.08-.54-.15-1.08-.23-1.62a1,1,0,0,0-.31.73A1,1,0,0,0,53.51,109.05Zm-3,5.81a1,1,0,0,0,0-2,1,1,0,0,0-.58.21c.08.59.17,1.18.26,1.77A1.07,1.07,0,0,0,50.5,114.86ZM72.7,224.23a.85.85,0,1,0-.84-.84A.85.85,0,0,0,72.7,224.23ZM56.25,139.31a.85.85,0,1,0,.85.84A.85.85,0,0,0,56.25,139.31Zm16.61,78.4a.85.85,0,1,0,.85.85A.85.85,0,0,0,72.86,217.71Zm-.13,4a.85.85,0,1,0-.84-.85A.85.85,0,0,0,72.73,221.68Zm.92-4.94a.92.92,0,0,0,.21.56l-.15-.83A.76.76,0,0,0,73.65,216.74Zm1.47,8.14a.81.81,0,0,0-.56-.23.85.85,0,1,0,0,1.69.82.82,0,0,0,.72-.44c0-.12,0-.24,0-.37S75.16,225.09,75.12,224.88ZM57.54,137.41a1,1,0,1,0,1-1A1,1,0,0,0,57.54,137.41Zm-1.23,5.53a.85.85,0,0,0,.84.85.78.78,0,0,0,.48-.17.87.87,0,0,0-.1.39.85.85,0,1,0,1.69,0,.84.84,0,0,0-.84-.84.89.89,0,0,0-.49.16.71.71,0,0,0,.11-.39.85.85,0,0,0-1.69,0Zm16.56,89.32.06,0a1.08,1.08,0,0,0,1,.84,1.11,1.11,0,0,0,0-2.21l-.06,0a1.07,1.07,0,0,0-.48-.65,1,1,0,0,0,.55-.9,1,1,0,1,0-2,0,1,1,0,0,0,.45.82,1.09,1.09,0,0,0-.64,1A1.11,1.11,0,0,0,72.87,232.26Zm-.33-4.72a.93.93,0,1,0-.94-.93A.93.93,0,0,0,72.54,227.54ZM14.36,118.94a.84.84,0,0,0,.07-1.68l-.83,1.2A.85.85,0,0,0,14.36,118.94Zm2.32,56a1,1,0,1,0-1,1A1,1,0,0,0,16.68,175Zm5.42-37a.78.78,0,0,0,.49-.18l.32-.49a.58.58,0,0,0,0-.18.85.85,0,1,0-.85.85Zm-.24.95a.58.58,0,0,0-.18,0,.84.84,0,0,0-.65,1.38C21.3,139.8,21.57,139.35,21.86,138.91Zm3.8-6.17a.87.87,0,0,0,.19.51c.33-.43.66-.86,1-1.28a.77.77,0,0,0-.34-.08A.85.85,0,0,0,25.66,132.74Zm2.39-2.25v0l.7-.84A.85.85,0,0,0,28.05,130.49Zm-14.72,26a1.1,1.1,0,0,0,1.1-1.1,1.08,1.08,0,0,0-.89-1.06,1.06,1.06,0,1,0-1.85-.71,1,1,0,0,0,.84,1,1.07,1.07,0,0,0-.31.75A1.11,1.11,0,0,0,13.33,156.54Zm3.15-22a.85.85,0,1,0-.85-.85A.85.85,0,0,0,16.48,134.58ZM15.27,145.3a.84.84,0,0,0-.36,1.61,1,1,0,0,0-.43.79,1,1,0,1,0,1.31-.9.82.82,0,0,0,.33-.65A.85.85,0,0,0,15.27,145.3ZM15,136.73a.85.85,0,1,0,.85-.85A.85.85,0,0,0,15,136.73Zm13.09-13.5a.85.85,0,1,0,.85-.84A.85.85,0,0,0,28.11,123.23Zm1.48,1.93a.85.85,0,0,0-1.7,0,.85.85,0,0,0,1.7,0Zm2-18.18a.85.85,0,1,0,.85-.85A.85.85,0,0,0,31.56,107Zm-.33,4.09a.85.85,0,1,0-.85-.84A.85.85,0,0,0,31.23,111.07Zm3.33-.35a.84.84,0,0,0-.84-.85.85.85,0,0,0,0,1.7A.84.84,0,0,0,34.56,110.72Zm-1.23-6.44a.85.85,0,1,0,.85.85A.85.85,0,0,0,33.33,104.28Zm-3.61,23.31a.85.85,0,1,0-.85-.85A.85.85,0,0,0,29.72,127.59Zm-12,19c.1-.24.2-.49.31-.73l.13-.27a1,1,0,0,0-.48.84A.75.75,0,0,0,17.75,146.56Zm13.44-32.79a.85.85,0,1,0-.84-.85A.85.85,0,0,0,31.19,113.77ZM29.93,121a.85.85,0,1,0,1.7,0,.85.85,0,0,0-1.7,0Zm-3.6-3.73a.85.85,0,1,0-.84-.85A.85.85,0,0,0,26.33,117.27Zm-1.61,12.06a.85.85,0,1,0,.85.85A.85.85,0,0,0,24.72,129.33Zm-.66,6a1.07,1.07,0,0,0,.3-.06c.17-.25.35-.49.53-.74a.43.43,0,0,0,0-.05.85.85,0,1,0-.84.85Zm-4.68,7.63a1,1,0,0,0-1,1,1,1,0,0,0,.27.66c.27-.53.54-1.07.83-1.6Zm-3.83,10a1.14,1.14,0,1,0-.48,2.19Q15.28,154.07,15.55,153Zm9.41-27a.85.85,0,0,0,0,1.7.85.85,0,0,0,0-1.7Zm-.75-3.5a.85.85,0,1,0,.85-.85A.85.85,0,0,0,24.21,122.44Zm.75,1.91a.85.85,0,1,0-.85.85A.85.85,0,0,0,25,124.35Zm-5.14,14.86a.85.85,0,1,0-.85.85A.85.85,0,0,0,19.82,139.21Zm3.81-7.51a.84.84,0,0,0-.84-.85.85.85,0,0,0,0,1.7A.84.84,0,0,0,23.63,131.7Zm11.06-20a.85.85,0,1,0,.85.85A.85.85,0,0,0,34.69,111.65Zm-19.3,38.11a1,1,0,1,0-1,1A1,1,0,0,0,15.39,149.76Zm.67,0a1,1,0,0,0,.1.43,1.13,1.13,0,0,0-.43,2.16c.32-1.21.71-2.41,1.15-3.6A1,1,0,0,0,16.06,149.75Zm-4.79,0a1,1,0,1,0,1-1A1,1,0,0,0,11.27,149.71Zm7.65-12.44a.85.85,0,1,0-.85-.85A.85.85,0,0,0,18.92,137.27Zm-3.83,3.34a.85.85,0,1,0,.85.85A.85.85,0,0,0,15.09,140.61Zm-2.72-3.16a.85.85,0,1,0,.85.85A.85.85,0,0,0,12.37,137.45Zm1.94,1a.85.85,0,1,0,.85.85A.85.85,0,0,0,14.31,138.45Zm-1.32,8a.85.85,0,1,0-.84-.85A.85.85,0,0,0,13,146.46Zm-.46-4.35a.85.85,0,0,0,.85.85.85.85,0,1,0-.85-.85Zm14.81-14.05a.85.85,0,1,0-.85.85A.85.85,0,0,0,27.34,128.06Zm35.74-56.6a1,1,0,1,0-1-1A1,1,0,0,0,63.08,71.46Zm-5.24-6.94L57,65.9a.82.82,0,0,0,.61.27.85.85,0,0,0,.85-.85A.84.84,0,0,0,57.84,64.52Zm3.84-2.38a.93.93,0,1,0,.93.93A.93.93,0,0,0,61.68,62.14Zm-.48,6.6a.93.93,0,1,0-.93-.93A.93.93,0,0,0,61.2,68.74ZM47.65,31.84a.85.85,0,1,0,.84-.84A.85.85,0,0,0,47.65,31.84Zm2.22-4.05A.85.85,0,1,0,49,27,.85.85,0,0,0,49.87,27.79Zm2-2.27a.93.93,0,1,0,.93.93A.93.93,0,0,0,51.91,25.52Zm9.3,51.6a.93.93,0,1,0-.93.93A.93.93,0,0,0,61.21,77.12Zm-11-53.94a.94.94,0,1,0,.93.93A.93.93,0,0,0,50.19,23.18Zm7,70.36a.85.85,0,1,0,.85.85A.85.85,0,0,0,57.14,93.54Zm1.68,7.51a1,1,0,0,0-.34-.07A1.06,1.06,0,0,0,57.42,102a1,1,0,0,0,.08.4C57.94,102,58.39,101.52,58.82,101.05Zm.56-36.67a.93.93,0,1,0,1.86,0,.93.93,0,1,0-1.86,0Zm-3.91,36.48a.94.94,0,1,0-.94.93A.93.93,0,0,0,55.47,100.86ZM47.79,25.43a.85.85,0,1,0,.85.84A.85.85,0,0,0,47.79,25.43Zm8.6,74.17a1,1,0,1,0,1-1A1,1,0,0,0,56.39,99.6ZM60,73.16a.85.85,0,1,0-.85-.85A.85.85,0,0,0,60,73.16ZM57.83,80a.85.85,0,1,0,.85-.85A.85.85,0,0,0,57.83,80Zm1,4.54a.85.85,0,1,0-.85.84A.85.85,0,0,0,58.87,84.57Zm-.27,5.71a.85.85,0,0,0-.85-.85.84.84,0,0,0-.84.85.83.83,0,0,0,.84.84A.84.84,0,0,0,58.6,90.28ZM37.7,110.36a.85.85,0,1,0,.85-.85A.85.85,0,0,0,37.7,110.36Zm3-11.44a.84.84,0,0,0,.84.85.85.85,0,1,0,0-1.7A.84.84,0,0,0,40.72,98.92Zm.49-4.48a.85.85,0,1,0,.85-.85A.85.85,0,0,0,41.21,94.44Zm-1.31,8a.85.85,0,1,0,.84.85A.85.85,0,0,0,39.9,102.42ZM42.41,97a.85.85,0,1,0,.85-.85A.85.85,0,0,0,42.41,97Zm1.93,7.17a.85.85,0,1,0,.85.85A.85.85,0,0,0,44.34,104.14Zm-9.56,16.25a.85.85,0,1,0,.85-.84A.85.85,0,0,0,34.78,120.39Zm2.4-4a.85.85,0,1,0,.85-.85A.85.85,0,0,0,37.18,116.35Zm-2-1.55a.85.85,0,1,0,.85.85A.85.85,0,0,0,35.21,114.8ZM45.43,33.12a.85.85,0,1,0,.85-.85A.85.85,0,0,0,45.43,33.12ZM39,105.28a.85.85,0,0,0-.85.85.85.85,0,0,0,1.7,0A.85.85,0,0,0,39,105.28Zm4.22-50.13a1,1,0,0,0,.55.18,1.11,1.11,0,0,0,1.1-1.11,1.07,1.07,0,0,0-.37-.81A1.08,1.08,0,0,0,45,52.5a1.11,1.11,0,0,0-1.11-1.1,1.07,1.07,0,0,0-.89.5c0,.43,0,.86.07,1.29a1,1,0,0,0,.09.13s-.05,0-.08.06Zm-.49-10a1,1,0,0,0,0-1.39C42.69,44.19,42.7,44.66,42.72,45.12Zm1.73,19.53a1,1,0,0,0-.58-.91c.05.57.1,1.14.16,1.71A1,1,0,0,0,44.45,64.65ZM45,40.13a.93.93,0,1,0,.93-.93A.93.93,0,0,0,45,40.13Zm2.76,38.56a.85.85,0,1,0-.85.85A.85.85,0,0,0,47.73,78.69ZM46.31,94.9a.85.85,0,1,0-.85.85A.85.85,0,0,0,46.31,94.9ZM44.4,62.05a1.06,1.06,0,0,0-.32-.76.9.9,0,0,0,.07-.37,1.15,1.15,0,0,0,.45.11,1.07,1.07,0,1,0,0-2.13,1.06,1.06,0,0,0-1.05,1c.08,1,.17,2,.26,3.07A1.05,1.05,0,0,0,44.4,62.05Zm2.49,23.4a.85.85,0,1,0-.85.85A.85.85,0,0,0,46.89,85.45ZM46,100.35a.85.85,0,1,0-.85.85A.85.85,0,0,0,46,100.35Zm2.76,100.11a1,1,0,0,0,1,1,1,1,0,0,0,.92-.59l-1.92-.53S48.73,200.43,48.73,200.46Zm9.23-46a.85.85,0,0,0-.85-.85.82.82,0,0,0-.46.16l.27,1.5a.58.58,0,0,0,.19,0A.85.85,0,0,0,58,154.51ZM54.67,22.29a1.06,1.06,0,0,0-1,.66,1,1,0,0,0-.72-.33,1,1,0,0,0,0,1.95,1,1,0,0,0,.88-.57,1.06,1.06,0,0,0,.82.41,1,1,0,0,0,.17,0,1.05,1.05,0,0,0-.28.71,1,1,0,0,0,.33.76c.23-.63.47-1.24.71-1.82a.8.8,0,0,0-.15,0,1.07,1.07,0,0,0,.28-.71A1.05,1.05,0,0,0,54.67,22.29Zm.38,122.44c.09.5.17,1,.26,1.48a.82.82,0,0,0-.26-1.48Zm6.68,13.53a1.16,1.16,0,0,0,.37-.07c-.12-.6-.24-1.19-.35-1.79h0a.93.93,0,0,0,0,1.86Zm-14.19,79.6a.85.85,0,1,0-.85-.85A.85.85,0,0,0,47.54,237.86Zm11.51-90.33a.85.85,0,0,0,.85.85.72.72,0,0,0,.29-.06c-.11-.54-.21-1.09-.31-1.63A.84.84,0,0,0,59.05,147.53Zm-1.34,4.16a.83.83,0,0,0,.84.84.84.84,0,0,0,.85-.84.85.85,0,0,0-.85-.85A.84.84,0,0,0,57.71,151.69Zm3.16-14.33a.92.92,0,0,0-.89.75l1.1-.71A1.55,1.55,0,0,0,60.87,137.36Zm-2,4.14-.27-1.5a.82.82,0,0,0,.27,1.5ZM52.66,245.55a.85.85,0,1,0-.85.84A.85.85,0,0,0,52.66,245.55Zm-1.87-39.48a1,1,0,1,0,1,1A1,1,0,0,0,50.79,206.07Zm.27,42.5a.85.85,0,1,0-.85-.85A.85.85,0,0,0,51.06,248.57Zm-.81,2.21a.85.85,0,1,0-.85-.85A.85.85,0,0,0,50.25,250.78ZM22.15,122.3a.85.85,0,1,0,.85.85A.85.85,0,0,0,22.15,122.3Zm35.42,26.56a.85.85,0,1,0,.85.85A.85.85,0,0,0,57.57,148.86Zm-8.64,59a.85.85,0,0,0-.85.85v0c.55.09,1.09.2,1.63.28a.73.73,0,0,0,.06-.3A.85.85,0,0,0,48.93,207.85Zm6.89,33.76a1,1,0,0,0,0,1.95.93.93,0,0,0,.64-.26,12.26,12.26,0,0,0-.25-1.61A1,1,0,0,0,55.82,241.61Zm-1.35,4.12a.85.85,0,1,0,.85.85A.85.85,0,0,0,54.47,245.73Zm-1,5.45a.85.85,0,1,0-.85-.85A.85.85,0,0,0,53.48,251.18ZM58.91,158a1,1,0,1,0-1-1A1,1,0,0,0,58.91,158Zm2.88-77.33a.93.93,0,1,0-.93.93A.94.94,0,0,0,61.79,80.64Zm1.65-2.13a1,1,0,1,0-1,1A1,1,0,0,0,63.44,78.51Zm-3,5.42a1,1,0,1,0-1-1A1,1,0,0,0,60.43,83.93Zm-1.24,9.46a.93.93,0,1,0-.93-.93A.93.93,0,0,0,59.19,93.39ZM63,81.75a1,1,0,1,0-1-1A1,1,0,0,0,63,81.75Zm3.23-3.09a1.1,1.1,0,1,0-1.1,1.1A1.11,1.11,0,0,0,66.27,78.66ZM59.49,100.3a1.06,1.06,0,0,0-.65.73ZM66.72,75a1.1,1.1,0,0,0-2.1-.46.79.79,0,0,0,0-.22,1,1,0,0,0-1.8-.65.92.92,0,0,0-.74-.39.93.93,0,1,0,0,1.86,1,1,0,0,0,.67-.28,1,1,0,0,0,.85.48,1,1,0,0,0,.92-.6,1.19,1.19,0,0,0,0,.26,1.1,1.1,0,1,0,2.2,0Zm-2.78,9.83a1.06,1.06,0,1,0-1.06-1.06A1.06,1.06,0,0,0,63.94,84.81Zm-7.29,63.51a.85.85,0,1,0-.85-.85A.85.85,0,0,0,56.65,148.32Zm-8.14-2.2a.85.85,0,0,0,0-1.69.85.85,0,1,0,0,1.69Zm-1.94-3.54a.85.85,0,1,0,.84.85A.85.85,0,0,0,46.57,142.58Zm-.19,7.63a.85.85,0,0,0,.85.85.85.85,0,1,0-.85-.85Zm2-1a.85.85,0,1,0,0-1.7.85.85,0,0,0,0,1.7ZM50,112.36a1,1,0,0,0,0-2,.92.92,0,0,0-.41.1c.09.61.17,1.21.26,1.82A.8.8,0,0,0,50,112.36Zm2.41-8.16a.85.85,0,1,0-.85.85A.85.85,0,0,0,52.37,104.2Zm-3,6.09h0l.1-.09v.06a.91.91,0,0,0,.77-.89.93.93,0,0,0-1.86,0A.93.93,0,0,0,49.35,110.29Zm-.11-3.47a.85.85,0,0,0,1.7,0,.85.85,0,1,0-1.7,0ZM52,107a1,1,0,1,0,1,1A1,1,0,0,0,52,107Zm-4.17,143.8a.85.85,0,1,0-.84-.85A.85.85,0,0,0,47.85,250.75Zm-34-125.43a.85.85,0,1,0,.85.85A.85.85,0,0,0,13.81,125.32Zm-2.33,10.14a.85.85,0,1,0,.85-.85A.85.85,0,0,0,11.48,135.46Zm1.84-3.36a.85.85,0,1,0,.85.85A.85.85,0,0,0,13.32,132.1Zm-1-2a.85.85,0,1,0,.85.85A.85.85,0,0,0,12.35,130.13Zm-2.09,10.58a.85.85,0,1,0,.85-.85A.85.85,0,0,0,10.26,140.71Zm.65,3.2a.85.85,0,0,0,0-1.7.85.85,0,0,0,0,1.7ZM8,150.15a.85.85,0,0,0,0,1.7.85.85,0,0,0,0-1.7ZM9.77,147a.85.85,0,1,0-.85-.85A.85.85,0,0,0,9.77,147Zm-.36,5.16a.93.93,0,1,0,.93-.93A.93.93,0,0,0,9.41,152.14Zm.25-3.7a.85.85,0,1,0,.85.85A.85.85,0,0,0,9.66,148.44ZM19.94,128a.85.85,0,1,0,.85.85A.85.85,0,0,0,19.94,128Zm.68,6.25a.85.85,0,1,0-.84-.85A.85.85,0,0,0,20.62,134.28Zm1.94-6.41a.85.85,0,1,0-.85.84A.85.85,0,0,0,22.56,127.87Zm-8.38,1.91a.85.85,0,1,0,.85-.84A.85.85,0,0,0,14.18,129.78ZM20.56,131a.85.85,0,1,0-.85.85A.85.85,0,0,0,20.56,131Zm-1.81,3.94a.85.85,0,1,0-.85-.85A.85.85,0,0,0,18.75,134.91Zm-2.22-4.33a.85.85,0,1,0,.85.85A.85.85,0,0,0,16.53,130.58Zm-.42,10.33a.85.85,0,1,0,.85-.84A.85.85,0,0,0,16.11,140.91Zm1.1,2.46a1,1,0,1,0,1,1A1,1,0,0,0,17.21,143.37ZM6.79,144.83a.85.85,0,0,0,.85.85.85.85,0,0,0,0-1.7A.85.85,0,0,0,6.79,144.83Zm10.79,31.8a.85.85,0,1,0-.85.85A.85.85,0,0,0,17.58,176.63Zm.31,2a.85.85,0,0,0-.84.85.85.85,0,0,0,1.69,0A.85.85,0,0,0,17.89,178.64Zm0,5.19a.85.85,0,1,0,.85.85A.85.85,0,0,0,17.86,183.83Zm-1.81-2.14a.85.85,0,1,0,.85.85A.85.85,0,0,0,16.05,181.69ZM8,142.83a.84.84,0,0,0,.85-.84.85.85,0,1,0-1.69,0A.84.84,0,0,0,8,142.83ZM15.5,181a1,1,0,1,0-1-1A1,1,0,0,0,15.5,181Zm29.8,53.28a.85.85,0,1,0-.85-.85A.85.85,0,0,0,45.3,234.31Zm-6.14-32.05a.85.85,0,1,0-.85-.84A.85.85,0,0,0,39.16,202.26ZM38.1,200.1a.85.85,0,1,0-.84-.85A.85.85,0,0,0,38.1,200.1ZM40,206.61a1,1,0,0,0-.44.11l1.25.36A.94.94,0,0,0,40,206.61ZM7.49,147.44a.85.85,0,1,0-.84-.85A.85.85,0,0,0,7.49,147.44Zm-1.1,3.78a.85.85,0,1,0,.85.85A.85.85,0,0,0,6.39,151.22Zm-1.15-2.66a.85.85,0,1,0,.85-.85A.85.85,0,0,0,5.24,148.56Zm41.54,84.61a.85.85,0,1,0,1.69,0,11.76,11.76,0,0,0-1.58-.39A.77.77,0,0,0,46.78,233.17ZM13.4,170.93a1,1,0,0,0,1,1h.05a1,1,0,0,0-.42.8,1,1,0,0,0,2,0,.94.94,0,0,0-.06-.29s0-.09,0-.14a1,1,0,0,0-.92-.59H15a1,1,0,0,0,.42-.8,1,1,0,0,0-2,0Zm.84,7.3a1,1,0,1,0-1-1A1,1,0,0,0,14.24,178.23Zm.49-11.33c-.07-.46-.13-.93-.17-1.39a1,1,0,0,0,.17,1.39ZM7.58,156.66a1,1,0,1,0-1-1A1,1,0,0,0,7.58,156.66Zm2.16-3.3a1,1,0,1,0,1,1A1,1,0,0,0,9.74,153.36Z"/></g></g></svg>